<?xml version="1.0" encoding="UTF-8" standalone="no"?>
<!DOCTYPE svg PUBLIC "-//W3C//DTD SVG 1.1//EN"
 "http://www.w3.org/Graphics/SVG/1.1/DTD/svg11.dtd">
<!-- Generated by graphviz version 13.0.1 (20250615.1724)
 -->
<!-- Title: G Pages: 1 -->
<svg width="244pt" height="109pt"
 viewBox="0.00 0.00 244.00 109.00" xmlns="http://www.w3.org/2000/svg" xmlns:xlink="http://www.w3.org/1999/xlink">
<g id="graph0" class="graph" transform="scale(1 1) rotate(0) translate(21.6 87.35)">
<title>G</title>
<polygon fill="#111111" stroke="none" points="-21.6,21.6 -21.6,-87.35 222.85,-87.35 222.85,21.6 -21.6,21.6"/>
<!-- browser/main&#45;5TXN3J6S.js -->
<g id="node1" class="node">
<title>browser/main&#45;5TXN3J6S.js</title>
<path fill="none" stroke="#cfffac" d="M183.21,-23.75C183.21,-23.75 18.04,-23.75 18.04,-23.75 14.08,-23.75 10.12,-19.79 10.12,-15.83 10.12,-15.83 10.12,-7.92 10.12,-7.92 10.12,-3.96 14.08,0 18.04,0 18.04,0 183.21,0 183.21,0 187.17,0 191.12,-3.96 191.12,-7.92 191.12,-7.92 191.12,-15.83 191.12,-15.83 191.12,-19.79 187.17,-23.75 183.21,-23.75"/>
<text xml:space="preserve" text-anchor="middle" x="100.62" y="-6.45" font-family="Arial" font-size="14.00" fill="#cfffac">browser/main&#45;5TXN3J6S.js</text>
</g>
<!-- browser/polyfills&#45;B6TNHZQ6.js -->
<g id="node2" class="node">
<title>browser/polyfills&#45;B6TNHZQ6.js</title>
<path fill="none" stroke="#cfffac" d="M193.33,-65.75C193.33,-65.75 7.92,-65.75 7.92,-65.75 3.96,-65.75 0,-61.79 0,-57.83 0,-57.83 0,-49.92 0,-49.92 0,-45.96 3.96,-42 7.92,-42 7.92,-42 193.33,-42 193.33,-42 197.29,-42 201.25,-45.96 201.25,-49.92 201.25,-49.92 201.25,-57.83 201.25,-57.83 201.25,-61.79 197.29,-65.75 193.33,-65.75"/>
<text xml:space="preserve" text-anchor="middle" x="100.62" y="-48.45" font-family="Arial" font-size="14.00" fill="#cfffac">browser/polyfills&#45;B6TNHZQ6.js</text>
</g>
</g>
</svg>
