<?xml version="1.0" encoding="UTF-8" standalone="no"?>
<!DOCTYPE svg PUBLIC "-//W3C//DTD SVG 1.1//EN"
 "http://www.w3.org/Graphics/SVG/1.1/DTD/svg11.dtd">
<!-- Generated by graphviz version 13.0.1 (20250615.1724)
 -->
<!-- Title: G Pages: 1 -->
<svg width="1108pt" height="919pt"
 viewBox="0.00 0.00 1108.00 919.00" xmlns="http://www.w3.org/2000/svg" xmlns:xlink="http://www.w3.org/1999/xlink">
<g id="graph0" class="graph" transform="scale(1 1) rotate(0) translate(21.6 897.75)">
<title>G</title>
<polygon fill="#111111" stroke="none" points="-21.6,21.6 -21.6,-897.75 1086.6,-897.75 1086.6,21.6 -21.6,21.6"/>
<!-- browser/chunk&#45;3J6WXQHJ.js -->
<g id="node1" class="node">
<title>browser/chunk&#45;3J6WXQHJ.js</title>
<path fill="none" stroke="#c6c5fe" d="M328.33,-731.14C328.33,-731.14 195.92,-731.14 195.92,-731.14 192.58,-731.14 189.25,-727.8 189.25,-724.47 189.25,-724.47 189.25,-717.8 189.25,-717.8 189.25,-714.47 192.58,-711.14 195.92,-711.14 195.92,-711.14 328.33,-711.14 328.33,-711.14 331.67,-711.14 335,-714.47 335,-717.8 335,-717.8 335,-724.47 335,-724.47 335,-727.8 331.67,-731.14 328.33,-731.14"/>
<text xml:space="preserve" text-anchor="middle" x="262.12" y="-717.64" font-family="Arial" font-size="10.00" fill="#c6c5fe">browser/chunk&#45;3J6WXQHJ.js</text>
</g>
<!-- browser/chunk&#45;5PH3JWGU.js -->
<g id="node2" class="node">
<title>browser/chunk&#45;5PH3JWGU.js</title>
<path fill="none" stroke="#cfffac" d="M1058.33,-408.14C1058.33,-408.14 923.67,-408.14 923.67,-408.14 920.33,-408.14 917,-404.8 917,-401.47 917,-401.47 917,-394.8 917,-394.8 917,-391.47 920.33,-388.14 923.67,-388.14 923.67,-388.14 1058.33,-388.14 1058.33,-388.14 1061.67,-388.14 1065,-391.47 1065,-394.8 1065,-394.8 1065,-401.47 1065,-401.47 1065,-404.8 1061.67,-408.14 1058.33,-408.14"/>
<text xml:space="preserve" text-anchor="middle" x="991" y="-394.64" font-family="Arial" font-size="10.00" fill="#cfffac">browser/chunk&#45;5PH3JWGU.js</text>
</g>
<!-- browser/chunk&#45;3J6WXQHJ.js&#45;&gt;browser/chunk&#45;5PH3JWGU.js -->
<g id="edge1" class="edge">
<title>browser/chunk&#45;3J6WXQHJ.js&#45;&gt;browser/chunk&#45;5PH3JWGU.js</title>
<path fill="none" stroke="#757575" d="M314.04,-731.62C431.26,-752.53 722.27,-785.44 881,-636.14 946.66,-574.37 976.01,-465.44 985.9,-419.51"/>
<polygon fill="#757575" stroke="#757575" points="989.31,-420.3 987.88,-409.8 982.45,-418.9 989.31,-420.3"/>
</g>
<!-- browser/chunk&#45;E6P6F33U.js -->
<g id="node3" class="node">
<title>browser/chunk&#45;E6P6F33U.js</title>
<path fill="none" stroke="#c6c5fe" d="M870.96,-627.14C870.96,-627.14 743.04,-627.14 743.04,-627.14 739.71,-627.14 736.38,-623.8 736.38,-620.47 736.38,-620.47 736.38,-613.8 736.38,-613.8 736.38,-610.47 739.71,-607.14 743.04,-607.14 743.04,-607.14 870.96,-607.14 870.96,-607.14 874.29,-607.14 877.62,-610.47 877.62,-613.8 877.62,-613.8 877.62,-620.47 877.62,-620.47 877.62,-623.8 874.29,-627.14 870.96,-627.14"/>
<text xml:space="preserve" text-anchor="middle" x="807" y="-613.64" font-family="Arial" font-size="10.00" fill="#c6c5fe">browser/chunk&#45;E6P6F33U.js</text>
</g>
<!-- browser/chunk&#45;3J6WXQHJ.js&#45;&gt;browser/chunk&#45;E6P6F33U.js -->
<g id="edge2" class="edge">
<title>browser/chunk&#45;3J6WXQHJ.js&#45;&gt;browser/chunk&#45;E6P6F33U.js</title>
<path fill="none" stroke="#757575" d="M335.17,-722.9C422.75,-723.04 574.06,-716.77 697,-678.14 728.65,-668.19 761.39,-648.35 782.62,-633.99"/>
<polygon fill="#757575" stroke="#757575" points="784.59,-636.88 790.82,-628.31 780.61,-631.13 784.59,-636.88"/>
</g>
<!-- browser/chunk&#45;N2UEJS4A.js -->
<g id="node4" class="node">
<title>browser/chunk&#45;N2UEJS4A.js</title>
<path fill="none" stroke="#c6c5fe" d="M690.33,-788.14C690.33,-788.14 559.42,-788.14 559.42,-788.14 556.08,-788.14 552.75,-784.8 552.75,-781.47 552.75,-781.47 552.75,-774.8 552.75,-774.8 552.75,-771.47 556.08,-768.14 559.42,-768.14 559.42,-768.14 690.33,-768.14 690.33,-768.14 693.67,-768.14 697,-771.47 697,-774.8 697,-774.8 697,-781.47 697,-781.47 697,-784.8 693.67,-788.14 690.33,-788.14"/>
<text xml:space="preserve" text-anchor="middle" x="624.88" y="-774.64" font-family="Arial" font-size="10.00" fill="#c6c5fe">browser/chunk&#45;N2UEJS4A.js</text>
</g>
<!-- browser/chunk&#45;3J6WXQHJ.js&#45;&gt;browser/chunk&#45;N2UEJS4A.js -->
<g id="edge3" class="edge">
<title>browser/chunk&#45;3J6WXQHJ.js&#45;&gt;browser/chunk&#45;N2UEJS4A.js</title>
<path fill="none" stroke="#757575" d="M291.57,-731.56C313.09,-739.03 343.53,-748.69 371,-754.14 427.18,-765.28 491.45,-771.29 541.13,-774.51"/>
<polygon fill="#757575" stroke="#757575" points="540.76,-777.99 550.96,-775.12 541.19,-771.01 540.76,-777.99"/>
</g>
<!-- browser/chunk&#45;QJEXACB3.js -->
<g id="node5" class="node">
<title>browser/chunk&#45;QJEXACB3.js</title>
<path fill="none" stroke="#c6c5fe" d="M510.08,-864.14C510.08,-864.14 377.67,-864.14 377.67,-864.14 374.33,-864.14 371,-860.8 371,-857.47 371,-857.47 371,-850.8 371,-850.8 371,-847.47 374.33,-844.14 377.67,-844.14 377.67,-844.14 510.08,-844.14 510.08,-844.14 513.42,-844.14 516.75,-847.47 516.75,-850.8 516.75,-850.8 516.75,-857.47 516.75,-857.47 516.75,-860.8 513.42,-864.14 510.08,-864.14"/>
<text xml:space="preserve" text-anchor="middle" x="443.88" y="-850.64" font-family="Arial" font-size="10.00" fill="#c6c5fe">browser/chunk&#45;QJEXACB3.js</text>
</g>
<!-- browser/chunk&#45;3J6WXQHJ.js&#45;&gt;browser/chunk&#45;QJEXACB3.js -->
<g id="edge4" class="edge">
<title>browser/chunk&#45;3J6WXQHJ.js&#45;&gt;browser/chunk&#45;QJEXACB3.js</title>
<path fill="none" stroke="#757575" d="M277.23,-731.57C308.07,-754.39 381.78,-808.93 419.61,-836.92"/>
<polygon fill="#757575" stroke="#757575" points="417.5,-839.71 427.62,-842.85 421.66,-834.09 417.5,-839.71"/>
</g>
<!-- browser/chunk&#45;XZFU6DDM.js -->
<g id="node6" class="node">
<title>browser/chunk&#45;XZFU6DDM.js</title>
<path fill="none" stroke="#c6c5fe" d="M874.33,-351.14C874.33,-351.14 739.67,-351.14 739.67,-351.14 736.33,-351.14 733,-347.8 733,-344.47 733,-344.47 733,-337.8 733,-337.8 733,-334.47 736.33,-331.14 739.67,-331.14 739.67,-331.14 874.33,-331.14 874.33,-331.14 877.67,-331.14 881,-334.47 881,-337.8 881,-337.8 881,-344.47 881,-344.47 881,-347.8 877.67,-351.14 874.33,-351.14"/>
<text xml:space="preserve" text-anchor="middle" x="807" y="-337.64" font-family="Arial" font-size="10.00" fill="#c6c5fe">browser/chunk&#45;XZFU6DDM.js</text>
</g>
<!-- browser/chunk&#45;3J6WXQHJ.js&#45;&gt;browser/chunk&#45;XZFU6DDM.js -->
<g id="edge5" class="edge">
<title>browser/chunk&#45;3J6WXQHJ.js&#45;&gt;browser/chunk&#45;XZFU6DDM.js</title>
<path fill="none" stroke="#757575" d="M273.47,-710.79C309.62,-674.98 434.53,-554.13 552.75,-474.14 626.71,-424.1 721.71,-378.74 771.71,-356.17"/>
<polygon fill="#757575" stroke="#757575" points="772.88,-359.48 780.58,-352.2 770.02,-353.09 772.88,-359.48"/>
</g>
<!-- browser/chunk&#45;E6P6F33U.js&#45;&gt;browser/chunk&#45;5PH3JWGU.js -->
<g id="edge6" class="edge">
<title>browser/chunk&#45;E6P6F33U.js&#45;&gt;browser/chunk&#45;5PH3JWGU.js</title>
<path fill="none" stroke="#757575" d="M819.68,-606.67C834.57,-593.09 860.81,-568.39 881,-545.14 918.48,-501.98 957.11,-446.88 976.77,-417.94"/>
<polygon fill="#757575" stroke="#757575" points="979.58,-420.03 982.27,-409.79 973.77,-416.12 979.58,-420.03"/>
</g>
<!-- browser/chunk&#45;N2UEJS4A.js&#45;&gt;browser/chunk&#45;5PH3JWGU.js -->
<g id="edge19" class="edge">
<title>browser/chunk&#45;N2UEJS4A.js&#45;&gt;browser/chunk&#45;5PH3JWGU.js</title>
<path fill="none" stroke="#757575" d="M677.07,-788.62C733.47,-797.03 823.75,-800.79 881,-754.14 934.78,-710.32 975,-489.71 986.6,-419.58"/>
<polygon fill="#757575" stroke="#757575" points="990.03,-420.24 988.18,-409.8 983.12,-419.11 990.03,-420.24"/>
</g>
<!-- browser/chunk&#45;N2UEJS4A.js&#45;&gt;browser/chunk&#45;E6P6F33U.js -->
<g id="edge20" class="edge">
<title>browser/chunk&#45;N2UEJS4A.js&#45;&gt;browser/chunk&#45;E6P6F33U.js</title>
<path fill="none" stroke="#757575" d="M638.02,-767.68C652.23,-755.41 676.44,-734.43 697,-716.14 728.42,-688.18 764.46,-655.27 786.22,-635.32"/>
<polygon fill="#757575" stroke="#757575" points="788.5,-637.98 793.5,-628.64 783.76,-632.83 788.5,-637.98"/>
</g>
<!-- browser/chunk&#45;QJEXACB3.js&#45;&gt;browser/chunk&#45;5PH3JWGU.js -->
<g id="edge25" class="edge">
<title>browser/chunk&#45;QJEXACB3.js&#45;&gt;browser/chunk&#45;5PH3JWGU.js</title>
<path fill="none" stroke="#757575" d="M496.07,-864.6C588.67,-880.2 783.41,-897.08 881,-788.14 979.96,-677.66 989.84,-484.41 990.25,-419.84"/>
<polygon fill="#757575" stroke="#757575" points="993.75,-419.9 990.23,-409.91 986.75,-419.92 993.75,-419.9"/>
</g>
<!-- browser/chunk&#45;QJEXACB3.js&#45;&gt;browser/chunk&#45;E6P6F33U.js -->
<g id="edge26" class="edge">
<title>browser/chunk&#45;QJEXACB3.js&#45;&gt;browser/chunk&#45;E6P6F33U.js</title>
<path fill="none" stroke="#757575" d="M515.1,-864.62C569.35,-868.93 643.89,-866.19 697,-830.14 764.71,-784.17 792.76,-682.8 802.09,-638.53"/>
<polygon fill="#757575" stroke="#757575" points="805.49,-639.39 803.99,-628.9 798.62,-638.04 805.49,-639.39"/>
</g>
<!-- browser/chunk&#45;QJEXACB3.js&#45;&gt;browser/chunk&#45;N2UEJS4A.js -->
<g id="edge27" class="edge">
<title>browser/chunk&#45;QJEXACB3.js&#45;&gt;browser/chunk&#45;N2UEJS4A.js</title>
<path fill="none" stroke="#757575" d="M483.92,-843.75C494.86,-840.14 506.54,-835.6 516.75,-830.14 534.62,-820.57 534.9,-811.73 552.75,-802.14 559.54,-798.49 566.98,-795.24 574.42,-792.41"/>
<polygon fill="#757575" stroke="#757575" points="575.56,-795.72 583.81,-789.07 573.22,-789.13 575.56,-795.72"/>
</g>
<!-- browser/chunk&#45;QJEXACB3.js&#45;&gt;browser/chunk&#45;XZFU6DDM.js -->
<g id="edge28" class="edge">
<title>browser/chunk&#45;QJEXACB3.js&#45;&gt;browser/chunk&#45;XZFU6DDM.js</title>
<path fill="none" stroke="#757575" d="M491.8,-843.7C564.48,-827.5 696.1,-798.07 697,-797.14 759.16,-732.22 712.7,-685.69 733,-598.14 753.55,-509.53 785.45,-405.86 799.26,-362.21"/>
<polygon fill="#757575" stroke="#757575" points="802.56,-363.36 802.26,-352.77 795.89,-361.24 802.56,-363.36"/>
</g>
<!-- browser/chunk&#45;XZFU6DDM.js&#45;&gt;browser/chunk&#45;5PH3JWGU.js -->
<g id="edge32" class="edge">
<title>browser/chunk&#45;XZFU6DDM.js&#45;&gt;browser/chunk&#45;5PH3JWGU.js</title>
<path fill="none" stroke="#757575" d="M841.38,-351.59C870.67,-360.76 913.47,-374.17 945.63,-384.24"/>
<polygon fill="#757575" stroke="#757575" points="944.49,-387.55 955.08,-387.2 946.58,-380.87 944.49,-387.55"/>
</g>
<!-- browser/chunk&#45;JGMLX6K3.js -->
<g id="node7" class="node">
<title>browser/chunk&#45;JGMLX6K3.js</title>
<path fill="none" stroke="#c6c5fe" d="M327.21,-218.14C327.21,-218.14 197.04,-218.14 197.04,-218.14 193.71,-218.14 190.38,-214.8 190.38,-211.47 190.38,-211.47 190.38,-204.8 190.38,-204.8 190.38,-201.47 193.71,-198.14 197.04,-198.14 197.04,-198.14 327.21,-198.14 327.21,-198.14 330.54,-198.14 333.88,-201.47 333.88,-204.8 333.88,-204.8 333.88,-211.47 333.88,-211.47 333.88,-214.8 330.54,-218.14 327.21,-218.14"/>
<text xml:space="preserve" text-anchor="middle" x="262.12" y="-204.64" font-family="Arial" font-size="10.00" fill="#c6c5fe">browser/chunk&#45;JGMLX6K3.js</text>
</g>
<!-- browser/chunk&#45;JGMLX6K3.js&#45;&gt;browser/chunk&#45;5PH3JWGU.js -->
<g id="edge7" class="edge">
<title>browser/chunk&#45;JGMLX6K3.js&#45;&gt;browser/chunk&#45;5PH3JWGU.js</title>
<path fill="none" stroke="#757575" d="M267.55,-197.95C279.61,-171.67 315.86,-101.78 371,-75.14 473.06,-25.81 790.79,-16.5 881,-85.14 975.94,-157.37 988.59,-317.89 989.97,-376.32"/>
<polygon fill="#757575" stroke="#757575" points="986.47,-376.28 990.1,-386.23 993.47,-376.19 986.47,-376.28"/>
</g>
<!-- browser/chunk&#45;JGMLX6K3.js&#45;&gt;browser/chunk&#45;XZFU6DDM.js -->
<g id="edge10" class="edge">
<title>browser/chunk&#45;JGMLX6K3.js&#45;&gt;browser/chunk&#45;XZFU6DDM.js</title>
<path fill="none" stroke="#757575" d="M278.43,-218.49C298.67,-231.63 335.88,-253.94 371,-265.14 510.24,-309.53 554.15,-277.3 697,-308.14 719.99,-313.1 745.16,-320.57 765.51,-327.16"/>
<polygon fill="#757575" stroke="#757575" points="764.24,-330.43 774.83,-330.23 766.43,-323.78 764.24,-330.43"/>
</g>
<!-- browser/chunk&#45;OIPPGYZY.js -->
<g id="node8" class="node">
<title>browser/chunk&#45;OIPPGYZY.js</title>
<path fill="none" stroke="#c6c5fe" d="M689.58,-180.14C689.58,-180.14 560.17,-180.14 560.17,-180.14 556.83,-180.14 553.5,-176.8 553.5,-173.47 553.5,-173.47 553.5,-166.8 553.5,-166.8 553.5,-163.47 556.83,-160.14 560.17,-160.14 560.17,-160.14 689.58,-160.14 689.58,-160.14 692.92,-160.14 696.25,-163.47 696.25,-166.8 696.25,-166.8 696.25,-173.47 696.25,-173.47 696.25,-176.8 692.92,-180.14 689.58,-180.14"/>
<text xml:space="preserve" text-anchor="middle" x="624.88" y="-166.64" font-family="Arial" font-size="10.00" fill="#c6c5fe">browser/chunk&#45;OIPPGYZY.js</text>
</g>
<!-- browser/chunk&#45;JGMLX6K3.js&#45;&gt;browser/chunk&#45;OIPPGYZY.js -->
<g id="edge8" class="edge">
<title>browser/chunk&#45;JGMLX6K3.js&#45;&gt;browser/chunk&#45;OIPPGYZY.js</title>
<path fill="none" stroke="#757575" d="M334.17,-198.56C346.44,-197.01 359.08,-195.47 371,-194.14 428.02,-187.73 492.4,-181.64 541.93,-177.19"/>
<polygon fill="#757575" stroke="#757575" points="542.07,-180.69 551.72,-176.32 541.45,-173.72 542.07,-180.69"/>
</g>
<!-- browser/chunk&#45;S7RX2M6J.js -->
<g id="node9" class="node">
<title>browser/chunk&#45;S7RX2M6J.js</title>
<path fill="none" stroke="#c6c5fe" d="M508.96,-256.14C508.96,-256.14 378.79,-256.14 378.79,-256.14 375.46,-256.14 372.12,-252.8 372.12,-249.47 372.12,-249.47 372.12,-242.8 372.12,-242.8 372.12,-239.47 375.46,-236.14 378.79,-236.14 378.79,-236.14 508.96,-236.14 508.96,-236.14 512.29,-236.14 515.62,-239.47 515.62,-242.8 515.62,-242.8 515.62,-249.47 515.62,-249.47 515.62,-252.8 512.29,-256.14 508.96,-256.14"/>
<text xml:space="preserve" text-anchor="middle" x="443.88" y="-242.64" font-family="Arial" font-size="10.00" fill="#c6c5fe">browser/chunk&#45;S7RX2M6J.js</text>
</g>
<!-- browser/chunk&#45;JGMLX6K3.js&#45;&gt;browser/chunk&#45;S7RX2M6J.js -->
<g id="edge9" class="edge">
<title>browser/chunk&#45;JGMLX6K3.js&#45;&gt;browser/chunk&#45;S7RX2M6J.js</title>
<path fill="none" stroke="#757575" d="M312.72,-218.62C334.23,-223.17 359.63,-228.54 382.25,-233.32"/>
<polygon fill="#757575" stroke="#757575" points="381.46,-236.73 391.96,-235.37 382.9,-229.88 381.46,-236.73"/>
</g>
<!-- browser/chunk&#45;ZD2PDQIC.js -->
<g id="node10" class="node">
<title>browser/chunk&#45;ZD2PDQIC.js</title>
<path fill="none" stroke="#c6c5fe" d="M509.33,-104.14C509.33,-104.14 378.42,-104.14 378.42,-104.14 375.08,-104.14 371.75,-100.8 371.75,-97.47 371.75,-97.47 371.75,-90.8 371.75,-90.8 371.75,-87.47 375.08,-84.14 378.42,-84.14 378.42,-84.14 509.33,-84.14 509.33,-84.14 512.67,-84.14 516,-87.47 516,-90.8 516,-90.8 516,-97.47 516,-97.47 516,-100.8 512.67,-104.14 509.33,-104.14"/>
<text xml:space="preserve" text-anchor="middle" x="443.88" y="-90.64" font-family="Arial" font-size="10.00" fill="#c6c5fe">browser/chunk&#45;ZD2PDQIC.js</text>
</g>
<!-- browser/chunk&#45;JGMLX6K3.js&#45;&gt;browser/chunk&#45;ZD2PDQIC.js -->
<g id="edge11" class="edge">
<title>browser/chunk&#45;JGMLX6K3.js&#45;&gt;browser/chunk&#45;ZD2PDQIC.js</title>
<path fill="none" stroke="#757575" d="M279.39,-197.82C310.73,-177.94 379.67,-134.22 417.24,-110.39"/>
<polygon fill="#757575" stroke="#757575" points="418.67,-113.63 425.24,-105.32 414.92,-107.72 418.67,-113.63"/>
</g>
<!-- browser/chunk&#45;OIPPGYZY.js&#45;&gt;browser/chunk&#45;5PH3JWGU.js -->
<g id="edge21" class="edge">
<title>browser/chunk&#45;OIPPGYZY.js&#45;&gt;browser/chunk&#45;5PH3JWGU.js</title>
<path fill="none" stroke="#757575" d="M696.47,-159.72C751.28,-155.41 826.83,-158.1 881,-194.14 946.43,-237.65 975.52,-333.84 985.59,-376.75"/>
<polygon fill="#757575" stroke="#757575" points="982.13,-377.31 987.71,-386.31 988.97,-375.79 982.13,-377.31"/>
</g>
<!-- browser/chunk&#45;OIPPGYZY.js&#45;&gt;browser/chunk&#45;XZFU6DDM.js -->
<g id="edge22" class="edge">
<title>browser/chunk&#45;OIPPGYZY.js&#45;&gt;browser/chunk&#45;XZFU6DDM.js</title>
<path fill="none" stroke="#757575" d="M638.18,-180.42C652.54,-192.52 676.89,-213.35 697,-232.14 730.01,-262.96 766.86,-300.51 788.15,-322.52"/>
<polygon fill="#757575" stroke="#757575" points="785.5,-324.82 794.96,-329.59 790.54,-319.96 785.5,-324.82"/>
</g>
<!-- browser/chunk&#45;S7RX2M6J.js&#45;&gt;browser/chunk&#45;5PH3JWGU.js -->
<g id="edge29" class="edge">
<title>browser/chunk&#45;S7RX2M6J.js&#45;&gt;browser/chunk&#45;5PH3JWGU.js</title>
<path fill="none" stroke="#757575" d="M516.04,-236.24C566.99,-231.21 636.91,-228.49 697,-241.14 808.51,-264.59 922.31,-345.27 968.53,-380.94"/>
<polygon fill="#757575" stroke="#757575" points="966.12,-383.49 976.15,-386.9 970.43,-377.98 966.12,-383.49"/>
</g>
<!-- browser/chunk&#45;S7RX2M6J.js&#45;&gt;browser/chunk&#45;XZFU6DDM.js -->
<g id="edge31" class="edge">
<title>browser/chunk&#45;S7RX2M6J.js&#45;&gt;browser/chunk&#45;XZFU6DDM.js</title>
<path fill="none" stroke="#757575" d="M516.09,-243.93C567.68,-244.46 638.37,-249.65 697,-270.14 730.87,-281.97 764.67,-306.45 785.45,-323.33"/>
<polygon fill="#757575" stroke="#757575" points="783.21,-326.02 793.13,-329.73 787.69,-320.64 783.21,-326.02"/>
</g>
<!-- browser/chunk&#45;S7RX2M6J.js&#45;&gt;browser/chunk&#45;OIPPGYZY.js -->
<g id="edge30" class="edge">
<title>browser/chunk&#45;S7RX2M6J.js&#45;&gt;browser/chunk&#45;OIPPGYZY.js</title>
<path fill="none" stroke="#757575" d="M483.92,-235.75C494.86,-232.14 506.54,-227.6 516.75,-222.14 534.62,-212.57 534.9,-203.73 552.75,-194.14 559.54,-190.49 566.98,-187.24 574.42,-184.41"/>
<polygon fill="#757575" stroke="#757575" points="575.56,-187.72 583.81,-181.07 573.22,-181.13 575.56,-187.72"/>
</g>
<!-- browser/chunk&#45;ZD2PDQIC.js&#45;&gt;browser/chunk&#45;5PH3JWGU.js -->
<g id="edge33" class="edge">
<title>browser/chunk&#45;ZD2PDQIC.js&#45;&gt;browser/chunk&#45;5PH3JWGU.js</title>
<path fill="none" stroke="#757575" d="M507.95,-83.68C600.87,-72.06 775,-65.25 881,-154.14 951.98,-213.66 978.54,-328.75 986.8,-376.53"/>
<polygon fill="#757575" stroke="#757575" points="983.3,-376.83 988.35,-386.14 990.21,-375.71 983.3,-376.83"/>
</g>
<!-- browser/chunk&#45;ZD2PDQIC.js&#45;&gt;browser/chunk&#45;XZFU6DDM.js -->
<g id="edge35" class="edge">
<title>browser/chunk&#45;ZD2PDQIC.js&#45;&gt;browser/chunk&#45;XZFU6DDM.js</title>
<path fill="none" stroke="#757575" d="M516.42,-103.77C580.54,-113.56 668.71,-130.24 697,-151.14 755.92,-194.65 787.88,-280.25 800.1,-319.96"/>
<polygon fill="#757575" stroke="#757575" points="796.72,-320.87 802.9,-329.48 803.43,-318.89 796.72,-320.87"/>
</g>
<!-- browser/chunk&#45;ZD2PDQIC.js&#45;&gt;browser/chunk&#45;OIPPGYZY.js -->
<g id="edge34" class="edge">
<title>browser/chunk&#45;ZD2PDQIC.js&#45;&gt;browser/chunk&#45;OIPPGYZY.js</title>
<path fill="none" stroke="#757575" d="M483.92,-104.52C494.86,-108.13 506.54,-112.67 516.75,-118.14 534.62,-127.7 534.9,-136.54 552.75,-146.14 559.54,-149.78 566.98,-153.03 574.42,-155.86"/>
<polygon fill="#757575" stroke="#757575" points="573.22,-159.14 583.81,-159.2 575.56,-152.55 573.22,-159.14"/>
</g>
<!-- browser/chunk&#45;KZJPIUZF.js -->
<g id="node11" class="node">
<title>browser/chunk&#45;KZJPIUZF.js</title>
<path fill="none" stroke="#c6c5fe" d="M325.33,-427.14C325.33,-427.14 198.92,-427.14 198.92,-427.14 195.58,-427.14 192.25,-423.8 192.25,-420.47 192.25,-420.47 192.25,-413.8 192.25,-413.8 192.25,-410.47 195.58,-407.14 198.92,-407.14 198.92,-407.14 325.33,-407.14 325.33,-407.14 328.67,-407.14 332,-410.47 332,-413.8 332,-413.8 332,-420.47 332,-420.47 332,-423.8 328.67,-427.14 325.33,-427.14"/>
<text xml:space="preserve" text-anchor="middle" x="262.12" y="-413.64" font-family="Arial" font-size="10.00" fill="#c6c5fe">browser/chunk&#45;KZJPIUZF.js</text>
</g>
<!-- browser/chunk&#45;KZJPIUZF.js&#45;&gt;browser/chunk&#45;5PH3JWGU.js -->
<g id="edge12" class="edge">
<title>browser/chunk&#45;KZJPIUZF.js&#45;&gt;browser/chunk&#45;5PH3JWGU.js</title>
<path fill="none" stroke="#757575" d="M332.49,-415.32C466.37,-411.82 759.97,-404.15 905.2,-400.35"/>
<polygon fill="#757575" stroke="#757575" points="905.25,-403.85 915.15,-400.09 905.06,-396.85 905.25,-403.85"/>
</g>
<!-- browser/chunk&#45;KZJPIUZF.js&#45;&gt;browser/chunk&#45;E6P6F33U.js -->
<g id="edge13" class="edge">
<title>browser/chunk&#45;KZJPIUZF.js&#45;&gt;browser/chunk&#45;E6P6F33U.js</title>
<path fill="none" stroke="#757575" d="M288.3,-427.49C334.27,-446.57 434.59,-489.11 516.75,-530.14 533.13,-538.31 535.77,-543.3 552.75,-550.14 614.26,-574.91 687.85,-593.2 739.81,-604.35"/>
<polygon fill="#757575" stroke="#757575" points="738.9,-607.73 749.41,-606.38 740.35,-600.88 738.9,-607.73"/>
</g>
<!-- browser/chunk&#45;KZJPIUZF.js&#45;&gt;browser/chunk&#45;N2UEJS4A.js -->
<g id="edge14" class="edge">
<title>browser/chunk&#45;KZJPIUZF.js&#45;&gt;browser/chunk&#45;N2UEJS4A.js</title>
<path fill="none" stroke="#757575" d="M273.53,-427.55C323.73,-477.78 541.03,-695.23 605.67,-759.92"/>
<polygon fill="#757575" stroke="#757575" points="602.81,-762.01 612.36,-766.61 607.76,-757.06 602.81,-762.01"/>
</g>
<!-- browser/chunk&#45;KZJPIUZF.js&#45;&gt;browser/chunk&#45;XZFU6DDM.js -->
<g id="edge17" class="edge">
<title>browser/chunk&#45;KZJPIUZF.js&#45;&gt;browser/chunk&#45;XZFU6DDM.js</title>
<path fill="none" stroke="#757575" d="M291.57,-406.74C313.1,-399.29 343.54,-389.64 371,-384.14 491.3,-360.04 633.13,-349.23 721.33,-344.53"/>
<polygon fill="#757575" stroke="#757575" points="721.3,-348.04 731.1,-344.03 720.93,-341.05 721.3,-348.04"/>
</g>
<!-- browser/chunk&#45;KZJPIUZF.js&#45;&gt;browser/chunk&#45;OIPPGYZY.js -->
<g id="edge15" class="edge">
<title>browser/chunk&#45;KZJPIUZF.js&#45;&gt;browser/chunk&#45;OIPPGYZY.js</title>
<path fill="none" stroke="#757575" d="M265.74,-406.93C274.52,-374.83 306.1,-275.26 371,-227.14 371.5,-226.77 491.43,-199.83 565.93,-183.12"/>
<polygon fill="#757575" stroke="#757575" points="566.55,-186.57 575.55,-180.97 565.02,-179.74 566.55,-186.57"/>
</g>
<!-- browser/chunk&#45;KZJPIUZF.js&#45;&gt;browser/chunk&#45;S7RX2M6J.js -->
<g id="edge16" class="edge">
<title>browser/chunk&#45;KZJPIUZF.js&#45;&gt;browser/chunk&#45;S7RX2M6J.js</title>
<path fill="none" stroke="#757575" d="M274.1,-406.7C303.88,-378.37 386.48,-299.79 423.95,-264.14"/>
<polygon fill="#757575" stroke="#757575" points="426.12,-266.91 430.95,-257.48 421.29,-261.84 426.12,-266.91"/>
</g>
<!-- browser/chunk&#45;ZL3DUJQL.js -->
<g id="node12" class="node">
<title>browser/chunk&#45;ZL3DUJQL.js</title>
<path fill="none" stroke="#c6c5fe" d="M689.58,-503.14C689.58,-503.14 560.17,-503.14 560.17,-503.14 556.83,-503.14 553.5,-499.8 553.5,-496.47 553.5,-496.47 553.5,-489.8 553.5,-489.8 553.5,-486.47 556.83,-483.14 560.17,-483.14 560.17,-483.14 689.58,-483.14 689.58,-483.14 692.92,-483.14 696.25,-486.47 696.25,-489.8 696.25,-489.8 696.25,-496.47 696.25,-496.47 696.25,-499.8 692.92,-503.14 689.58,-503.14"/>
<text xml:space="preserve" text-anchor="middle" x="624.88" y="-489.64" font-family="Arial" font-size="10.00" fill="#c6c5fe">browser/chunk&#45;ZL3DUJQL.js</text>
</g>
<!-- browser/chunk&#45;KZJPIUZF.js&#45;&gt;browser/chunk&#45;ZL3DUJQL.js -->
<g id="edge18" class="edge">
<title>browser/chunk&#45;KZJPIUZF.js&#45;&gt;browser/chunk&#45;ZL3DUJQL.js</title>
<path fill="none" stroke="#757575" d="M332.24,-426.36C383.51,-433.8 454.94,-445.44 516.75,-460.14 538.85,-465.39 563.07,-472.71 582.88,-479.13"/>
<polygon fill="#757575" stroke="#757575" points="581.66,-482.41 592.25,-482.2 583.84,-475.76 581.66,-482.41"/>
</g>
<!-- browser/chunk&#45;ZL3DUJQL.js&#45;&gt;browser/chunk&#45;5PH3JWGU.js -->
<g id="edge36" class="edge">
<title>browser/chunk&#45;ZL3DUJQL.js&#45;&gt;browser/chunk&#45;5PH3JWGU.js</title>
<path fill="none" stroke="#757575" d="M665.88,-482.7C732.48,-465.32 865.98,-430.49 939.15,-411.4"/>
<polygon fill="#757575" stroke="#757575" points="939.67,-414.88 948.46,-408.97 937.9,-408.11 939.67,-414.88"/>
</g>
<!-- browser/chunk&#45;ZL3DUJQL.js&#45;&gt;browser/chunk&#45;E6P6F33U.js -->
<g id="edge37" class="edge">
<title>browser/chunk&#45;ZL3DUJQL.js&#45;&gt;browser/chunk&#45;E6P6F33U.js</title>
<path fill="none" stroke="#757575" d="M677.61,-503.62C684.35,-505.94 690.99,-508.74 697,-512.14 736.42,-534.38 772.14,-574.24 791.3,-597.92"/>
<polygon fill="#757575" stroke="#757575" points="788.35,-599.84 797.3,-605.52 793.84,-595.5 788.35,-599.84"/>
</g>
<!-- browser/chunk&#45;ZL3DUJQL.js&#45;&gt;browser/chunk&#45;XZFU6DDM.js -->
<g id="edge38" class="edge">
<title>browser/chunk&#45;ZL3DUJQL.js&#45;&gt;browser/chunk&#45;XZFU6DDM.js</title>
<path fill="none" stroke="#757575" d="M669.01,-482.73C678.69,-479.29 688.58,-474.84 697,-469.14 740.28,-439.81 776.36,-388.86 794.12,-360.9"/>
<polygon fill="#757575" stroke="#757575" points="796.92,-363.03 799.21,-352.69 790.97,-359.35 796.92,-363.03"/>
</g>
<!-- browser/chunk&#45;PMNT6IFV.js -->
<g id="node13" class="node">
<title>browser/chunk&#45;PMNT6IFV.js</title>
<path fill="none" stroke="#c6c5fe" d="M689.21,-541.14C689.21,-541.14 560.54,-541.14 560.54,-541.14 557.21,-541.14 553.88,-537.8 553.88,-534.47 553.88,-534.47 553.88,-527.8 553.88,-527.8 553.88,-524.47 557.21,-521.14 560.54,-521.14 560.54,-521.14 689.21,-521.14 689.21,-521.14 692.54,-521.14 695.88,-524.47 695.88,-527.8 695.88,-527.8 695.88,-534.47 695.88,-534.47 695.88,-537.8 692.54,-541.14 689.21,-541.14"/>
<text xml:space="preserve" text-anchor="middle" x="624.88" y="-527.64" font-family="Arial" font-size="10.00" fill="#c6c5fe">browser/chunk&#45;PMNT6IFV.js</text>
</g>
<!-- browser/chunk&#45;PMNT6IFV.js&#45;&gt;browser/chunk&#45;5PH3JWGU.js -->
<g id="edge23" class="edge">
<title>browser/chunk&#45;PMNT6IFV.js&#45;&gt;browser/chunk&#45;5PH3JWGU.js</title>
<path fill="none" stroke="#757575" d="M665.39,-520.65C675.69,-517.9 686.76,-514.92 697,-512.14 778.88,-489.85 802.75,-493.97 881,-461.14 911.45,-448.36 943.92,-428.72 965.42,-414.77"/>
<polygon fill="#757575" stroke="#757575" points="967.07,-417.88 973.5,-409.45 963.22,-412.03 967.07,-417.88"/>
</g>
<!-- browser/chunk&#45;PMNT6IFV.js&#45;&gt;browser/chunk&#45;E6P6F33U.js -->
<g id="edge24" class="edge">
<title>browser/chunk&#45;PMNT6IFV.js&#45;&gt;browser/chunk&#45;E6P6F33U.js</title>
<path fill="none" stroke="#757575" d="M661.12,-541.55C672.73,-545.36 685.58,-550.02 697,-555.14 726.54,-568.37 758.53,-587.14 780.16,-600.56"/>
<polygon fill="#757575" stroke="#757575" points="778.28,-603.51 788.61,-605.86 782,-597.58 778.28,-603.51"/>
</g>
<!-- browser/main&#45;QUME6PHI.js -->
<g id="node14" class="node">
<title>browser/main&#45;QUME6PHI.js</title>
<path fill="none" stroke="#c6c5fe" d="M140.21,-484.14C140.21,-484.14 13.04,-484.14 13.04,-484.14 9.71,-484.14 6.38,-480.8 6.38,-477.47 6.38,-477.47 6.38,-470.8 6.38,-470.8 6.38,-467.47 9.71,-464.14 13.04,-464.14 13.04,-464.14 140.21,-464.14 140.21,-464.14 143.54,-464.14 146.88,-467.47 146.88,-470.8 146.88,-470.8 146.88,-477.47 146.88,-477.47 146.88,-480.8 143.54,-484.14 140.21,-484.14"/>
<text xml:space="preserve" text-anchor="middle" x="76.62" y="-470.64" font-family="Arial" font-size="10.00" fill="#c6c5fe">browser/main&#45;QUME6PHI.js</text>
</g>
<!-- browser/main&#45;QUME6PHI.js&#45;&gt;browser/chunk&#45;3J6WXQHJ.js -->
<g id="edge39" class="edge">
<title>browser/main&#45;QUME6PHI.js&#45;&gt;browser/chunk&#45;3J6WXQHJ.js</title>
<path fill="none" stroke="#757575" d="M142.11,-484.48C146.21,-486.84 149.99,-489.7 153.25,-493.14 210.86,-553.94 141.13,-609.57 189.25,-678.14 197.47,-689.85 210,-698.92 222.3,-705.63"/>
<polygon fill="#757575" stroke="#757575" points="220.63,-708.71 231.13,-710.06 223.76,-702.45 220.63,-708.71"/>
</g>
<!-- browser/main&#45;QUME6PHI.js&#45;&gt;browser/chunk&#45;5PH3JWGU.js -->
<g id="edge40" class="edge">
<title>browser/main&#45;QUME6PHI.js&#45;&gt;browser/chunk&#45;5PH3JWGU.js</title>
<path fill="none" stroke="#757575" d="M79.1,-463.65C87.33,-406.37 129.53,-131.85 189.25,-75.14 273.03,4.42 327.34,-18.14 442.88,-18.14 442.88,-18.14 442.88,-18.14 625.88,-18.14 739.61,-18.14 792.38,33.16 881,-38.14 935.72,-82.16 975.43,-306.33 986.73,-376.86"/>
<polygon fill="#757575" stroke="#757575" points="983.21,-377 988.22,-386.34 990.12,-375.91 983.21,-377"/>
</g>
<!-- browser/main&#45;QUME6PHI.js&#45;&gt;browser/chunk&#45;E6P6F33U.js -->
<g id="edge41" class="edge">
<title>browser/main&#45;QUME6PHI.js&#45;&gt;browser/chunk&#45;E6P6F33U.js</title>
<path fill="none" stroke="#757575" d="M128.81,-484.6C137.13,-486.98 145.54,-489.81 153.25,-493.14 170.68,-500.66 171.61,-509.1 189.25,-516.14 371.59,-588.83 604.23,-609.22 725.01,-614.93"/>
<polygon fill="#757575" stroke="#757575" points="724.68,-618.42 734.83,-615.37 725,-611.42 724.68,-618.42"/>
</g>
<!-- browser/main&#45;QUME6PHI.js&#45;&gt;browser/chunk&#45;N2UEJS4A.js -->
<g id="edge44" class="edge">
<title>browser/main&#45;QUME6PHI.js&#45;&gt;browser/chunk&#45;N2UEJS4A.js</title>
<path fill="none" stroke="#757575" d="M142.64,-484.51C146.56,-486.88 150.16,-489.72 153.25,-493.14 227.62,-575.46 113.04,-659.52 189.25,-740.14 235.66,-789.22 428.4,-788.35 541.03,-783.31"/>
<polygon fill="#757575" stroke="#757575" points="541,-786.82 550.82,-782.85 540.67,-779.83 541,-786.82"/>
</g>
<!-- browser/main&#45;QUME6PHI.js&#45;&gt;browser/chunk&#45;QJEXACB3.js -->
<g id="edge47" class="edge">
<title>browser/main&#45;QUME6PHI.js&#45;&gt;browser/chunk&#45;QJEXACB3.js</title>
<path fill="none" stroke="#757575" d="M143.13,-484.59C146.89,-486.95 150.32,-489.76 153.25,-493.14 202.66,-549.98 135.67,-777.2 189.25,-830.14 241.16,-881.43 331.52,-876.57 389.2,-866.64"/>
<polygon fill="#757575" stroke="#757575" points="389.58,-870.12 398.79,-864.87 388.32,-863.24 389.58,-870.12"/>
</g>
<!-- browser/main&#45;QUME6PHI.js&#45;&gt;browser/chunk&#45;XZFU6DDM.js -->
<g id="edge48" class="edge">
<title>browser/main&#45;QUME6PHI.js&#45;&gt;browser/chunk&#45;XZFU6DDM.js</title>
<path fill="none" stroke="#757575" d="M89.43,-463.8C108.86,-447.35 149.42,-415.31 189.25,-398.14 366.63,-321.63 598.76,-324.43 721.46,-332.9"/>
<polygon fill="#757575" stroke="#757575" points="720.89,-336.37 731.12,-333.6 721.4,-329.39 720.89,-336.37"/>
</g>
<!-- browser/main&#45;QUME6PHI.js&#45;&gt;browser/chunk&#45;JGMLX6K3.js -->
<g id="edge42" class="edge">
<title>browser/main&#45;QUME6PHI.js&#45;&gt;browser/chunk&#45;JGMLX6K3.js</title>
<path fill="none" stroke="#757575" d="M84.31,-463.96C101.48,-437.87 148.61,-366.59 189.25,-308.14 208.88,-279.9 232.21,-247.68 246.85,-227.62"/>
<polygon fill="#757575" stroke="#757575" points="249.49,-229.93 252.57,-219.79 243.84,-225.8 249.49,-229.93"/>
</g>
<!-- browser/main&#45;QUME6PHI.js&#45;&gt;browser/chunk&#45;OIPPGYZY.js -->
<g id="edge45" class="edge">
<title>browser/main&#45;QUME6PHI.js&#45;&gt;browser/chunk&#45;OIPPGYZY.js</title>
<path fill="none" stroke="#757575" d="M78,-463.8C80.13,-421.3 94.45,-258.9 189.25,-189.14 305.83,-103.34 491.44,-135.35 577.39,-156.87"/>
<polygon fill="#757575" stroke="#757575" points="576.32,-160.21 586.88,-159.31 578.07,-153.43 576.32,-160.21"/>
</g>
<!-- browser/main&#45;QUME6PHI.js&#45;&gt;browser/chunk&#45;ZD2PDQIC.js -->
<g id="edge49" class="edge">
<title>browser/main&#45;QUME6PHI.js&#45;&gt;browser/chunk&#45;ZD2PDQIC.js</title>
<path fill="none" stroke="#757575" d="M77.16,-463.77C75.59,-415.35 75.99,-209.85 189.25,-118.14 242.31,-75.17 323.6,-75.29 379.78,-82.16"/>
<polygon fill="#757575" stroke="#757575" points="379.14,-85.61 389.52,-83.47 380.07,-78.67 379.14,-85.61"/>
</g>
<!-- browser/main&#45;QUME6PHI.js&#45;&gt;browser/chunk&#45;KZJPIUZF.js -->
<g id="edge43" class="edge">
<title>browser/main&#45;QUME6PHI.js&#45;&gt;browser/chunk&#45;KZJPIUZF.js</title>
<path fill="none" stroke="#757575" d="M111.28,-463.68C140.81,-454.51 183.97,-441.1 216.39,-431.03"/>
<polygon fill="#757575" stroke="#757575" points="217.41,-434.38 225.93,-428.07 215.34,-427.69 217.41,-434.38"/>
</g>
<!-- browser/main&#45;QUME6PHI.js&#45;&gt;browser/chunk&#45;ZL3DUJQL.js -->
<g id="edge50" class="edge">
<title>browser/main&#45;QUME6PHI.js&#45;&gt;browser/chunk&#45;ZL3DUJQL.js</title>
<path fill="none" stroke="#757575" d="M147.36,-476.56C248.24,-480.07 434.51,-486.55 541.85,-490.28"/>
<polygon fill="#757575" stroke="#757575" points="541.63,-493.78 551.74,-490.63 541.87,-486.78 541.63,-493.78"/>
</g>
<!-- browser/main&#45;QUME6PHI.js&#45;&gt;browser/chunk&#45;PMNT6IFV.js -->
<g id="edge46" class="edge">
<title>browser/main&#45;QUME6PHI.js&#45;&gt;browser/chunk&#45;PMNT6IFV.js</title>
<path fill="none" stroke="#757575" d="M130.28,-484.6C148.85,-488.02 169.93,-491.59 189.25,-494.14 311.76,-510.29 454.67,-520.88 542.21,-526.44"/>
<polygon fill="#757575" stroke="#757575" points="541.94,-529.93 552.14,-527.06 542.38,-522.95 541.94,-529.93"/>
</g>
<!-- browser/polyfills&#45;5CFQRCPP.js -->
<g id="node15" class="node">
<title>browser/polyfills&#45;5CFQRCPP.js</title>
<path fill="none" stroke="#cfffac" d="M146.58,-522.14C146.58,-522.14 6.67,-522.14 6.67,-522.14 3.33,-522.14 0,-518.8 0,-515.47 0,-515.47 0,-508.8 0,-508.8 0,-505.47 3.33,-502.14 6.67,-502.14 6.67,-502.14 146.58,-502.14 146.58,-502.14 149.92,-502.14 153.25,-505.47 153.25,-508.8 153.25,-508.8 153.25,-515.47 153.25,-515.47 153.25,-518.8 149.92,-522.14 146.58,-522.14"/>
<text xml:space="preserve" text-anchor="middle" x="76.62" y="-508.64" font-family="Arial" font-size="10.00" fill="#cfffac">browser/polyfills&#45;5CFQRCPP.js</text>
</g>
</g>
</svg>
