<?xml version="1.0" encoding="UTF-8" standalone="no"?>
<!DOCTYPE svg PUBLIC "-//W3C//DTD SVG 1.1//EN"
 "http://www.w3.org/Graphics/SVG/1.1/DTD/svg11.dtd">
<!-- Generated by graphviz version 13.0.1 (20250615.1724)
 -->
<!-- Title: G Pages: 1 -->
<svg width="1106pt" height="775pt"
 viewBox="0.00 0.00 1106.00 775.00" xmlns="http://www.w3.org/2000/svg" xmlns:xlink="http://www.w3.org/1999/xlink">
<g id="graph0" class="graph" transform="scale(1 1) rotate(0) translate(21.6 753.41)">
<title>G</title>
<polygon fill="#111111" stroke="none" points="-21.6,21.6 -21.6,-753.41 1084.35,-753.41 1084.35,21.6 -21.6,21.6"/>
<!-- browser/chunk&#45;24L4YZ6W.js -->
<g id="node1" class="node">
<title>browser/chunk&#45;24L4YZ6W.js</title>
<path fill="none" stroke="#c6c5fe" d="M326.46,-581.76C326.46,-581.76 198.54,-581.76 198.54,-581.76 195.21,-581.76 191.88,-578.43 191.88,-575.1 191.88,-575.1 191.88,-568.43 191.88,-568.43 191.88,-565.1 195.21,-561.76 198.54,-561.76 198.54,-561.76 326.46,-561.76 326.46,-561.76 329.79,-561.76 333.12,-565.1 333.12,-568.43 333.12,-568.43 333.12,-575.1 333.12,-575.1 333.12,-578.43 329.79,-581.76 326.46,-581.76"/>
<text xml:space="preserve" text-anchor="middle" x="262.5" y="-568.26" font-family="Arial" font-size="10.00" fill="#c6c5fe">browser/chunk&#45;24L4YZ6W.js</text>
</g>
<!-- browser/chunk&#45;3PJF2FYA.js -->
<g id="node2" class="node">
<title>browser/chunk&#45;3PJF2FYA.js</title>
<path fill="none" stroke="#c6c5fe" d="M690.71,-657.76C690.71,-657.76 563.54,-657.76 563.54,-657.76 560.21,-657.76 556.88,-654.43 556.88,-651.1 556.88,-651.1 556.88,-644.43 556.88,-644.43 556.88,-641.1 560.21,-637.76 563.54,-637.76 563.54,-637.76 690.71,-637.76 690.71,-637.76 694.04,-637.76 697.38,-641.1 697.38,-644.43 697.38,-644.43 697.38,-651.1 697.38,-651.1 697.38,-654.43 694.04,-657.76 690.71,-657.76"/>
<text xml:space="preserve" text-anchor="middle" x="627.12" y="-644.26" font-family="Arial" font-size="10.00" fill="#c6c5fe">browser/chunk&#45;3PJF2FYA.js</text>
</g>
<!-- browser/chunk&#45;24L4YZ6W.js&#45;&gt;browser/chunk&#45;3PJF2FYA.js -->
<g id="edge1" class="edge">
<title>browser/chunk&#45;24L4YZ6W.js&#45;&gt;browser/chunk&#45;3PJF2FYA.js</title>
<path fill="none" stroke="#757575" d="M280.38,-582.22C301.07,-594.46 337.6,-614.28 371.75,-623.76 428.47,-639.52 494.75,-645.39 545.43,-647.39"/>
<polygon fill="#757575" stroke="#757575" points="545.02,-650.88 555.13,-647.73 545.26,-643.88 545.02,-650.88"/>
</g>
<!-- browser/chunk&#45;BVXXIGM4.js -->
<g id="node3" class="node">
<title>browser/chunk&#45;BVXXIGM4.js</title>
<path fill="none" stroke="#c6c5fe" d="M510.46,-695.76C510.46,-695.76 379.54,-695.76 379.54,-695.76 376.21,-695.76 372.88,-692.43 372.88,-689.1 372.88,-689.1 372.88,-682.43 372.88,-682.43 372.88,-679.1 376.21,-675.76 379.54,-675.76 379.54,-675.76 510.46,-675.76 510.46,-675.76 513.79,-675.76 517.12,-679.1 517.12,-682.43 517.12,-682.43 517.12,-689.1 517.12,-689.1 517.12,-692.43 513.79,-695.76 510.46,-695.76"/>
<text xml:space="preserve" text-anchor="middle" x="445" y="-682.26" font-family="Arial" font-size="10.00" fill="#c6c5fe">browser/chunk&#45;BVXXIGM4.js</text>
</g>
<!-- browser/chunk&#45;24L4YZ6W.js&#45;&gt;browser/chunk&#45;BVXXIGM4.js -->
<g id="edge2" class="edge">
<title>browser/chunk&#45;24L4YZ6W.js&#45;&gt;browser/chunk&#45;BVXXIGM4.js</title>
<path fill="none" stroke="#757575" d="M275.24,-581.95C301.01,-604.24 361.07,-655.83 371.75,-661.76 378.43,-665.47 385.77,-668.73 393.14,-671.55"/>
<polygon fill="#757575" stroke="#757575" points="391.86,-674.81 402.45,-674.87 394.2,-668.22 391.86,-674.81"/>
</g>
<!-- browser/chunk&#45;R6H5ZFXT.js -->
<g id="node4" class="node">
<title>browser/chunk&#45;R6H5ZFXT.js</title>
<path fill="none" stroke="#c6c5fe" d="M691.83,-486.76C691.83,-486.76 562.42,-486.76 562.42,-486.76 559.08,-486.76 555.75,-483.43 555.75,-480.1 555.75,-480.1 555.75,-473.43 555.75,-473.43 555.75,-470.1 559.08,-466.76 562.42,-466.76 562.42,-466.76 691.83,-466.76 691.83,-466.76 695.17,-466.76 698.5,-470.1 698.5,-473.43 698.5,-473.43 698.5,-480.1 698.5,-480.1 698.5,-483.43 695.17,-486.76 691.83,-486.76"/>
<text xml:space="preserve" text-anchor="middle" x="627.12" y="-473.26" font-family="Arial" font-size="10.00" fill="#c6c5fe">browser/chunk&#45;R6H5ZFXT.js</text>
</g>
<!-- browser/chunk&#45;24L4YZ6W.js&#45;&gt;browser/chunk&#45;R6H5ZFXT.js -->
<g id="edge3" class="edge">
<title>browser/chunk&#45;24L4YZ6W.js&#45;&gt;browser/chunk&#45;R6H5ZFXT.js</title>
<path fill="none" stroke="#757575" d="M309.73,-561.37C360.93,-549.65 445.82,-529.64 518.25,-509.76 539.66,-503.89 563.27,-496.74 582.92,-490.61"/>
<polygon fill="#757575" stroke="#757575" points="583.76,-494.01 592.25,-487.68 581.66,-487.34 583.76,-494.01"/>
</g>
<!-- browser/chunk&#45;WJB4RPPF.js -->
<g id="node5" class="node">
<title>browser/chunk&#45;WJB4RPPF.js</title>
<path fill="none" stroke="#cfffac" d="M1056.08,-391.76C1056.08,-391.76 922.92,-391.76 922.92,-391.76 919.58,-391.76 916.25,-388.43 916.25,-385.1 916.25,-385.1 916.25,-378.43 916.25,-378.43 916.25,-375.1 919.58,-371.76 922.92,-371.76 922.92,-371.76 1056.08,-371.76 1056.08,-371.76 1059.42,-371.76 1062.75,-375.1 1062.75,-378.43 1062.75,-378.43 1062.75,-385.1 1062.75,-385.1 1062.75,-388.43 1059.42,-391.76 1056.08,-391.76"/>
<text xml:space="preserve" text-anchor="middle" x="989.5" y="-378.26" font-family="Arial" font-size="10.00" fill="#cfffac">browser/chunk&#45;WJB4RPPF.js</text>
</g>
<!-- browser/chunk&#45;24L4YZ6W.js&#45;&gt;browser/chunk&#45;WJB4RPPF.js -->
<g id="edge4" class="edge">
<title>browser/chunk&#45;24L4YZ6W.js&#45;&gt;browser/chunk&#45;WJB4RPPF.js</title>
<path fill="none" stroke="#757575" d="M333.5,-570.94C451.57,-567.1 695.5,-548.55 880.25,-463.76 915.18,-447.73 949.53,-418.86 969.86,-400.01"/>
<polygon fill="#757575" stroke="#757575" points="972.22,-402.6 977.07,-393.18 967.41,-397.51 972.22,-402.6"/>
</g>
<!-- browser/chunk&#45;Z6V3HUOP.js -->
<g id="node6" class="node">
<title>browser/chunk&#45;Z6V3HUOP.js</title>
<path fill="none" stroke="#c6c5fe" d="M873.58,-277.76C873.58,-277.76 742.67,-277.76 742.67,-277.76 739.33,-277.76 736,-274.43 736,-271.1 736,-271.1 736,-264.43 736,-264.43 736,-261.1 739.33,-257.76 742.67,-257.76 742.67,-257.76 873.58,-257.76 873.58,-257.76 876.92,-257.76 880.25,-261.1 880.25,-264.43 880.25,-264.43 880.25,-271.1 880.25,-271.1 880.25,-274.43 876.92,-277.76 873.58,-277.76"/>
<text xml:space="preserve" text-anchor="middle" x="808.12" y="-264.26" font-family="Arial" font-size="10.00" fill="#c6c5fe">browser/chunk&#45;Z6V3HUOP.js</text>
</g>
<!-- browser/chunk&#45;24L4YZ6W.js&#45;&gt;browser/chunk&#45;Z6V3HUOP.js -->
<g id="edge5" class="edge">
<title>browser/chunk&#45;24L4YZ6W.js&#45;&gt;browser/chunk&#45;Z6V3HUOP.js</title>
<path fill="none" stroke="#757575" d="M267.01,-561.48C277.7,-531.75 312.75,-445.07 371.75,-400.76 493.2,-309.57 555.42,-352.28 700,-305.76 722.82,-298.42 748.11,-289.49 768.39,-282.13"/>
<polygon fill="#757575" stroke="#757575" points="769.47,-285.46 777.66,-278.74 767.07,-278.88 769.47,-285.46"/>
</g>
<!-- browser/chunk&#45;3PJF2FYA.js&#45;&gt;browser/chunk&#45;WJB4RPPF.js -->
<g id="edge12" class="edge">
<title>browser/chunk&#45;3PJF2FYA.js&#45;&gt;browser/chunk&#45;WJB4RPPF.js</title>
<path fill="none" stroke="#757575" d="M690.91,-658.26C745.95,-663.91 825.51,-663.06 880.25,-623.76 955.25,-569.93 979.18,-451.9 986.02,-403.31"/>
<polygon fill="#757575" stroke="#757575" points="989.47,-403.91 987.28,-393.55 982.53,-403.02 989.47,-403.91"/>
</g>
<!-- browser/chunk&#45;BVXXIGM4.js&#45;&gt;browser/chunk&#45;3PJF2FYA.js -->
<g id="edge24" class="edge">
<title>browser/chunk&#45;BVXXIGM4.js&#45;&gt;browser/chunk&#45;3PJF2FYA.js</title>
<path fill="none" stroke="#757575" d="M495.7,-675.28C517.25,-670.73 542.7,-665.36 565.37,-660.58"/>
<polygon fill="#757575" stroke="#757575" points="566.05,-664.02 575.11,-658.53 564.6,-657.17 566.05,-664.02"/>
</g>
<!-- browser/chunk&#45;BVXXIGM4.js&#45;&gt;browser/chunk&#45;R6H5ZFXT.js -->
<g id="edge25" class="edge">
<title>browser/chunk&#45;BVXXIGM4.js&#45;&gt;browser/chunk&#45;R6H5ZFXT.js</title>
<path fill="none" stroke="#757575" d="M454.93,-675.4C483.44,-642.32 572.56,-538.91 609.66,-495.87"/>
<polygon fill="#757575" stroke="#757575" points="612.27,-498.2 616.15,-488.34 606.97,-493.63 612.27,-498.2"/>
</g>
<!-- browser/chunk&#45;BVXXIGM4.js&#45;&gt;browser/chunk&#45;WJB4RPPF.js -->
<g id="edge26" class="edge">
<title>browser/chunk&#45;BVXXIGM4.js&#45;&gt;browser/chunk&#45;WJB4RPPF.js</title>
<path fill="none" stroke="#757575" d="M487,-696.21C570.15,-714.81 760.85,-744.05 880.25,-656.76 964.82,-594.94 983.35,-456.82 987.38,-403.42"/>
<polygon fill="#757575" stroke="#757575" points="990.87,-403.74 988.02,-393.54 983.89,-403.29 990.87,-403.74"/>
</g>
<!-- browser/chunk&#45;R6H5ZFXT.js&#45;&gt;browser/chunk&#45;WJB4RPPF.js -->
<g id="edge27" class="edge">
<title>browser/chunk&#45;R6H5ZFXT.js&#45;&gt;browser/chunk&#45;WJB4RPPF.js</title>
<path fill="none" stroke="#757575" d="M698.93,-470.03C750.17,-463.88 820.59,-452.77 880.25,-433.76 908.8,-424.67 939.41,-409.4 960.77,-397.75"/>
<polygon fill="#757575" stroke="#757575" points="962.39,-400.86 969.43,-392.94 958.99,-394.74 962.39,-400.86"/>
</g>
<!-- browser/chunk&#45;Z6V3HUOP.js&#45;&gt;browser/chunk&#45;WJB4RPPF.js -->
<g id="edge28" class="edge">
<title>browser/chunk&#45;Z6V3HUOP.js&#45;&gt;browser/chunk&#45;WJB4RPPF.js</title>
<path fill="none" stroke="#757575" d="M825.36,-278.08C856.63,-297.96 925.43,-341.68 962.92,-365.51"/>
<polygon fill="#757575" stroke="#757575" points="960.58,-368.17 970.9,-370.58 964.33,-362.26 960.58,-368.17"/>
</g>
<!-- browser/chunk&#45;2RGD4Y6T.js -->
<g id="node7" class="node">
<title>browser/chunk&#45;2RGD4Y6T.js</title>
<path fill="none" stroke="#c6c5fe" d="M327.58,-391.76C327.58,-391.76 197.42,-391.76 197.42,-391.76 194.08,-391.76 190.75,-388.43 190.75,-385.1 190.75,-385.1 190.75,-378.43 190.75,-378.43 190.75,-375.1 194.08,-371.76 197.42,-371.76 197.42,-371.76 327.58,-371.76 327.58,-371.76 330.92,-371.76 334.25,-375.1 334.25,-378.43 334.25,-378.43 334.25,-385.1 334.25,-385.1 334.25,-388.43 330.92,-391.76 327.58,-391.76"/>
<text xml:space="preserve" text-anchor="middle" x="262.5" y="-378.26" font-family="Arial" font-size="10.00" fill="#c6c5fe">browser/chunk&#45;2RGD4Y6T.js</text>
</g>
<!-- browser/chunk&#45;2RGD4Y6T.js&#45;&gt;browser/chunk&#45;3PJF2FYA.js -->
<g id="edge6" class="edge">
<title>browser/chunk&#45;2RGD4Y6T.js&#45;&gt;browser/chunk&#45;3PJF2FYA.js</title>
<path fill="none" stroke="#757575" d="M275.99,-392.06C295.96,-408.43 336.42,-441.26 371.75,-467.76 454.43,-529.79 555.38,-599.49 601.28,-630.86"/>
<polygon fill="#757575" stroke="#757575" points="599.23,-633.7 609.47,-636.45 603.18,-627.92 599.23,-633.7"/>
</g>
<!-- browser/chunk&#45;2RGD4Y6T.js&#45;&gt;browser/chunk&#45;R6H5ZFXT.js -->
<g id="edge9" class="edge">
<title>browser/chunk&#45;2RGD4Y6T.js&#45;&gt;browser/chunk&#45;R6H5ZFXT.js</title>
<path fill="none" stroke="#757575" d="M279.25,-392.25C299.67,-405.32 336.83,-427.33 371.75,-438.76 427.67,-457.08 493.43,-466.61 544.07,-471.54"/>
<polygon fill="#757575" stroke="#757575" points="543.51,-475 553.79,-472.44 544.15,-468.03 543.51,-475"/>
</g>
<!-- browser/chunk&#45;2RGD4Y6T.js&#45;&gt;browser/chunk&#45;WJB4RPPF.js -->
<g id="edge10" class="edge">
<title>browser/chunk&#45;2RGD4Y6T.js&#45;&gt;browser/chunk&#45;WJB4RPPF.js</title>
<path fill="none" stroke="#757575" d="M334.67,-381.76C469.27,-381.76 760.53,-381.76 904.48,-381.76"/>
<polygon fill="#757575" stroke="#757575" points="904.33,-385.26 914.33,-381.76 904.33,-378.26 904.33,-385.26"/>
</g>
<!-- browser/chunk&#45;2RGD4Y6T.js&#45;&gt;browser/chunk&#45;Z6V3HUOP.js -->
<g id="edge11" class="edge">
<title>browser/chunk&#45;2RGD4Y6T.js&#45;&gt;browser/chunk&#45;Z6V3HUOP.js</title>
<path fill="none" stroke="#757575" d="M280.83,-371.37C301.66,-359.38 338.03,-340 371.75,-329.76 388.44,-324.7 603.27,-295.26 724.77,-278.83"/>
<polygon fill="#757575" stroke="#757575" points="724.93,-282.34 734.37,-277.54 723.99,-275.41 724.93,-282.34"/>
</g>
<!-- browser/chunk&#45;6PWBQ63X.js -->
<g id="node8" class="node">
<title>browser/chunk&#45;6PWBQ63X.js</title>
<path fill="none" stroke="#c6c5fe" d="M511.58,-239.76C511.58,-239.76 378.42,-239.76 378.42,-239.76 375.08,-239.76 371.75,-236.43 371.75,-233.1 371.75,-233.1 371.75,-226.43 371.75,-226.43 371.75,-223.1 375.08,-219.76 378.42,-219.76 378.42,-219.76 511.58,-219.76 511.58,-219.76 514.92,-219.76 518.25,-223.1 518.25,-226.43 518.25,-226.43 518.25,-233.1 518.25,-233.1 518.25,-236.43 514.92,-239.76 511.58,-239.76"/>
<text xml:space="preserve" text-anchor="middle" x="445" y="-226.26" font-family="Arial" font-size="10.00" fill="#c6c5fe">browser/chunk&#45;6PWBQ63X.js</text>
</g>
<!-- browser/chunk&#45;2RGD4Y6T.js&#45;&gt;browser/chunk&#45;6PWBQ63X.js -->
<g id="edge7" class="edge">
<title>browser/chunk&#45;2RGD4Y6T.js&#45;&gt;browser/chunk&#45;6PWBQ63X.js</title>
<path fill="none" stroke="#757575" d="M275.91,-371.32C306.45,-345.59 385.55,-278.99 423.32,-247.18"/>
<polygon fill="#757575" stroke="#757575" points="425.43,-249.98 430.82,-240.86 420.92,-244.62 425.43,-249.98"/>
</g>
<!-- browser/chunk&#45;AKTXKPQL.js -->
<g id="node9" class="node">
<title>browser/chunk&#45;AKTXKPQL.js</title>
<path fill="none" stroke="#c6c5fe" d="M693.33,-163.76C693.33,-163.76 560.92,-163.76 560.92,-163.76 557.58,-163.76 554.25,-160.43 554.25,-157.1 554.25,-157.1 554.25,-150.43 554.25,-150.43 554.25,-147.1 557.58,-143.76 560.92,-143.76 560.92,-143.76 693.33,-143.76 693.33,-143.76 696.67,-143.76 700,-147.1 700,-150.43 700,-150.43 700,-157.1 700,-157.1 700,-160.43 696.67,-163.76 693.33,-163.76"/>
<text xml:space="preserve" text-anchor="middle" x="627.12" y="-150.26" font-family="Arial" font-size="10.00" fill="#c6c5fe">browser/chunk&#45;AKTXKPQL.js</text>
</g>
<!-- browser/chunk&#45;2RGD4Y6T.js&#45;&gt;browser/chunk&#45;AKTXKPQL.js -->
<g id="edge8" class="edge">
<title>browser/chunk&#45;2RGD4Y6T.js&#45;&gt;browser/chunk&#45;AKTXKPQL.js</title>
<path fill="none" stroke="#757575" d="M266.89,-371.3C277.23,-341.1 311.42,-253.24 371.75,-210.76 399.07,-191.53 479.48,-175.53 542.66,-165.42"/>
<polygon fill="#757575" stroke="#757575" points="543.01,-168.91 552.34,-163.9 541.92,-161.99 543.01,-168.91"/>
</g>
<!-- browser/chunk&#45;6PWBQ63X.js&#45;&gt;browser/chunk&#45;WJB4RPPF.js -->
<g id="edge14" class="edge">
<title>browser/chunk&#45;6PWBQ63X.js&#45;&gt;browser/chunk&#45;WJB4RPPF.js</title>
<path fill="none" stroke="#757575" d="M494.04,-219.33C577.9,-203.71 754.08,-182.67 880.25,-248.76 928.4,-273.99 962.93,-330.88 978.78,-361.44"/>
<polygon fill="#757575" stroke="#757575" points="975.48,-362.67 983.08,-370.05 981.74,-359.54 975.48,-362.67"/>
</g>
<!-- browser/chunk&#45;6PWBQ63X.js&#45;&gt;browser/chunk&#45;Z6V3HUOP.js -->
<g id="edge15" class="edge">
<title>browser/chunk&#45;6PWBQ63X.js&#45;&gt;browser/chunk&#45;Z6V3HUOP.js</title>
<path fill="none" stroke="#757575" d="M518.61,-235.93C569.44,-240.42 638.93,-246.89 700,-253.76 707.94,-254.66 716.21,-255.64 724.48,-256.66"/>
<polygon fill="#757575" stroke="#757575" points="723.86,-260.11 734.21,-257.88 724.73,-253.17 723.86,-260.11"/>
</g>
<!-- browser/chunk&#45;6PWBQ63X.js&#45;&gt;browser/chunk&#45;AKTXKPQL.js -->
<g id="edge13" class="edge">
<title>browser/chunk&#45;6PWBQ63X.js&#45;&gt;browser/chunk&#45;AKTXKPQL.js</title>
<path fill="none" stroke="#757575" d="M485.63,-219.28C496.52,-215.69 508.11,-211.19 518.25,-205.76 536.13,-196.21 536.38,-187.33 554.25,-177.76 561.19,-174.05 568.81,-170.76 576.41,-167.9"/>
<polygon fill="#757575" stroke="#757575" points="577.38,-171.27 585.65,-164.65 575.05,-164.67 577.38,-171.27"/>
</g>
<!-- browser/chunk&#45;AKTXKPQL.js&#45;&gt;browser/chunk&#45;WJB4RPPF.js -->
<g id="edge22" class="edge">
<title>browser/chunk&#45;AKTXKPQL.js&#45;&gt;browser/chunk&#45;WJB4RPPF.js</title>
<path fill="none" stroke="#757575" d="M700.44,-143.33C754.41,-139.4 827.6,-142.59 880.25,-177.76 945.49,-221.35 974.24,-317.5 984.17,-360.39"/>
<polygon fill="#757575" stroke="#757575" points="980.7,-360.92 986.25,-369.95 987.54,-359.43 980.7,-360.92"/>
</g>
<!-- browser/chunk&#45;AKTXKPQL.js&#45;&gt;browser/chunk&#45;Z6V3HUOP.js -->
<g id="edge23" class="edge">
<title>browser/chunk&#45;AKTXKPQL.js&#45;&gt;browser/chunk&#45;Z6V3HUOP.js</title>
<path fill="none" stroke="#757575" d="M644.33,-164.08C675.4,-183.87 743.6,-227.31 781.12,-251.2"/>
<polygon fill="#757575" stroke="#757575" points="779.24,-254.16 789.56,-256.58 783,-248.25 779.24,-254.16"/>
</g>
<!-- browser/chunk&#45;A2QKSCN6.js -->
<g id="node10" class="node">
<title>browser/chunk&#45;A2QKSCN6.js</title>
<path fill="none" stroke="#c6c5fe" d="M329.08,-125.76C329.08,-125.76 195.92,-125.76 195.92,-125.76 192.58,-125.76 189.25,-122.43 189.25,-119.1 189.25,-119.1 189.25,-112.43 189.25,-112.43 189.25,-109.1 192.58,-105.76 195.92,-105.76 195.92,-105.76 329.08,-105.76 329.08,-105.76 332.42,-105.76 335.75,-109.1 335.75,-112.43 335.75,-112.43 335.75,-119.1 335.75,-119.1 335.75,-122.43 332.42,-125.76 329.08,-125.76"/>
<text xml:space="preserve" text-anchor="middle" x="262.5" y="-112.26" font-family="Arial" font-size="10.00" fill="#c6c5fe">browser/chunk&#45;A2QKSCN6.js</text>
</g>
<!-- browser/chunk&#45;A2QKSCN6.js&#45;&gt;browser/chunk&#45;WJB4RPPF.js -->
<g id="edge18" class="edge">
<title>browser/chunk&#45;A2QKSCN6.js&#45;&gt;browser/chunk&#45;WJB4RPPF.js</title>
<path fill="none" stroke="#757575" d="M293.81,-105.29C392.18,-73.39 706.27,11.58 880.25,-137.76 950.31,-197.9 976.89,-312.22 985.23,-359.96"/>
<polygon fill="#757575" stroke="#757575" points="981.77,-360.52 986.84,-369.83 988.68,-359.4 981.77,-360.52"/>
</g>
<!-- browser/chunk&#45;A2QKSCN6.js&#45;&gt;browser/chunk&#45;Z6V3HUOP.js -->
<g id="edge19" class="edge">
<title>browser/chunk&#45;A2QKSCN6.js&#45;&gt;browser/chunk&#45;Z6V3HUOP.js</title>
<path fill="none" stroke="#757575" d="M311.15,-105.32C395.22,-89.49 572.99,-67.86 700,-134.76 747.89,-159.99 781.96,-216.89 797.56,-247.45"/>
<polygon fill="#757575" stroke="#757575" points="794.24,-248.62 801.8,-256.05 800.52,-245.53 794.24,-248.62"/>
</g>
<!-- browser/chunk&#45;A2QKSCN6.js&#45;&gt;browser/chunk&#45;6PWBQ63X.js -->
<g id="edge16" class="edge">
<title>browser/chunk&#45;A2QKSCN6.js&#45;&gt;browser/chunk&#45;6PWBQ63X.js</title>
<path fill="none" stroke="#757575" d="M279.84,-126.08C311.3,-145.96 380.54,-189.68 418.26,-213.51"/>
<polygon fill="#757575" stroke="#757575" points="415.97,-216.2 426.29,-218.58 419.7,-210.28 415.97,-216.2"/>
</g>
<!-- browser/chunk&#45;A2QKSCN6.js&#45;&gt;browser/chunk&#45;AKTXKPQL.js -->
<g id="edge17" class="edge">
<title>browser/chunk&#45;A2QKSCN6.js&#45;&gt;browser/chunk&#45;AKTXKPQL.js</title>
<path fill="none" stroke="#757575" d="M336.04,-121.92C387.05,-126.41 456.89,-132.89 518.25,-139.76 526.19,-140.65 534.44,-141.63 542.7,-142.64"/>
<polygon fill="#757575" stroke="#757575" points="542.07,-146.09 552.42,-143.85 542.93,-139.14 542.07,-146.09"/>
</g>
<!-- browser/chunk&#45;A4RT4ARM.js -->
<g id="node11" class="node">
<title>browser/chunk&#45;A4RT4ARM.js</title>
<path fill="none" stroke="#c6c5fe" d="M511.21,-429.76C511.21,-429.76 378.79,-429.76 378.79,-429.76 375.46,-429.76 372.12,-426.43 372.12,-423.1 372.12,-423.1 372.12,-416.43 372.12,-416.43 372.12,-413.1 375.46,-409.76 378.79,-409.76 378.79,-409.76 511.21,-409.76 511.21,-409.76 514.54,-409.76 517.88,-413.1 517.88,-416.43 517.88,-416.43 517.88,-423.1 517.88,-423.1 517.88,-426.43 514.54,-429.76 511.21,-429.76"/>
<text xml:space="preserve" text-anchor="middle" x="445" y="-416.26" font-family="Arial" font-size="10.00" fill="#c6c5fe">browser/chunk&#45;A4RT4ARM.js</text>
</g>
<!-- browser/chunk&#45;A4RT4ARM.js&#45;&gt;browser/chunk&#45;R6H5ZFXT.js -->
<g id="edge20" class="edge">
<title>browser/chunk&#45;A4RT4ARM.js&#45;&gt;browser/chunk&#45;R6H5ZFXT.js</title>
<path fill="none" stroke="#757575" d="M479.04,-430.22C508.02,-439.39 550.38,-452.8 582.21,-462.87"/>
<polygon fill="#757575" stroke="#757575" points="580.96,-466.14 591.55,-465.82 583.07,-459.47 580.96,-466.14"/>
</g>
<!-- browser/chunk&#45;A4RT4ARM.js&#45;&gt;browser/chunk&#45;WJB4RPPF.js -->
<g id="edge21" class="edge">
<title>browser/chunk&#45;A4RT4ARM.js&#45;&gt;browser/chunk&#45;WJB4RPPF.js</title>
<path fill="none" stroke="#757575" d="M518.35,-417.39C604.64,-414.18 753.18,-407.48 880.25,-395.76 888.16,-395.04 896.39,-394.17 904.61,-393.23"/>
<polygon fill="#757575" stroke="#757575" points="904.77,-396.74 914.29,-392.09 903.95,-389.78 904.77,-396.74"/>
</g>
<!-- browser/main&#45;6O65CJQO.js -->
<g id="node12" class="node">
<title>browser/main&#45;6O65CJQO.js</title>
<path fill="none" stroke="#c6c5fe" d="M139.46,-410.76C139.46,-410.76 13.79,-410.76 13.79,-410.76 10.46,-410.76 7.12,-407.43 7.12,-404.1 7.12,-404.1 7.12,-397.43 7.12,-397.43 7.12,-394.1 10.46,-390.76 13.79,-390.76 13.79,-390.76 139.46,-390.76 139.46,-390.76 142.79,-390.76 146.12,-394.1 146.12,-397.43 146.12,-397.43 146.12,-404.1 146.12,-404.1 146.12,-407.43 142.79,-410.76 139.46,-410.76"/>
<text xml:space="preserve" text-anchor="middle" x="76.62" y="-397.26" font-family="Arial" font-size="10.00" fill="#c6c5fe">browser/main&#45;6O65CJQO.js</text>
</g>
<!-- browser/main&#45;6O65CJQO.js&#45;&gt;browser/chunk&#45;24L4YZ6W.js -->
<g id="edge29" class="edge">
<title>browser/main&#45;6O65CJQO.js&#45;&gt;browser/chunk&#45;24L4YZ6W.js</title>
<path fill="none" stroke="#757575" d="M139.95,-411.09C144.76,-413.43 149.27,-416.29 153.25,-419.76 185.69,-448.11 164.18,-474.73 189.25,-509.76 202.07,-527.69 221.14,-543.76 236.46,-555.05"/>
<polygon fill="#757575" stroke="#757575" points="234.02,-557.6 244.2,-560.55 238.08,-551.9 234.02,-557.6"/>
</g>
<!-- browser/main&#45;6O65CJQO.js&#45;&gt;browser/chunk&#45;3PJF2FYA.js -->
<g id="edge31" class="edge">
<title>browser/main&#45;6O65CJQO.js&#45;&gt;browser/chunk&#45;3PJF2FYA.js</title>
<path fill="none" stroke="#757575" d="M142.59,-411.19C146.52,-413.55 150.14,-416.37 153.25,-419.76 221.39,-494.09 124,-566.89 189.25,-643.76 285.48,-757.14 373.91,-740.55 518.25,-704.76 549.52,-697.01 581.72,-678.35 602.7,-664.48"/>
<polygon fill="#757575" stroke="#757575" points="604.49,-667.49 610.79,-658.97 600.55,-661.7 604.49,-667.49"/>
</g>
<!-- browser/main&#45;6O65CJQO.js&#45;&gt;browser/chunk&#45;BVXXIGM4.js -->
<g id="edge35" class="edge">
<title>browser/main&#45;6O65CJQO.js&#45;&gt;browser/chunk&#45;BVXXIGM4.js</title>
<path fill="none" stroke="#757575" d="M142.05,-411.16C146.16,-413.51 149.97,-416.35 153.25,-419.76 207.1,-475.73 138.58,-531.9 189.25,-590.76 232.48,-640.99 304.91,-664.7 361.51,-675.87"/>
<polygon fill="#757575" stroke="#757575" points="360.65,-679.27 371.12,-677.66 361.93,-672.39 360.65,-679.27"/>
</g>
<!-- browser/main&#45;6O65CJQO.js&#45;&gt;browser/chunk&#45;R6H5ZFXT.js -->
<g id="edge36" class="edge">
<title>browser/main&#45;6O65CJQO.js&#45;&gt;browser/chunk&#45;R6H5ZFXT.js</title>
<path fill="none" stroke="#757575" d="M119.07,-411.23C187.91,-428.43 323.06,-461.42 371.75,-467.76 428.97,-475.23 494,-477.42 543.98,-477.77"/>
<polygon fill="#757575" stroke="#757575" points="543.85,-481.27 553.86,-477.82 543.88,-474.27 543.85,-481.27"/>
</g>
<!-- browser/main&#45;6O65CJQO.js&#45;&gt;browser/chunk&#45;WJB4RPPF.js -->
<g id="edge37" class="edge">
<title>browser/main&#45;6O65CJQO.js&#45;&gt;browser/chunk&#45;WJB4RPPF.js</title>
<path fill="none" stroke="#757575" d="M78.37,-390.5C82.01,-348.14 101.41,-185.05 189.25,-96.76 274.48,-11.1 323.16,-1.76 444,-1.76 444,-1.76 444,-1.76 628.12,-1.76 743.41,-1.76 795.15,15.02 880.25,-62.76 969.55,-144.38 985.21,-302.38 987.94,-360.03"/>
<polygon fill="#757575" stroke="#757575" points="984.43,-359.94 988.3,-369.8 991.43,-359.68 984.43,-359.94"/>
</g>
<!-- browser/main&#45;6O65CJQO.js&#45;&gt;browser/chunk&#45;Z6V3HUOP.js -->
<g id="edge38" class="edge">
<title>browser/main&#45;6O65CJQO.js&#45;&gt;browser/chunk&#45;Z6V3HUOP.js</title>
<path fill="none" stroke="#757575" d="M107.9,-390.32C130.33,-382.61 161.66,-371.92 189.25,-362.76 270.16,-335.92 288.49,-322.06 371.75,-303.76 451.54,-286.23 472.87,-288.92 554.25,-281.76 610.94,-276.78 674.94,-273.26 724.37,-271"/>
<polygon fill="#757575" stroke="#757575" points="724.3,-274.5 734.13,-270.56 723.98,-267.51 724.3,-274.5"/>
</g>
<!-- browser/main&#45;6O65CJQO.js&#45;&gt;browser/chunk&#45;2RGD4Y6T.js -->
<g id="edge30" class="edge">
<title>browser/main&#45;6O65CJQO.js&#45;&gt;browser/chunk&#45;2RGD4Y6T.js</title>
<path fill="none" stroke="#757575" d="M146.62,-393.64C157.2,-392.54 168.23,-391.4 179.07,-390.28"/>
<polygon fill="#757575" stroke="#757575" points="179.19,-393.79 188.78,-389.28 178.47,-386.83 179.19,-393.79"/>
</g>
<!-- browser/main&#45;6O65CJQO.js&#45;&gt;browser/chunk&#45;AKTXKPQL.js -->
<g id="edge34" class="edge">
<title>browser/main&#45;6O65CJQO.js&#45;&gt;browser/chunk&#45;AKTXKPQL.js</title>
<path fill="none" stroke="#757575" d="M83.07,-390.51C97.33,-364.5 138.21,-295.11 189.25,-253.76 258.92,-197.32 284.82,-189.75 371.75,-167.76 427.54,-153.66 492.33,-150.27 542.56,-150.36"/>
<polygon fill="#757575" stroke="#757575" points="542.49,-153.86 552.51,-150.43 542.53,-146.86 542.49,-153.86"/>
</g>
<!-- browser/main&#45;6O65CJQO.js&#45;&gt;browser/chunk&#45;A2QKSCN6.js -->
<g id="edge32" class="edge">
<title>browser/main&#45;6O65CJQO.js&#45;&gt;browser/chunk&#45;A2QKSCN6.js</title>
<path fill="none" stroke="#757575" d="M79.01,-390.3C84.71,-351.26 110,-212.67 189.25,-139.76 192.81,-136.49 196.82,-133.67 201.09,-131.22"/>
<polygon fill="#757575" stroke="#757575" points="202.6,-134.38 210.06,-126.86 199.53,-128.09 202.6,-134.38"/>
</g>
<!-- browser/main&#45;6O65CJQO.js&#45;&gt;browser/chunk&#45;A4RT4ARM.js -->
<g id="edge33" class="edge">
<title>browser/main&#45;6O65CJQO.js&#45;&gt;browser/chunk&#45;A4RT4ARM.js</title>
<path fill="none" stroke="#757575" d="M146.54,-404.34C207.16,-407.48 295.57,-412.07 360.25,-415.42"/>
<polygon fill="#757575" stroke="#757575" points="359.96,-418.91 370.13,-415.93 360.32,-411.92 359.96,-418.91"/>
</g>
<!-- browser/polyfills&#45;5CFQRCPP.js -->
<g id="node13" class="node">
<title>browser/polyfills&#45;5CFQRCPP.js</title>
<path fill="none" stroke="#cfffac" d="M146.58,-448.76C146.58,-448.76 6.67,-448.76 6.67,-448.76 3.33,-448.76 0,-445.43 0,-442.1 0,-442.1 0,-435.43 0,-435.43 0,-432.1 3.33,-428.76 6.67,-428.76 6.67,-428.76 146.58,-428.76 146.58,-428.76 149.92,-428.76 153.25,-432.1 153.25,-435.43 153.25,-435.43 153.25,-442.1 153.25,-442.1 153.25,-445.43 149.92,-448.76 146.58,-448.76"/>
<text xml:space="preserve" text-anchor="middle" x="76.62" y="-435.26" font-family="Arial" font-size="10.00" fill="#cfffac">browser/polyfills&#45;5CFQRCPP.js</text>
</g>
</g>
</svg>
