<?xml version="1.0" encoding="UTF-8" standalone="no"?>
<!DOCTYPE svg PUBLIC "-//W3C//DTD SVG 1.1//EN"
 "http://www.w3.org/Graphics/SVG/1.1/DTD/svg11.dtd">
<!-- Generated by graphviz version 13.0.1 (20250615.1724)
 -->
<!-- Title: G Pages: 1 -->
<svg width="929pt" height="374pt"
 viewBox="0.00 0.00 929.00 374.00" xmlns="http://www.w3.org/2000/svg" xmlns:xlink="http://www.w3.org/1999/xlink">
<g id="graph0" class="graph" transform="scale(1 1) rotate(0) translate(21.6 351.93)">
<title>G</title>
<polygon fill="#111111" stroke="none" points="-21.6,21.6 -21.6,-351.93 907.85,-351.93 907.85,21.6 -21.6,21.6"/>
<!-- browser/chunk&#45;2WOC2OCM.js -->
<g id="node1" class="node">
<title>browser/chunk&#45;2WOC2OCM.js</title>
<path fill="none" stroke="#c6c5fe" d="M334.33,-254.33C334.33,-254.33 195.92,-254.33 195.92,-254.33 192.58,-254.33 189.25,-250.99 189.25,-247.66 189.25,-247.66 189.25,-240.99 189.25,-240.99 189.25,-237.66 192.58,-234.33 195.92,-234.33 195.92,-234.33 334.33,-234.33 334.33,-234.33 337.67,-234.33 341,-237.66 341,-240.99 341,-240.99 341,-247.66 341,-247.66 341,-250.99 337.67,-254.33 334.33,-254.33"/>
<text xml:space="preserve" text-anchor="middle" x="265.12" y="-240.83" font-family="Arial" font-size="10.00" fill="#c6c5fe">browser/chunk&#45;2WOC2OCM.js</text>
</g>
<!-- browser/chunk&#45;F75MTYKX.js -->
<g id="node2" class="node">
<title>browser/chunk&#45;F75MTYKX.js</title>
<path fill="none" stroke="#cfffac" d="M879.58,-159.33C879.58,-159.33 748.67,-159.33 748.67,-159.33 745.33,-159.33 742,-155.99 742,-152.66 742,-152.66 742,-145.99 742,-145.99 742,-142.66 745.33,-139.33 748.67,-139.33 748.67,-139.33 879.58,-139.33 879.58,-139.33 882.92,-139.33 886.25,-142.66 886.25,-145.99 886.25,-145.99 886.25,-152.66 886.25,-152.66 886.25,-155.99 882.92,-159.33 879.58,-159.33"/>
<text xml:space="preserve" text-anchor="middle" x="814.12" y="-145.83" font-family="Arial" font-size="10.00" fill="#cfffac">browser/chunk&#45;F75MTYKX.js</text>
</g>
<!-- browser/chunk&#45;2WOC2OCM.js&#45;&gt;browser/chunk&#45;F75MTYKX.js -->
<g id="edge1" class="edge">
<title>browser/chunk&#45;2WOC2OCM.js&#45;&gt;browser/chunk&#45;F75MTYKX.js</title>
<path fill="none" stroke="#757575" d="M341.19,-254.58C430.97,-263.83 584.38,-269.98 706,-225.33 740.71,-212.58 774.43,-185.49 794.49,-167.34"/>
<polygon fill="#757575" stroke="#757575" points="796.64,-170.11 801.59,-160.74 791.88,-164.98 796.64,-170.11"/>
</g>
<!-- browser/chunk&#45;LCDWIOBH.js -->
<g id="node3" class="node">
<title>browser/chunk&#45;LCDWIOBH.js</title>
<path fill="none" stroke="#c6c5fe" d="M699.33,-216.33C699.33,-216.33 564.67,-216.33 564.67,-216.33 561.33,-216.33 558,-212.99 558,-209.66 558,-209.66 558,-202.99 558,-202.99 558,-199.66 561.33,-196.33 564.67,-196.33 564.67,-196.33 699.33,-196.33 699.33,-196.33 702.67,-196.33 706,-199.66 706,-202.99 706,-202.99 706,-209.66 706,-209.66 706,-212.99 702.67,-216.33 699.33,-216.33"/>
<text xml:space="preserve" text-anchor="middle" x="632" y="-202.83" font-family="Arial" font-size="10.00" fill="#c6c5fe">browser/chunk&#45;LCDWIOBH.js</text>
</g>
<!-- browser/chunk&#45;2WOC2OCM.js&#45;&gt;browser/chunk&#45;LCDWIOBH.js -->
<g id="edge2" class="edge">
<title>browser/chunk&#45;2WOC2OCM.js&#45;&gt;browser/chunk&#45;LCDWIOBH.js</title>
<path fill="none" stroke="#757575" d="M341.49,-237.94C392.49,-233.45 461.36,-227.06 522,-220.33 529.95,-219.44 538.22,-218.47 546.5,-217.47"/>
<polygon fill="#757575" stroke="#757575" points="546.75,-220.96 556.25,-216.27 545.9,-214.02 546.75,-220.96"/>
</g>
<!-- browser/chunk&#45;VPHHC3FF.js -->
<g id="node4" class="node">
<title>browser/chunk&#45;VPHHC3FF.js</title>
<path fill="none" stroke="#c6c5fe" d="M698.21,-102.33C698.21,-102.33 565.79,-102.33 565.79,-102.33 562.46,-102.33 559.12,-98.99 559.12,-95.66 559.12,-95.66 559.12,-88.99 559.12,-88.99 559.12,-85.66 562.46,-82.33 565.79,-82.33 565.79,-82.33 698.21,-82.33 698.21,-82.33 701.54,-82.33 704.88,-85.66 704.88,-88.99 704.88,-88.99 704.88,-95.66 704.88,-95.66 704.88,-98.99 701.54,-102.33 698.21,-102.33"/>
<text xml:space="preserve" text-anchor="middle" x="632" y="-88.83" font-family="Arial" font-size="10.00" fill="#c6c5fe">browser/chunk&#45;VPHHC3FF.js</text>
</g>
<!-- browser/chunk&#45;2WOC2OCM.js&#45;&gt;browser/chunk&#45;VPHHC3FF.js -->
<g id="edge3" class="edge">
<title>browser/chunk&#45;2WOC2OCM.js&#45;&gt;browser/chunk&#45;VPHHC3FF.js</title>
<path fill="none" stroke="#757575" d="M275.02,-233.88C292.45,-214.11 333.26,-171.25 377,-149.33 408.16,-133.71 493.97,-116.22 557.27,-104.78"/>
<polygon fill="#757575" stroke="#757575" points="557.7,-108.26 566.93,-103.06 556.47,-101.37 557.7,-108.26"/>
</g>
<!-- browser/chunk&#45;X43VL4ET.js -->
<g id="node5" class="node">
<title>browser/chunk&#45;X43VL4ET.js</title>
<path fill="none" stroke="#c6c5fe" d="M512.71,-330.33C512.71,-330.33 386.29,-330.33 386.29,-330.33 382.96,-330.33 379.62,-326.99 379.62,-323.66 379.62,-323.66 379.62,-316.99 379.62,-316.99 379.62,-313.66 382.96,-310.33 386.29,-310.33 386.29,-310.33 512.71,-310.33 512.71,-310.33 516.04,-310.33 519.38,-313.66 519.38,-316.99 519.38,-316.99 519.38,-323.66 519.38,-323.66 519.38,-326.99 516.04,-330.33 512.71,-330.33"/>
<text xml:space="preserve" text-anchor="middle" x="449.5" y="-316.83" font-family="Arial" font-size="10.00" fill="#c6c5fe">browser/chunk&#45;X43VL4ET.js</text>
</g>
<!-- browser/chunk&#45;2WOC2OCM.js&#45;&gt;browser/chunk&#45;X43VL4ET.js -->
<g id="edge4" class="edge">
<title>browser/chunk&#45;2WOC2OCM.js&#45;&gt;browser/chunk&#45;X43VL4ET.js</title>
<path fill="none" stroke="#757575" d="M286.66,-254.82C308.68,-265.88 344.83,-283.43 377,-296.33 385.64,-299.79 395,-303.18 404,-306.27"/>
<polygon fill="#757575" stroke="#757575" points="402.72,-309.53 413.31,-309.4 404.95,-302.89 402.72,-309.53"/>
</g>
<!-- browser/chunk&#45;LCDWIOBH.js&#45;&gt;browser/chunk&#45;F75MTYKX.js -->
<g id="edge10" class="edge">
<title>browser/chunk&#45;LCDWIOBH.js&#45;&gt;browser/chunk&#45;F75MTYKX.js</title>
<path fill="none" stroke="#757575" d="M666.04,-195.87C695.02,-186.7 737.38,-173.29 769.21,-163.22"/>
<polygon fill="#757575" stroke="#757575" points="770.07,-166.62 778.55,-160.27 767.96,-159.95 770.07,-166.62"/>
</g>
<!-- browser/chunk&#45;VPHHC3FF.js&#45;&gt;browser/chunk&#45;F75MTYKX.js -->
<g id="edge13" class="edge">
<title>browser/chunk&#45;VPHHC3FF.js&#45;&gt;browser/chunk&#45;F75MTYKX.js</title>
<path fill="none" stroke="#757575" d="M666.04,-102.78C695.02,-111.95 737.38,-125.36 769.21,-135.43"/>
<polygon fill="#757575" stroke="#757575" points="767.96,-138.7 778.55,-138.38 770.07,-132.03 767.96,-138.7"/>
</g>
<!-- browser/chunk&#45;X43VL4ET.js&#45;&gt;browser/chunk&#45;F75MTYKX.js -->
<g id="edge14" class="edge">
<title>browser/chunk&#45;X43VL4ET.js&#45;&gt;browser/chunk&#45;F75MTYKX.js</title>
<path fill="none" stroke="#757575" d="M519.61,-328.63C573.8,-331.8 649.27,-328.61 706,-296.33 757.07,-267.27 790.49,-202.79 804.94,-169.74"/>
<polygon fill="#757575" stroke="#757575" points="808.02,-171.43 808.67,-160.86 801.57,-168.72 808.02,-171.43"/>
</g>
<!-- browser/chunk&#45;X43VL4ET.js&#45;&gt;browser/chunk&#45;LCDWIOBH.js -->
<g id="edge15" class="edge">
<title>browser/chunk&#45;X43VL4ET.js&#45;&gt;browser/chunk&#45;LCDWIOBH.js</title>
<path fill="none" stroke="#757575" d="M466.84,-310.01C498.3,-290.13 567.54,-246.41 605.26,-222.58"/>
<polygon fill="#757575" stroke="#757575" points="606.7,-225.81 613.29,-217.51 602.97,-219.89 606.7,-225.81"/>
</g>
<!-- browser/chunk&#45;7JUATQNJ.js -->
<g id="node6" class="node">
<title>browser/chunk&#45;7JUATQNJ.js</title>
<path fill="none" stroke="#c6c5fe" d="M514.58,-102.33C514.58,-102.33 384.42,-102.33 384.42,-102.33 381.08,-102.33 377.75,-98.99 377.75,-95.66 377.75,-95.66 377.75,-88.99 377.75,-88.99 377.75,-85.66 381.08,-82.33 384.42,-82.33 384.42,-82.33 514.58,-82.33 514.58,-82.33 517.92,-82.33 521.25,-85.66 521.25,-88.99 521.25,-88.99 521.25,-95.66 521.25,-95.66 521.25,-98.99 517.92,-102.33 514.58,-102.33"/>
<text xml:space="preserve" text-anchor="middle" x="449.5" y="-88.83" font-family="Arial" font-size="10.00" fill="#c6c5fe">browser/chunk&#45;7JUATQNJ.js</text>
</g>
<!-- browser/chunk&#45;7JUATQNJ.js&#45;&gt;browser/chunk&#45;F75MTYKX.js -->
<g id="edge5" class="edge">
<title>browser/chunk&#45;7JUATQNJ.js&#45;&gt;browser/chunk&#45;F75MTYKX.js</title>
<path fill="none" stroke="#757575" d="M508.19,-102.82C524.3,-105.67 541.82,-108.69 558,-111.33 615.41,-120.67 680.23,-130.32 730.17,-137.55"/>
<polygon fill="#757575" stroke="#757575" points="729.67,-141.01 740.07,-138.98 730.67,-134.08 729.67,-141.01"/>
</g>
<!-- browser/chunk&#45;7JUATQNJ.js&#45;&gt;browser/chunk&#45;VPHHC3FF.js -->
<g id="edge6" class="edge">
<title>browser/chunk&#45;7JUATQNJ.js&#45;&gt;browser/chunk&#45;VPHHC3FF.js</title>
<path fill="none" stroke="#757575" d="M521.58,-92.33C530.09,-92.33 538.83,-92.33 547.49,-92.33"/>
<polygon fill="#757575" stroke="#757575" points="547.29,-95.83 557.29,-92.33 547.29,-88.83 547.29,-95.83"/>
</g>
<!-- browser/chunk&#45;I7N7EN7U.js -->
<g id="node7" class="node">
<title>browser/chunk&#45;I7N7EN7U.js</title>
<path fill="none" stroke="#c6c5fe" d="M329.08,-83.33C329.08,-83.33 201.17,-83.33 201.17,-83.33 197.83,-83.33 194.5,-79.99 194.5,-76.66 194.5,-76.66 194.5,-69.99 194.5,-69.99 194.5,-66.66 197.83,-63.33 201.17,-63.33 201.17,-63.33 329.08,-63.33 329.08,-63.33 332.42,-63.33 335.75,-66.66 335.75,-69.99 335.75,-69.99 335.75,-76.66 335.75,-76.66 335.75,-79.99 332.42,-83.33 329.08,-83.33"/>
<text xml:space="preserve" text-anchor="middle" x="265.12" y="-69.83" font-family="Arial" font-size="10.00" fill="#c6c5fe">browser/chunk&#45;I7N7EN7U.js</text>
</g>
<!-- browser/chunk&#45;I7N7EN7U.js&#45;&gt;browser/chunk&#45;F75MTYKX.js -->
<g id="edge8" class="edge">
<title>browser/chunk&#45;I7N7EN7U.js&#45;&gt;browser/chunk&#45;F75MTYKX.js</title>
<path fill="none" stroke="#757575" d="M317.34,-62.87C401.23,-48.02 571.99,-27.39 706,-73.33 741.17,-85.38 774.99,-112.9 794.92,-131.31"/>
<polygon fill="#757575" stroke="#757575" points="792.29,-133.64 801.95,-137.99 797.11,-128.56 792.29,-133.64"/>
</g>
<!-- browser/chunk&#45;I7N7EN7U.js&#45;&gt;browser/chunk&#45;VPHHC3FF.js -->
<g id="edge9" class="edge">
<title>browser/chunk&#45;I7N7EN7U.js&#45;&gt;browser/chunk&#45;VPHHC3FF.js</title>
<path fill="none" stroke="#757575" d="M336.04,-70.08C387.55,-68.48 459.27,-67.9 522,-73.33 537.78,-74.69 554.71,-77.15 570.41,-79.85"/>
<polygon fill="#757575" stroke="#757575" points="569.64,-83.27 580.1,-81.59 570.87,-76.38 569.64,-83.27"/>
</g>
<!-- browser/chunk&#45;I7N7EN7U.js&#45;&gt;browser/chunk&#45;7JUATQNJ.js -->
<g id="edge7" class="edge">
<title>browser/chunk&#45;I7N7EN7U.js&#45;&gt;browser/chunk&#45;7JUATQNJ.js</title>
<path fill="none" stroke="#757575" d="M336.11,-80.62C345.97,-81.64 356.17,-82.71 366.23,-83.75"/>
<polygon fill="#757575" stroke="#757575" points="365.68,-87.22 375.99,-84.77 366.4,-80.25 365.68,-87.22"/>
</g>
<!-- browser/chunk&#45;OLXPEXK7.js -->
<g id="node8" class="node">
<title>browser/chunk&#45;OLXPEXK7.js</title>
<path fill="none" stroke="#c6c5fe" d="M515.33,-178.33C515.33,-178.33 383.67,-178.33 383.67,-178.33 380.33,-178.33 377,-174.99 377,-171.66 377,-171.66 377,-164.99 377,-164.99 377,-161.66 380.33,-158.33 383.67,-158.33 383.67,-158.33 515.33,-158.33 515.33,-158.33 518.67,-158.33 522,-161.66 522,-164.99 522,-164.99 522,-171.66 522,-171.66 522,-174.99 518.67,-178.33 515.33,-178.33"/>
<text xml:space="preserve" text-anchor="middle" x="449.5" y="-164.83" font-family="Arial" font-size="10.00" fill="#c6c5fe">browser/chunk&#45;OLXPEXK7.js</text>
</g>
<!-- browser/chunk&#45;OLXPEXK7.js&#45;&gt;browser/chunk&#45;F75MTYKX.js -->
<g id="edge11" class="edge">
<title>browser/chunk&#45;OLXPEXK7.js&#45;&gt;browser/chunk&#45;F75MTYKX.js</title>
<path fill="none" stroke="#757575" d="M522.14,-164.57C581.99,-161.44 667.38,-156.96 730.18,-153.67"/>
<polygon fill="#757575" stroke="#757575" points="730.32,-157.17 740.12,-153.15 729.95,-150.18 730.32,-157.17"/>
</g>
<!-- browser/chunk&#45;OLXPEXK7.js&#45;&gt;browser/chunk&#45;LCDWIOBH.js -->
<g id="edge12" class="edge">
<title>browser/chunk&#45;OLXPEXK7.js&#45;&gt;browser/chunk&#45;LCDWIOBH.js</title>
<path fill="none" stroke="#757575" d="M500.3,-178.81C521.9,-183.36 547.4,-188.73 570.12,-193.51"/>
<polygon fill="#757575" stroke="#757575" points="569.37,-196.93 579.88,-195.56 570.82,-190.08 569.37,-196.93"/>
</g>
<!-- browser/main&#45;WAT4IK3I.js -->
<g id="node9" class="node">
<title>browser/main&#45;WAT4IK3I.js</title>
<path fill="none" stroke="#c6c5fe" d="M136.08,-159.33C136.08,-159.33 17.17,-159.33 17.17,-159.33 13.83,-159.33 10.5,-155.99 10.5,-152.66 10.5,-152.66 10.5,-145.99 10.5,-145.99 10.5,-142.66 13.83,-139.33 17.17,-139.33 17.17,-139.33 136.08,-139.33 136.08,-139.33 139.42,-139.33 142.75,-142.66 142.75,-145.99 142.75,-145.99 142.75,-152.66 142.75,-152.66 142.75,-155.99 139.42,-159.33 136.08,-159.33"/>
<text xml:space="preserve" text-anchor="middle" x="76.62" y="-145.83" font-family="Arial" font-size="10.00" fill="#c6c5fe">browser/main&#45;WAT4IK3I.js</text>
</g>
<!-- browser/main&#45;WAT4IK3I.js&#45;&gt;browser/chunk&#45;2WOC2OCM.js -->
<g id="edge16" class="edge">
<title>browser/main&#45;WAT4IK3I.js&#45;&gt;browser/chunk&#45;2WOC2OCM.js</title>
<path fill="none" stroke="#757575" d="M136.85,-159.7C142.66,-162.02 148.24,-164.86 153.25,-168.33 176.36,-184.33 166.67,-203.59 189.25,-220.33 194.12,-223.93 199.55,-227.01 205.2,-229.63"/>
<polygon fill="#757575" stroke="#757575" points="203.55,-232.74 214.13,-233.3 206.21,-226.27 203.55,-232.74"/>
</g>
<!-- browser/main&#45;WAT4IK3I.js&#45;&gt;browser/chunk&#45;F75MTYKX.js -->
<g id="edge18" class="edge">
<title>browser/main&#45;WAT4IK3I.js&#45;&gt;browser/chunk&#45;F75MTYKX.js</title>
<path fill="none" stroke="#757575" d="M82.94,-139.19C96.59,-114.39 135.65,-50.93 189.25,-27.33 267.77,7.26 571.02,15.66 706,-43.33 747.93,-61.65 782.57,-104.41 800.31,-129.67"/>
<polygon fill="#757575" stroke="#757575" points="797.29,-131.45 805.8,-137.75 803.07,-127.51 797.29,-131.45"/>
</g>
<!-- browser/main&#45;WAT4IK3I.js&#45;&gt;browser/chunk&#45;LCDWIOBH.js -->
<g id="edge20" class="edge">
<title>browser/main&#45;WAT4IK3I.js&#45;&gt;browser/chunk&#45;LCDWIOBH.js</title>
<path fill="none" stroke="#757575" d="M119.78,-159.82C140.57,-164.63 166.1,-169.99 189.25,-173.33 312.67,-191.12 456.96,-199.61 546.17,-203.45"/>
<polygon fill="#757575" stroke="#757575" points="545.93,-206.94 556.07,-203.86 546.22,-199.94 545.93,-206.94"/>
</g>
<!-- browser/main&#45;WAT4IK3I.js&#45;&gt;browser/chunk&#45;VPHHC3FF.js -->
<g id="edge22" class="edge">
<title>browser/main&#45;WAT4IK3I.js&#45;&gt;browser/chunk&#45;VPHHC3FF.js</title>
<path fill="none" stroke="#757575" d="M85.43,-138.95C101.88,-118.09 142.44,-71.55 189.25,-54.33 330.4,-2.39 513.43,-51.87 592.18,-78.21"/>
<polygon fill="#757575" stroke="#757575" points="590.99,-81.51 601.59,-81.42 593.26,-74.88 590.99,-81.51"/>
</g>
<!-- browser/main&#45;WAT4IK3I.js&#45;&gt;browser/chunk&#45;X43VL4ET.js -->
<g id="edge23" class="edge">
<title>browser/main&#45;WAT4IK3I.js&#45;&gt;browser/chunk&#45;X43VL4ET.js</title>
<path fill="none" stroke="#757575" d="M140.39,-159.75C145.04,-162.08 149.41,-164.9 153.25,-168.33 186.98,-198.35 155.08,-233.81 189.25,-263.33 238.27,-305.67 311.62,-318.7 367.8,-321.84"/>
<polygon fill="#757575" stroke="#757575" points="367.5,-325.33 377.64,-322.28 367.81,-318.34 367.5,-325.33"/>
</g>
<!-- browser/main&#45;WAT4IK3I.js&#45;&gt;browser/chunk&#45;7JUATQNJ.js -->
<g id="edge17" class="edge">
<title>browser/main&#45;WAT4IK3I.js&#45;&gt;browser/chunk&#45;7JUATQNJ.js</title>
<path fill="none" stroke="#757575" d="M143.08,-139.27C206.21,-129.56 301.86,-114.86 369.27,-104.5"/>
<polygon fill="#757575" stroke="#757575" points="369.4,-108.02 378.76,-103.04 368.34,-101.1 369.4,-108.02"/>
</g>
<!-- browser/main&#45;WAT4IK3I.js&#45;&gt;browser/chunk&#45;I7N7EN7U.js -->
<g id="edge19" class="edge">
<title>browser/main&#45;WAT4IK3I.js&#45;&gt;browser/chunk&#45;I7N7EN7U.js</title>
<path fill="none" stroke="#757575" d="M103.17,-138.92C135.58,-125.71 191.68,-102.85 228.35,-87.91"/>
<polygon fill="#757575" stroke="#757575" points="229.25,-91.32 237.19,-84.3 226.61,-84.83 229.25,-91.32"/>
</g>
<!-- browser/main&#45;WAT4IK3I.js&#45;&gt;browser/chunk&#45;OLXPEXK7.js -->
<g id="edge21" class="edge">
<title>browser/main&#45;WAT4IK3I.js&#45;&gt;browser/chunk&#45;OLXPEXK7.js</title>
<path fill="none" stroke="#757575" d="M143.08,-152.68C205,-155.85 298.2,-160.63 365.36,-164.07"/>
<polygon fill="#757575" stroke="#757575" points="365.06,-167.55 375.23,-164.57 365.42,-160.56 365.06,-167.55"/>
</g>
<!-- browser/polyfills&#45;5CFQRCPP.js -->
<g id="node10" class="node">
<title>browser/polyfills&#45;5CFQRCPP.js</title>
<path fill="none" stroke="#cfffac" d="M146.58,-197.33C146.58,-197.33 6.67,-197.33 6.67,-197.33 3.33,-197.33 0,-193.99 0,-190.66 0,-190.66 0,-183.99 0,-183.99 0,-180.66 3.33,-177.33 6.67,-177.33 6.67,-177.33 146.58,-177.33 146.58,-177.33 149.92,-177.33 153.25,-180.66 153.25,-183.99 153.25,-183.99 153.25,-190.66 153.25,-190.66 153.25,-193.99 149.92,-197.33 146.58,-197.33"/>
<text xml:space="preserve" text-anchor="middle" x="76.62" y="-183.83" font-family="Arial" font-size="10.00" fill="#cfffac">browser/polyfills&#45;5CFQRCPP.js</text>
</g>
</g>
</svg>
