<?xml version="1.0" encoding="UTF-8" standalone="no"?>
<!DOCTYPE svg PUBLIC "-//W3C//DTD SVG 1.1//EN"
 "http://www.w3.org/Graphics/SVG/1.1/DTD/svg11.dtd">
<!-- Generated by graphviz version 13.0.1 (20250615.1724)
 -->
<!-- Title: G Pages: 1 -->
<svg width="742pt" height="208pt"
 viewBox="0.00 0.00 742.00 208.00" xmlns="http://www.w3.org/2000/svg" xmlns:xlink="http://www.w3.org/1999/xlink">
<g id="graph0" class="graph" transform="scale(1 1) rotate(0) translate(21.6 186.71)">
<title>G</title>
<polygon fill="#111111" stroke="none" points="-21.6,21.6 -21.6,-186.71 720.85,-186.71 720.85,21.6 -21.6,21.6"/>
<!-- browser/chunk&#45;FA6FOHF3.js -->
<g id="node1" class="node">
<title>browser/chunk&#45;FA6FOHF3.js</title>
<path fill="none" stroke="#c6c5fe" d="M508.58,-134C508.58,-134 379.17,-134 379.17,-134 375.83,-134 372.5,-130.67 372.5,-127.33 372.5,-127.33 372.5,-120.67 372.5,-120.67 372.5,-117.33 375.83,-114 379.17,-114 379.17,-114 508.58,-114 508.58,-114 511.92,-114 515.25,-117.33 515.25,-120.67 515.25,-120.67 515.25,-127.33 515.25,-127.33 515.25,-130.67 511.92,-134 508.58,-134"/>
<text xml:space="preserve" text-anchor="middle" x="443.88" y="-120.5" font-family="Arial" font-size="10.00" fill="#c6c5fe">browser/chunk&#45;FA6FOHF3.js</text>
</g>
<!-- browser/chunk&#45;TDGYXMPY.js -->
<g id="node2" class="node">
<title>browser/chunk&#45;TDGYXMPY.js</title>
<path fill="none" stroke="#cfffac" d="M692.58,-96C692.58,-96 557.92,-96 557.92,-96 554.58,-96 551.25,-92.67 551.25,-89.33 551.25,-89.33 551.25,-82.67 551.25,-82.67 551.25,-79.33 554.58,-76 557.92,-76 557.92,-76 692.58,-76 692.58,-76 695.92,-76 699.25,-79.33 699.25,-82.67 699.25,-82.67 699.25,-89.33 699.25,-89.33 699.25,-92.67 695.92,-96 692.58,-96"/>
<text xml:space="preserve" text-anchor="middle" x="625.25" y="-82.5" font-family="Arial" font-size="10.00" fill="#cfffac">browser/chunk&#45;TDGYXMPY.js</text>
</g>
<!-- browser/chunk&#45;FA6FOHF3.js&#45;&gt;browser/chunk&#45;TDGYXMPY.js -->
<g id="edge1" class="edge">
<title>browser/chunk&#45;FA6FOHF3.js&#45;&gt;browser/chunk&#45;TDGYXMPY.js</title>
<path fill="none" stroke="#757575" d="M494.36,-113.52C515.83,-108.97 541.18,-103.6 563.75,-98.82"/>
<polygon fill="#757575" stroke="#757575" points="564.38,-102.26 573.44,-96.76 562.93,-95.41 564.38,-102.26"/>
</g>
<!-- browser/chunk&#45;JSWX3UKG.js -->
<g id="node3" class="node">
<title>browser/chunk&#45;JSWX3UKG.js</title>
<path fill="none" stroke="#c6c5fe" d="M329.83,-96C329.83,-96 194.42,-96 194.42,-96 191.08,-96 187.75,-92.67 187.75,-89.33 187.75,-89.33 187.75,-82.67 187.75,-82.67 187.75,-79.33 191.08,-76 194.42,-76 194.42,-76 329.83,-76 329.83,-76 333.17,-76 336.5,-79.33 336.5,-82.67 336.5,-82.67 336.5,-89.33 336.5,-89.33 336.5,-92.67 333.17,-96 329.83,-96"/>
<text xml:space="preserve" text-anchor="middle" x="262.12" y="-82.5" font-family="Arial" font-size="10.00" fill="#c6c5fe">browser/chunk&#45;JSWX3UKG.js</text>
</g>
<!-- browser/chunk&#45;JSWX3UKG.js&#45;&gt;browser/chunk&#45;FA6FOHF3.js -->
<g id="edge2" class="edge">
<title>browser/chunk&#45;JSWX3UKG.js&#45;&gt;browser/chunk&#45;FA6FOHF3.js</title>
<path fill="none" stroke="#757575" d="M312.72,-96.48C334.23,-101.03 359.63,-106.4 382.25,-111.18"/>
<polygon fill="#757575" stroke="#757575" points="381.46,-114.59 391.96,-113.24 382.9,-107.74 381.46,-114.59"/>
</g>
<!-- browser/chunk&#45;JSWX3UKG.js&#45;&gt;browser/chunk&#45;TDGYXMPY.js -->
<g id="edge3" class="edge">
<title>browser/chunk&#45;JSWX3UKG.js&#45;&gt;browser/chunk&#45;TDGYXMPY.js</title>
<path fill="none" stroke="#757575" d="M336.64,-86C395.46,-86 478.01,-86 539.59,-86"/>
<polygon fill="#757575" stroke="#757575" points="539.33,-89.5 549.33,-86 539.33,-82.5 539.33,-89.5"/>
</g>
<!-- browser/chunk&#45;LZ36XO2U.js -->
<g id="node4" class="node">
<title>browser/chunk&#45;LZ36XO2U.js</title>
<path fill="none" stroke="#c6c5fe" d="M508.21,-58C508.21,-58 379.54,-58 379.54,-58 376.21,-58 372.88,-54.67 372.88,-51.33 372.88,-51.33 372.88,-44.67 372.88,-44.67 372.88,-41.33 376.21,-38 379.54,-38 379.54,-38 508.21,-38 508.21,-38 511.54,-38 514.88,-41.33 514.88,-44.67 514.88,-44.67 514.88,-51.33 514.88,-51.33 514.88,-54.67 511.54,-58 508.21,-58"/>
<text xml:space="preserve" text-anchor="middle" x="443.88" y="-44.5" font-family="Arial" font-size="10.00" fill="#c6c5fe">browser/chunk&#45;LZ36XO2U.js</text>
</g>
<!-- browser/chunk&#45;LZ36XO2U.js&#45;&gt;browser/chunk&#45;TDGYXMPY.js -->
<g id="edge4" class="edge">
<title>browser/chunk&#45;LZ36XO2U.js&#45;&gt;browser/chunk&#45;TDGYXMPY.js</title>
<path fill="none" stroke="#757575" d="M494.36,-58.48C515.83,-63.03 541.18,-68.4 563.75,-73.18"/>
<polygon fill="#757575" stroke="#757575" points="562.93,-76.59 573.44,-75.24 564.38,-69.74 562.93,-76.59"/>
</g>
<!-- browser/chunk&#45;UPM2ZCXS.js -->
<g id="node5" class="node">
<title>browser/chunk&#45;UPM2ZCXS.js</title>
<path fill="none" stroke="#c6c5fe" d="M329.46,-20C329.46,-20 194.79,-20 194.79,-20 191.46,-20 188.12,-16.67 188.12,-13.33 188.12,-13.33 188.12,-6.67 188.12,-6.67 188.12,-3.33 191.46,0 194.79,0 194.79,0 329.46,0 329.46,0 332.79,0 336.12,-3.33 336.12,-6.67 336.12,-6.67 336.12,-13.33 336.12,-13.33 336.12,-16.67 332.79,-20 329.46,-20"/>
<text xml:space="preserve" text-anchor="middle" x="262.12" y="-6.5" font-family="Arial" font-size="10.00" fill="#c6c5fe">browser/chunk&#45;UPM2ZCXS.js</text>
</g>
<!-- browser/chunk&#45;UPM2ZCXS.js&#45;&gt;browser/chunk&#45;TDGYXMPY.js -->
<g id="edge6" class="edge">
<title>browser/chunk&#45;UPM2ZCXS.js&#45;&gt;browser/chunk&#45;TDGYXMPY.js</title>
<path fill="none" stroke="#757575" d="M336.49,-7.77C387.55,-8.08 456.69,-12.25 515.25,-29 546.13,-37.83 578.34,-55.96 599.67,-69.41"/>
<polygon fill="#757575" stroke="#757575" points="597.64,-72.27 607.94,-74.76 601.44,-66.39 597.64,-72.27"/>
</g>
<!-- browser/chunk&#45;UPM2ZCXS.js&#45;&gt;browser/chunk&#45;LZ36XO2U.js -->
<g id="edge5" class="edge">
<title>browser/chunk&#45;UPM2ZCXS.js&#45;&gt;browser/chunk&#45;LZ36XO2U.js</title>
<path fill="none" stroke="#757575" d="M312.72,-20.48C334.23,-25.03 359.63,-30.4 382.25,-35.18"/>
<polygon fill="#757575" stroke="#757575" points="381.46,-38.59 391.96,-37.24 382.9,-31.74 381.46,-38.59"/>
</g>
<!-- browser/main&#45;IL5WBHPW.js -->
<g id="node6" class="node">
<title>browser/main&#45;IL5WBHPW.js</title>
<path fill="none" stroke="#c6c5fe" d="M139.83,-96C139.83,-96 11.92,-96 11.92,-96 8.58,-96 5.25,-92.67 5.25,-89.33 5.25,-89.33 5.25,-82.67 5.25,-82.67 5.25,-79.33 8.58,-76 11.92,-76 11.92,-76 139.83,-76 139.83,-76 143.17,-76 146.5,-79.33 146.5,-82.67 146.5,-82.67 146.5,-89.33 146.5,-89.33 146.5,-92.67 143.17,-96 139.83,-96"/>
<text xml:space="preserve" text-anchor="middle" x="75.88" y="-82.5" font-family="Arial" font-size="10.00" fill="#c6c5fe">browser/main&#45;IL5WBHPW.js</text>
</g>
<!-- browser/main&#45;IL5WBHPW.js&#45;&gt;browser/chunk&#45;FA6FOHF3.js -->
<g id="edge7" class="edge">
<title>browser/main&#45;IL5WBHPW.js&#45;&gt;browser/chunk&#45;FA6FOHF3.js</title>
<path fill="none" stroke="#757575" d="M131.71,-96.46C149.53,-99.58 169.43,-102.75 187.75,-105 245.32,-112.06 310.53,-116.86 360.62,-119.87"/>
<polygon fill="#757575" stroke="#757575" points="360.34,-123.36 370.53,-120.45 360.75,-116.37 360.34,-123.36"/>
</g>
<!-- browser/main&#45;IL5WBHPW.js&#45;&gt;browser/chunk&#45;TDGYXMPY.js -->
<g id="edge10" class="edge">
<title>browser/main&#45;IL5WBHPW.js&#45;&gt;browser/chunk&#45;TDGYXMPY.js</title>
<path fill="none" stroke="#757575" d="M126.25,-96.44C134.88,-98.85 143.68,-101.7 151.75,-105 168.89,-112.01 170.11,-120.35 187.75,-126 326.56,-170.45 373.71,-177.77 515.25,-143 546.79,-135.25 579.34,-116.59 600.55,-102.71"/>
<polygon fill="#757575" stroke="#757575" points="602.4,-105.69 608.75,-97.2 598.5,-99.88 602.4,-105.69"/>
</g>
<!-- browser/main&#45;IL5WBHPW.js&#45;&gt;browser/chunk&#45;JSWX3UKG.js -->
<g id="edge8" class="edge">
<title>browser/main&#45;IL5WBHPW.js&#45;&gt;browser/chunk&#45;JSWX3UKG.js</title>
<path fill="none" stroke="#757575" d="M146.79,-86C156.31,-86 166.15,-86 175.9,-86"/>
<polygon fill="#757575" stroke="#757575" points="175.75,-89.5 185.75,-86 175.75,-82.5 175.75,-89.5"/>
</g>
<!-- browser/main&#45;IL5WBHPW.js&#45;&gt;browser/chunk&#45;LZ36XO2U.js -->
<g id="edge9" class="edge">
<title>browser/main&#45;IL5WBHPW.js&#45;&gt;browser/chunk&#45;LZ36XO2U.js</title>
<path fill="none" stroke="#757575" d="M131.71,-75.54C149.53,-72.42 169.43,-69.25 187.75,-67 245.52,-59.92 311,-55.11 361.15,-52.1"/>
<polygon fill="#757575" stroke="#757575" points="361.29,-55.6 371.07,-51.52 360.88,-48.61 361.29,-55.6"/>
</g>
<!-- browser/main&#45;IL5WBHPW.js&#45;&gt;browser/chunk&#45;UPM2ZCXS.js -->
<g id="edge11" class="edge">
<title>browser/main&#45;IL5WBHPW.js&#45;&gt;browser/chunk&#45;UPM2ZCXS.js</title>
<path fill="none" stroke="#757575" d="M96.98,-75.66C118.95,-64.57 155.33,-46.85 187.75,-34 196.52,-30.52 206.01,-27.15 215.17,-24.07"/>
<polygon fill="#757575" stroke="#757575" points="216.25,-27.4 224.66,-20.96 214.07,-20.75 216.25,-27.4"/>
</g>
<!-- browser/polyfills&#45;B6TNHZQ6.js -->
<g id="node7" class="node">
<title>browser/polyfills&#45;B6TNHZQ6.js</title>
<path fill="none" stroke="#cfffac" d="M145.08,-134C145.08,-134 6.67,-134 6.67,-134 3.33,-134 0,-130.67 0,-127.33 0,-127.33 0,-120.67 0,-120.67 0,-117.33 3.33,-114 6.67,-114 6.67,-114 145.08,-114 145.08,-114 148.42,-114 151.75,-117.33 151.75,-120.67 151.75,-120.67 151.75,-127.33 151.75,-127.33 151.75,-130.67 148.42,-134 145.08,-134"/>
<text xml:space="preserve" text-anchor="middle" x="75.88" y="-120.5" font-family="Arial" font-size="10.00" fill="#cfffac">browser/polyfills&#45;B6TNHZQ6.js</text>
</g>
</g>
</svg>
