<?xml version="1.0" encoding="UTF-8" standalone="no"?>
<!DOCTYPE svg PUBLIC "-//W3C//DTD SVG 1.1//EN"
 "http://www.w3.org/Graphics/SVG/1.1/DTD/svg11.dtd">
<!-- Generated by graphviz version 13.0.1 (20250615.1724)
 -->
<!-- Title: G Pages: 1 -->
<svg width="923pt" height="448pt"
 viewBox="0.00 0.00 923.00 448.00" xmlns="http://www.w3.org/2000/svg" xmlns:xlink="http://www.w3.org/1999/xlink">
<g id="graph0" class="graph" transform="scale(1 1) rotate(0) translate(21.6 425.98)">
<title>G</title>
<polygon fill="#111111" stroke="none" points="-21.6,21.6 -21.6,-425.98 901.85,-425.98 901.85,21.6 -21.6,21.6"/>
<!-- browser/chunk&#45;377BNX5O.js -->
<g id="node1" class="node">
<title>browser/chunk&#45;377BNX5O.js</title>
<path fill="none" stroke="#c6c5fe" d="M326.83,-283.42C326.83,-283.42 197.42,-283.42 197.42,-283.42 194.08,-283.42 190.75,-280.09 190.75,-276.76 190.75,-276.76 190.75,-270.09 190.75,-270.09 190.75,-266.76 194.08,-263.42 197.42,-263.42 197.42,-263.42 326.83,-263.42 326.83,-263.42 330.17,-263.42 333.5,-266.76 333.5,-270.09 333.5,-270.09 333.5,-276.76 333.5,-276.76 333.5,-280.09 330.17,-283.42 326.83,-283.42"/>
<text xml:space="preserve" text-anchor="middle" x="262.12" y="-269.92" font-family="Arial" font-size="10.00" fill="#c6c5fe">browser/chunk&#45;377BNX5O.js</text>
</g>
<!-- browser/chunk&#45;LZ36XO2U.js -->
<g id="node2" class="node">
<title>browser/chunk&#45;LZ36XO2U.js</title>
<path fill="none" stroke="#c6c5fe" d="M687.33,-321.42C687.33,-321.42 558.67,-321.42 558.67,-321.42 555.33,-321.42 552,-318.09 552,-314.76 552,-314.76 552,-308.09 552,-308.09 552,-304.76 555.33,-301.42 558.67,-301.42 558.67,-301.42 687.33,-301.42 687.33,-301.42 690.67,-301.42 694,-304.76 694,-308.09 694,-308.09 694,-314.76 694,-314.76 694,-318.09 690.67,-321.42 687.33,-321.42"/>
<text xml:space="preserve" text-anchor="middle" x="623" y="-307.92" font-family="Arial" font-size="10.00" fill="#c6c5fe">browser/chunk&#45;LZ36XO2U.js</text>
</g>
<!-- browser/chunk&#45;377BNX5O.js&#45;&gt;browser/chunk&#45;LZ36XO2U.js -->
<g id="edge1" class="edge">
<title>browser/chunk&#45;377BNX5O.js&#45;&gt;browser/chunk&#45;LZ36XO2U.js</title>
<path fill="none" stroke="#757575" d="M333.98,-282.82C346.79,-284.43 360.04,-286.03 372.5,-287.42 428.45,-293.69 491.57,-299.76 540.33,-304.22"/>
<polygon fill="#757575" stroke="#757575" points="539.98,-307.7 550.26,-305.12 540.62,-300.73 539.98,-307.7"/>
</g>
<!-- browser/chunk&#45;N6ZNY7JI.js -->
<g id="node3" class="node">
<title>browser/chunk&#45;N6ZNY7JI.js</title>
<path fill="none" stroke="#c6c5fe" d="M506.33,-397.42C506.33,-397.42 379.92,-397.42 379.92,-397.42 376.58,-397.42 373.25,-394.09 373.25,-390.76 373.25,-390.76 373.25,-384.09 373.25,-384.09 373.25,-380.76 376.58,-377.42 379.92,-377.42 379.92,-377.42 506.33,-377.42 506.33,-377.42 509.67,-377.42 513,-380.76 513,-384.09 513,-384.09 513,-390.76 513,-390.76 513,-394.09 509.67,-397.42 506.33,-397.42"/>
<text xml:space="preserve" text-anchor="middle" x="443.12" y="-383.92" font-family="Arial" font-size="10.00" fill="#c6c5fe">browser/chunk&#45;N6ZNY7JI.js</text>
</g>
<!-- browser/chunk&#45;377BNX5O.js&#45;&gt;browser/chunk&#45;N6ZNY7JI.js -->
<g id="edge2" class="edge">
<title>browser/chunk&#45;377BNX5O.js&#45;&gt;browser/chunk&#45;N6ZNY7JI.js</title>
<path fill="none" stroke="#757575" d="M279.33,-283.74C310.4,-303.53 378.6,-346.97 416.12,-370.86"/>
<polygon fill="#757575" stroke="#757575" points="414.24,-373.82 424.56,-376.23 418,-367.91 414.24,-373.82"/>
</g>
<!-- browser/chunk&#45;TDGYXMPY.js -->
<g id="node4" class="node">
<title>browser/chunk&#45;TDGYXMPY.js</title>
<path fill="none" stroke="#cfffac" d="M873.58,-197.42C873.58,-197.42 738.92,-197.42 738.92,-197.42 735.58,-197.42 732.25,-194.09 732.25,-190.76 732.25,-190.76 732.25,-184.09 732.25,-184.09 732.25,-180.76 735.58,-177.42 738.92,-177.42 738.92,-177.42 873.58,-177.42 873.58,-177.42 876.92,-177.42 880.25,-180.76 880.25,-184.09 880.25,-184.09 880.25,-190.76 880.25,-190.76 880.25,-194.09 876.92,-197.42 873.58,-197.42"/>
<text xml:space="preserve" text-anchor="middle" x="806.25" y="-183.92" font-family="Arial" font-size="10.00" fill="#cfffac">browser/chunk&#45;TDGYXMPY.js</text>
</g>
<!-- browser/chunk&#45;377BNX5O.js&#45;&gt;browser/chunk&#45;TDGYXMPY.js -->
<g id="edge3" class="edge">
<title>browser/chunk&#45;377BNX5O.js&#45;&gt;browser/chunk&#45;TDGYXMPY.js</title>
<path fill="none" stroke="#757575" d="M333.96,-271.79C420.62,-268.41 571.23,-258.07 696.25,-226.42 721.35,-220.07 748.8,-210.23 769.87,-202.03"/>
<polygon fill="#757575" stroke="#757575" points="771.15,-205.29 779.15,-198.35 768.57,-198.78 771.15,-205.29"/>
</g>
<!-- browser/chunk&#45;WGR6XL5V.js -->
<g id="node5" class="node">
<title>browser/chunk&#45;WGR6XL5V.js</title>
<path fill="none" stroke="#c6c5fe" d="M689.58,-169.42C689.58,-169.42 556.42,-169.42 556.42,-169.42 553.08,-169.42 549.75,-166.09 549.75,-162.76 549.75,-162.76 549.75,-156.09 549.75,-156.09 549.75,-152.76 553.08,-149.42 556.42,-149.42 556.42,-149.42 689.58,-149.42 689.58,-149.42 692.92,-149.42 696.25,-152.76 696.25,-156.09 696.25,-156.09 696.25,-162.76 696.25,-162.76 696.25,-166.09 692.92,-169.42 689.58,-169.42"/>
<text xml:space="preserve" text-anchor="middle" x="623" y="-155.92" font-family="Arial" font-size="10.00" fill="#c6c5fe">browser/chunk&#45;WGR6XL5V.js</text>
</g>
<!-- browser/chunk&#45;377BNX5O.js&#45;&gt;browser/chunk&#45;WGR6XL5V.js -->
<g id="edge4" class="edge">
<title>browser/chunk&#45;377BNX5O.js&#45;&gt;browser/chunk&#45;WGR6XL5V.js</title>
<path fill="none" stroke="#757575" d="M279.93,-262.93C300.88,-250.25 338.14,-229.07 372.5,-216.42 428.33,-195.89 494,-181.24 543.95,-171.94"/>
<polygon fill="#757575" stroke="#757575" points="544.3,-175.44 553.51,-170.2 543.04,-168.55 544.3,-175.44"/>
</g>
<!-- browser/chunk&#45;LZ36XO2U.js&#45;&gt;browser/chunk&#45;TDGYXMPY.js -->
<g id="edge8" class="edge">
<title>browser/chunk&#45;LZ36XO2U.js&#45;&gt;browser/chunk&#45;TDGYXMPY.js</title>
<path fill="none" stroke="#757575" d="M665.43,-300.98C675.87,-297.46 686.79,-292.99 696.25,-287.42 733.83,-265.33 769.5,-228.57 789.27,-206.3"/>
<polygon fill="#757575" stroke="#757575" points="791.8,-208.72 795.73,-198.88 786.52,-204.12 791.8,-208.72"/>
</g>
<!-- browser/chunk&#45;N6ZNY7JI.js&#45;&gt;browser/chunk&#45;LZ36XO2U.js -->
<g id="edge9" class="edge">
<title>browser/chunk&#45;N6ZNY7JI.js&#45;&gt;browser/chunk&#45;LZ36XO2U.js</title>
<path fill="none" stroke="#757575" d="M477,-376.96C488.71,-373.01 501.92,-368.28 513.75,-363.42 540.64,-352.37 570.35,-337.93 591.84,-327.08"/>
<polygon fill="#757575" stroke="#757575" points="593.3,-330.26 600.62,-322.6 590.12,-324.02 593.3,-330.26"/>
</g>
<!-- browser/chunk&#45;N6ZNY7JI.js&#45;&gt;browser/chunk&#45;TDGYXMPY.js -->
<g id="edge10" class="edge">
<title>browser/chunk&#45;N6ZNY7JI.js&#45;&gt;browser/chunk&#45;TDGYXMPY.js</title>
<path fill="none" stroke="#757575" d="M513.24,-384.51C566.87,-379.39 641.12,-365.83 696.25,-330.42 744.44,-299.47 779.54,-239.44 795.56,-207.9"/>
<polygon fill="#757575" stroke="#757575" points="798.65,-209.56 799.92,-199.04 792.37,-206.47 798.65,-209.56"/>
</g>
<!-- browser/chunk&#45;WGR6XL5V.js&#45;&gt;browser/chunk&#45;TDGYXMPY.js -->
<g id="edge15" class="edge">
<title>browser/chunk&#45;WGR6XL5V.js&#45;&gt;browser/chunk&#45;TDGYXMPY.js</title>
<path fill="none" stroke="#757575" d="M691.75,-169.89C702.91,-171.61 714.57,-173.42 725.98,-175.18"/>
<polygon fill="#757575" stroke="#757575" points="725.37,-178.63 735.79,-176.69 726.44,-171.71 725.37,-178.63"/>
</g>
<!-- browser/chunk&#45;BUNED6UB.js -->
<g id="node6" class="node">
<title>browser/chunk&#45;BUNED6UB.js</title>
<path fill="none" stroke="#c6c5fe" d="M329.83,-112.42C329.83,-112.42 194.42,-112.42 194.42,-112.42 191.08,-112.42 187.75,-109.09 187.75,-105.76 187.75,-105.76 187.75,-99.09 187.75,-99.09 187.75,-95.76 191.08,-92.42 194.42,-92.42 194.42,-92.42 329.83,-92.42 329.83,-92.42 333.17,-92.42 336.5,-95.76 336.5,-99.09 336.5,-99.09 336.5,-105.76 336.5,-105.76 336.5,-109.09 333.17,-112.42 329.83,-112.42"/>
<text xml:space="preserve" text-anchor="middle" x="262.12" y="-98.92" font-family="Arial" font-size="10.00" fill="#c6c5fe">browser/chunk&#45;BUNED6UB.js</text>
</g>
<!-- browser/chunk&#45;BUNED6UB.js&#45;&gt;browser/chunk&#45;TDGYXMPY.js -->
<g id="edge6" class="edge">
<title>browser/chunk&#45;BUNED6UB.js&#45;&gt;browser/chunk&#45;TDGYXMPY.js</title>
<path fill="none" stroke="#757575" d="M336.97,-100.86C424.34,-100.84 573.45,-106.58 696.25,-140.42 724.12,-148.11 754.18,-161.48 775.66,-172.01"/>
<polygon fill="#757575" stroke="#757575" points="773.9,-175.04 784.41,-176.38 777.03,-168.78 773.9,-175.04"/>
</g>
<!-- browser/chunk&#45;BUNED6UB.js&#45;&gt;browser/chunk&#45;WGR6XL5V.js -->
<g id="edge7" class="edge">
<title>browser/chunk&#45;BUNED6UB.js&#45;&gt;browser/chunk&#45;WGR6XL5V.js</title>
<path fill="none" stroke="#757575" d="M328.95,-112.88C389.84,-122.55 480.39,-136.93 544.7,-147.15"/>
<polygon fill="#757575" stroke="#757575" points="544.07,-150.59 554.49,-148.7 545.17,-143.68 544.07,-150.59"/>
</g>
<!-- browser/chunk&#45;RGI54RP5.js -->
<g id="node7" class="node">
<title>browser/chunk&#45;RGI54RP5.js</title>
<path fill="none" stroke="#c6c5fe" d="M507.08,-55.42C507.08,-55.42 379.17,-55.42 379.17,-55.42 375.83,-55.42 372.5,-52.09 372.5,-48.76 372.5,-48.76 372.5,-42.09 372.5,-42.09 372.5,-38.76 375.83,-35.42 379.17,-35.42 379.17,-35.42 507.08,-35.42 507.08,-35.42 510.42,-35.42 513.75,-38.76 513.75,-42.09 513.75,-42.09 513.75,-48.76 513.75,-48.76 513.75,-52.09 510.42,-55.42 507.08,-55.42"/>
<text xml:space="preserve" text-anchor="middle" x="443.12" y="-41.92" font-family="Arial" font-size="10.00" fill="#c6c5fe">browser/chunk&#45;RGI54RP5.js</text>
</g>
<!-- browser/chunk&#45;BUNED6UB.js&#45;&gt;browser/chunk&#45;RGI54RP5.js -->
<g id="edge5" class="edge">
<title>browser/chunk&#45;BUNED6UB.js&#45;&gt;browser/chunk&#45;RGI54RP5.js</title>
<path fill="none" stroke="#757575" d="M295.96,-91.97C324.76,-82.8 366.86,-69.39 398.49,-59.32"/>
<polygon fill="#757575" stroke="#757575" points="399.29,-62.74 407.76,-56.37 397.17,-56.07 399.29,-62.74"/>
</g>
<!-- browser/chunk&#45;RGI54RP5.js&#45;&gt;browser/chunk&#45;TDGYXMPY.js -->
<g id="edge13" class="edge">
<title>browser/chunk&#45;RGI54RP5.js&#45;&gt;browser/chunk&#45;TDGYXMPY.js</title>
<path fill="none" stroke="#757575" d="M514.1,-39.05C566.83,-37.24 639.51,-41.32 696.25,-69.42 740.81,-91.5 776.18,-140.08 793.54,-167.53"/>
<polygon fill="#757575" stroke="#757575" points="790.49,-169.24 798.69,-175.94 796.46,-165.58 790.49,-169.24"/>
</g>
<!-- browser/chunk&#45;RGI54RP5.js&#45;&gt;browser/chunk&#45;WGR6XL5V.js -->
<g id="edge14" class="edge">
<title>browser/chunk&#45;RGI54RP5.js&#45;&gt;browser/chunk&#45;WGR6XL5V.js</title>
<path fill="none" stroke="#757575" d="M460.22,-55.74C491.1,-75.53 558.88,-118.97 596.16,-142.86"/>
<polygon fill="#757575" stroke="#757575" points="594.23,-145.78 604.53,-148.23 598,-139.89 594.23,-145.78"/>
</g>
<!-- browser/chunk&#45;Q743YH5J.js -->
<g id="node8" class="node">
<title>browser/chunk&#45;Q743YH5J.js</title>
<path fill="none" stroke="#c6c5fe" d="M507.08,-245.42C507.08,-245.42 379.17,-245.42 379.17,-245.42 375.83,-245.42 372.5,-242.09 372.5,-238.76 372.5,-238.76 372.5,-232.09 372.5,-232.09 372.5,-228.76 375.83,-225.42 379.17,-225.42 379.17,-225.42 507.08,-225.42 507.08,-225.42 510.42,-225.42 513.75,-228.76 513.75,-232.09 513.75,-232.09 513.75,-238.76 513.75,-238.76 513.75,-242.09 510.42,-245.42 507.08,-245.42"/>
<text xml:space="preserve" text-anchor="middle" x="443.12" y="-231.92" font-family="Arial" font-size="10.00" fill="#c6c5fe">browser/chunk&#45;Q743YH5J.js</text>
</g>
<!-- browser/chunk&#45;Q743YH5J.js&#45;&gt;browser/chunk&#45;LZ36XO2U.js -->
<g id="edge11" class="edge">
<title>browser/chunk&#45;Q743YH5J.js&#45;&gt;browser/chunk&#45;LZ36XO2U.js</title>
<path fill="none" stroke="#757575" d="M468.48,-245.83C499.27,-258.99 552.45,-281.71 587.42,-296.65"/>
<polygon fill="#757575" stroke="#757575" points="585.69,-299.72 596.26,-300.43 588.44,-293.28 585.69,-299.72"/>
</g>
<!-- browser/chunk&#45;Q743YH5J.js&#45;&gt;browser/chunk&#45;TDGYXMPY.js -->
<g id="edge12" class="edge">
<title>browser/chunk&#45;Q743YH5J.js&#45;&gt;browser/chunk&#45;TDGYXMPY.js</title>
<path fill="none" stroke="#757575" d="M514.18,-226.11C573.29,-218.26 658.08,-206.99 720.91,-198.63"/>
<polygon fill="#757575" stroke="#757575" points="721.03,-202.15 730.48,-197.36 720.11,-195.21 721.03,-202.15"/>
</g>
<!-- browser/main&#45;XEQ5LUQM.js -->
<g id="node9" class="node">
<title>browser/main&#45;XEQ5LUQM.js</title>
<path fill="none" stroke="#c6c5fe" d="M140.58,-207.42C140.58,-207.42 11.17,-207.42 11.17,-207.42 7.83,-207.42 4.5,-204.09 4.5,-200.76 4.5,-200.76 4.5,-194.09 4.5,-194.09 4.5,-190.76 7.83,-187.42 11.17,-187.42 11.17,-187.42 140.58,-187.42 140.58,-187.42 143.92,-187.42 147.25,-190.76 147.25,-194.09 147.25,-194.09 147.25,-200.76 147.25,-200.76 147.25,-204.09 143.92,-207.42 140.58,-207.42"/>
<text xml:space="preserve" text-anchor="middle" x="75.88" y="-193.92" font-family="Arial" font-size="10.00" fill="#c6c5fe">browser/main&#45;XEQ5LUQM.js</text>
</g>
<!-- browser/main&#45;XEQ5LUQM.js&#45;&gt;browser/chunk&#45;377BNX5O.js -->
<g id="edge16" class="edge">
<title>browser/main&#45;XEQ5LUQM.js&#45;&gt;browser/chunk&#45;377BNX5O.js</title>
<path fill="none" stroke="#757575" d="M124.92,-207.86C133.95,-210.31 143.23,-213.17 151.75,-216.42 181.15,-227.64 212.84,-244.76 234.5,-257.31"/>
<polygon fill="#757575" stroke="#757575" points="232.57,-260.24 242.97,-262.29 236.12,-254.21 232.57,-260.24"/>
</g>
<!-- browser/main&#45;XEQ5LUQM.js&#45;&gt;browser/chunk&#45;LZ36XO2U.js -->
<g id="edge18" class="edge">
<title>browser/main&#45;XEQ5LUQM.js&#45;&gt;browser/chunk&#45;LZ36XO2U.js</title>
<path fill="none" stroke="#757575" d="M137.99,-207.9C142.93,-210.21 147.61,-213.02 151.75,-216.42 180.61,-240.17 157.06,-271.09 187.75,-292.42 242.81,-330.69 430.69,-324.99 540.45,-317.92"/>
<polygon fill="#757575" stroke="#757575" points="540.54,-321.42 550.29,-317.26 540.08,-314.43 540.54,-321.42"/>
</g>
<!-- browser/main&#45;XEQ5LUQM.js&#45;&gt;browser/chunk&#45;N6ZNY7JI.js -->
<g id="edge19" class="edge">
<title>browser/main&#45;XEQ5LUQM.js&#45;&gt;browser/chunk&#45;N6ZNY7JI.js</title>
<path fill="none" stroke="#757575" d="M140.19,-207.81C144.43,-210.16 148.35,-213 151.75,-216.42 199.11,-264.19 136.84,-319.46 187.75,-363.42 240.99,-409.4 325.87,-407.63 382.77,-399.62"/>
<polygon fill="#757575" stroke="#757575" points="383.26,-403.08 392.62,-398.12 382.21,-396.16 383.26,-403.08"/>
</g>
<!-- browser/main&#45;XEQ5LUQM.js&#45;&gt;browser/chunk&#45;TDGYXMPY.js -->
<g id="edge22" class="edge">
<title>browser/main&#45;XEQ5LUQM.js&#45;&gt;browser/chunk&#45;TDGYXMPY.js</title>
<path fill="none" stroke="#757575" d="M80.64,-187.13C91.79,-158.31 127.68,-76.67 187.75,-42.42 259.35,-1.61 290.16,-29.98 372.5,-26.42 516.3,-20.21 569.79,34.3 696.25,-34.42 750.06,-63.67 783.57,-132.33 797.62,-166.85"/>
<polygon fill="#757575" stroke="#757575" points="794.19,-167.69 801.08,-175.73 800.71,-165.14 794.19,-167.69"/>
</g>
<!-- browser/main&#45;XEQ5LUQM.js&#45;&gt;browser/chunk&#45;WGR6XL5V.js -->
<g id="edge23" class="edge">
<title>browser/main&#45;XEQ5LUQM.js&#45;&gt;browser/chunk&#45;WGR6XL5V.js</title>
<path fill="none" stroke="#757575" d="M147.63,-191.57C207.5,-186.7 295.59,-179.73 372.5,-174.42 427.61,-170.62 489.6,-166.89 538.01,-164.11"/>
<polygon fill="#757575" stroke="#757575" points="538.08,-167.61 547.86,-163.54 537.68,-160.62 538.08,-167.61"/>
</g>
<!-- browser/main&#45;XEQ5LUQM.js&#45;&gt;browser/chunk&#45;BUNED6UB.js -->
<g id="edge17" class="edge">
<title>browser/main&#45;XEQ5LUQM.js&#45;&gt;browser/chunk&#45;BUNED6UB.js</title>
<path fill="none" stroke="#757575" d="M96.94,-187.08C129.25,-170.42 193.01,-137.55 230.86,-118.03"/>
<polygon fill="#757575" stroke="#757575" points="232.17,-121.29 239.46,-113.6 228.96,-115.07 232.17,-121.29"/>
</g>
<!-- browser/main&#45;XEQ5LUQM.js&#45;&gt;browser/chunk&#45;RGI54RP5.js -->
<g id="edge21" class="edge">
<title>browser/main&#45;XEQ5LUQM.js&#45;&gt;browser/chunk&#45;RGI54RP5.js</title>
<path fill="none" stroke="#757575" d="M83.42,-187.06C98.58,-164.03 138.62,-108.62 187.75,-83.42 241.24,-56 308.82,-46.91 360.87,-44.45"/>
<polygon fill="#757575" stroke="#757575" points="360.7,-47.96 370.56,-44.08 360.43,-40.97 360.7,-47.96"/>
</g>
<!-- browser/main&#45;XEQ5LUQM.js&#45;&gt;browser/chunk&#45;Q743YH5J.js -->
<g id="edge20" class="edge">
<title>browser/main&#45;XEQ5LUQM.js&#45;&gt;browser/chunk&#45;Q743YH5J.js</title>
<path fill="none" stroke="#757575" d="M147.73,-204.8C208.79,-211.15 296.94,-220.32 360.85,-226.97"/>
<polygon fill="#757575" stroke="#757575" points="360.27,-230.43 370.58,-227.98 361,-223.47 360.27,-230.43"/>
</g>
<!-- browser/polyfills&#45;B6TNHZQ6.js -->
<g id="node10" class="node">
<title>browser/polyfills&#45;B6TNHZQ6.js</title>
<path fill="none" stroke="#cfffac" d="M145.08,-245.42C145.08,-245.42 6.67,-245.42 6.67,-245.42 3.33,-245.42 0,-242.09 0,-238.76 0,-238.76 0,-232.09 0,-232.09 0,-228.76 3.33,-225.42 6.67,-225.42 6.67,-225.42 145.08,-225.42 145.08,-225.42 148.42,-225.42 151.75,-228.76 151.75,-232.09 151.75,-232.09 151.75,-238.76 151.75,-238.76 151.75,-242.09 148.42,-245.42 145.08,-245.42"/>
<text xml:space="preserve" text-anchor="middle" x="75.88" y="-231.92" font-family="Arial" font-size="10.00" fill="#cfffac">browser/polyfills&#45;B6TNHZQ6.js</text>
</g>
</g>
</svg>
