<?xml version="1.0" encoding="UTF-8" standalone="no"?>
<!DOCTYPE svg PUBLIC "-//W3C//DTD SVG 1.1//EN"
 "http://www.w3.org/Graphics/SVG/1.1/DTD/svg11.dtd">
<!-- Generated by graphviz version 13.0.1 (20250615.1724)
 -->
<!-- Title: G Pages: 1 -->
<svg width="929pt" height="520pt"
 viewBox="0.00 0.00 929.00 520.00" xmlns="http://www.w3.org/2000/svg" xmlns:xlink="http://www.w3.org/1999/xlink">
<g id="graph0" class="graph" transform="scale(1 1) rotate(0) translate(21.6 498.59)">
<title>G</title>
<polygon fill="#111111" stroke="none" points="-21.6,21.6 -21.6,-498.59 907.1,-498.59 907.1,21.6 -21.6,21.6"/>
<!-- browser/chunk&#45;7TADPWB4.js -->
<g id="node1" class="node">
<title>browser/chunk&#45;7TADPWB4.js</title>
<path fill="none" stroke="#c6c5fe" d="M331.71,-368.07C331.71,-368.07 198.54,-368.07 198.54,-368.07 195.21,-368.07 191.88,-364.74 191.88,-361.41 191.88,-361.41 191.88,-354.74 191.88,-354.74 191.88,-351.41 195.21,-348.07 198.54,-348.07 198.54,-348.07 331.71,-348.07 331.71,-348.07 335.04,-348.07 338.38,-351.41 338.38,-354.74 338.38,-354.74 338.38,-361.41 338.38,-361.41 338.38,-364.74 335.04,-368.07 331.71,-368.07"/>
<text xml:space="preserve" text-anchor="middle" x="265.12" y="-354.57" font-family="Arial" font-size="10.00" fill="#c6c5fe">browser/chunk&#45;7TADPWB4.js</text>
</g>
<!-- browser/chunk&#45;K6P7ECSJ.js -->
<g id="node2" class="node">
<title>browser/chunk&#45;K6P7ECSJ.js</title>
<path fill="none" stroke="#cfffac" d="M878.83,-254.07C878.83,-254.07 748.67,-254.07 748.67,-254.07 745.33,-254.07 742,-250.74 742,-247.41 742,-247.41 742,-240.74 742,-240.74 742,-237.41 745.33,-234.07 748.67,-234.07 748.67,-234.07 878.83,-234.07 878.83,-234.07 882.17,-234.07 885.5,-237.41 885.5,-240.74 885.5,-240.74 885.5,-247.41 885.5,-247.41 885.5,-250.74 882.17,-254.07 878.83,-254.07"/>
<text xml:space="preserve" text-anchor="middle" x="813.75" y="-240.57" font-family="Arial" font-size="10.00" fill="#cfffac">browser/chunk&#45;K6P7ECSJ.js</text>
</g>
<!-- browser/chunk&#45;7TADPWB4.js&#45;&gt;browser/chunk&#45;K6P7ECSJ.js -->
<g id="edge1" class="edge">
<title>browser/chunk&#45;7TADPWB4.js&#45;&gt;browser/chunk&#45;K6P7ECSJ.js</title>
<path fill="none" stroke="#757575" d="M338.85,-365.5C428.99,-371.7 585.43,-372.44 706,-320.07 739.33,-305.6 772.62,-279.6 792.95,-262.1"/>
<polygon fill="#757575" stroke="#757575" points="795.25,-264.73 800.44,-255.5 790.62,-259.48 795.25,-264.73"/>
</g>
<!-- browser/chunk&#45;LTMI7BDX.js -->
<g id="node3" class="node">
<title>browser/chunk&#45;LTMI7BDX.js</title>
<path fill="none" stroke="#c6c5fe" d="M697.08,-311.07C697.08,-311.07 569.17,-311.07 569.17,-311.07 565.83,-311.07 562.5,-307.74 562.5,-304.41 562.5,-304.41 562.5,-297.74 562.5,-297.74 562.5,-294.41 565.83,-291.07 569.17,-291.07 569.17,-291.07 697.08,-291.07 697.08,-291.07 700.42,-291.07 703.75,-294.41 703.75,-297.74 703.75,-297.74 703.75,-304.41 703.75,-304.41 703.75,-307.74 700.42,-311.07 697.08,-311.07"/>
<text xml:space="preserve" text-anchor="middle" x="633.12" y="-297.57" font-family="Arial" font-size="10.00" fill="#c6c5fe">browser/chunk&#45;LTMI7BDX.js</text>
</g>
<!-- browser/chunk&#45;7TADPWB4.js&#45;&gt;browser/chunk&#45;LTMI7BDX.js -->
<g id="edge2" class="edge">
<title>browser/chunk&#45;7TADPWB4.js&#45;&gt;browser/chunk&#45;LTMI7BDX.js</title>
<path fill="none" stroke="#757575" d="M338.74,-355.28C390.77,-352.32 462.32,-346.29 524.25,-334.07 547.43,-329.5 572.73,-321.91 592.99,-315.16"/>
<polygon fill="#757575" stroke="#757575" points="593.91,-318.54 602.25,-312 591.66,-311.91 593.91,-318.54"/>
</g>
<!-- browser/chunk&#45;LTMI7BDX.js&#45;&gt;browser/chunk&#45;K6P7ECSJ.js -->
<g id="edge10" class="edge">
<title>browser/chunk&#45;LTMI7BDX.js&#45;&gt;browser/chunk&#45;K6P7ECSJ.js</title>
<path fill="none" stroke="#757575" d="M666.89,-290.62C695.63,-281.45 737.64,-268.04 769.2,-257.97"/>
<polygon fill="#757575" stroke="#757575" points="769.99,-261.39 778.45,-255.02 767.86,-254.72 769.99,-261.39"/>
</g>
<!-- browser/chunk&#45;CNUOWXTV.js -->
<g id="node4" class="node">
<title>browser/chunk&#45;CNUOWXTV.js</title>
<path fill="none" stroke="#c6c5fe" d="M334.33,-235.07C334.33,-235.07 195.92,-235.07 195.92,-235.07 192.58,-235.07 189.25,-231.74 189.25,-228.41 189.25,-228.41 189.25,-221.74 189.25,-221.74 189.25,-218.41 192.58,-215.07 195.92,-215.07 195.92,-215.07 334.33,-215.07 334.33,-215.07 337.67,-215.07 341,-218.41 341,-221.74 341,-221.74 341,-228.41 341,-228.41 341,-231.74 337.67,-235.07 334.33,-235.07"/>
<text xml:space="preserve" text-anchor="middle" x="265.12" y="-221.57" font-family="Arial" font-size="10.00" fill="#c6c5fe">browser/chunk&#45;CNUOWXTV.js</text>
</g>
<!-- browser/chunk&#45;CNUOWXTV.js&#45;&gt;browser/chunk&#45;K6P7ECSJ.js -->
<g id="edge4" class="edge">
<title>browser/chunk&#45;CNUOWXTV.js&#45;&gt;browser/chunk&#45;K6P7ECSJ.js</title>
<path fill="none" stroke="#757575" d="M341.26,-223.77C392.77,-223.2 462.66,-223.05 524.25,-225.07 593.86,-227.36 672.76,-232.75 730.43,-237.21"/>
<polygon fill="#757575" stroke="#757575" points="729.93,-240.68 740.17,-237.97 730.47,-233.7 729.93,-240.68"/>
</g>
<!-- browser/chunk&#45;CNUOWXTV.js&#45;&gt;browser/chunk&#45;LTMI7BDX.js -->
<g id="edge5" class="edge">
<title>browser/chunk&#45;CNUOWXTV.js&#45;&gt;browser/chunk&#45;LTMI7BDX.js</title>
<path fill="none" stroke="#757575" d="M292.16,-235.51C314.38,-244.04 347.35,-255.85 377,-263.07 434.44,-277.07 500.48,-286.73 550.98,-292.81"/>
<polygon fill="#757575" stroke="#757575" points="550.32,-296.26 560.66,-293.96 551.14,-289.31 550.32,-296.26"/>
</g>
<!-- browser/chunk&#45;I4MAWO4D.js -->
<g id="node5" class="node">
<title>browser/chunk&#45;I4MAWO4D.js</title>
<path fill="none" stroke="#c6c5fe" d="M699.33,-102.07C699.33,-102.07 566.92,-102.07 566.92,-102.07 563.58,-102.07 560.25,-98.74 560.25,-95.41 560.25,-95.41 560.25,-88.74 560.25,-88.74 560.25,-85.41 563.58,-82.07 566.92,-82.07 566.92,-82.07 699.33,-82.07 699.33,-82.07 702.67,-82.07 706,-85.41 706,-88.74 706,-88.74 706,-95.41 706,-95.41 706,-98.74 702.67,-102.07 699.33,-102.07"/>
<text xml:space="preserve" text-anchor="middle" x="633.12" y="-88.57" font-family="Arial" font-size="10.00" fill="#c6c5fe">browser/chunk&#45;I4MAWO4D.js</text>
</g>
<!-- browser/chunk&#45;CNUOWXTV.js&#45;&gt;browser/chunk&#45;I4MAWO4D.js -->
<g id="edge3" class="edge">
<title>browser/chunk&#45;CNUOWXTV.js&#45;&gt;browser/chunk&#45;I4MAWO4D.js</title>
<path fill="none" stroke="#757575" d="M294.84,-214.64C359.84,-191.02 518.32,-133.43 592.54,-106.46"/>
<polygon fill="#757575" stroke="#757575" points="593.66,-109.77 601.86,-103.07 591.27,-103.19 593.66,-109.77"/>
</g>
<!-- browser/chunk&#45;O6XRDRJX.js -->
<g id="node6" class="node">
<title>browser/chunk&#45;O6XRDRJX.js</title>
<path fill="none" stroke="#c6c5fe" d="M517.58,-254.07C517.58,-254.07 383.67,-254.07 383.67,-254.07 380.33,-254.07 377,-250.74 377,-247.41 377,-247.41 377,-240.74 377,-240.74 377,-237.41 380.33,-234.07 383.67,-234.07 383.67,-234.07 517.58,-234.07 517.58,-234.07 520.92,-234.07 524.25,-237.41 524.25,-240.74 524.25,-240.74 524.25,-247.41 524.25,-247.41 524.25,-250.74 520.92,-254.07 517.58,-254.07"/>
<text xml:space="preserve" text-anchor="middle" x="450.62" y="-240.57" font-family="Arial" font-size="10.00" fill="#c6c5fe">browser/chunk&#45;O6XRDRJX.js</text>
</g>
<!-- browser/chunk&#45;CNUOWXTV.js&#45;&gt;browser/chunk&#45;O6XRDRJX.js -->
<g id="edge6" class="edge">
<title>browser/chunk&#45;CNUOWXTV.js&#45;&gt;browser/chunk&#45;O6XRDRJX.js</title>
<path fill="none" stroke="#757575" d="M341.29,-232.85C349.23,-233.68 357.34,-234.52 365.37,-235.35"/>
<polygon fill="#757575" stroke="#757575" points="364.84,-238.81 375.14,-236.36 365.56,-231.85 364.84,-238.81"/>
</g>
<!-- browser/chunk&#45;I4MAWO4D.js&#45;&gt;browser/chunk&#45;K6P7ECSJ.js -->
<g id="edge7" class="edge">
<title>browser/chunk&#45;I4MAWO4D.js&#45;&gt;browser/chunk&#45;K6P7ECSJ.js</title>
<path fill="none" stroke="#757575" d="M646.4,-102.52C676.63,-128.24 754.9,-194.85 792.29,-226.66"/>
<polygon fill="#757575" stroke="#757575" points="789.82,-229.16 799.7,-232.97 794.36,-223.82 789.82,-229.16"/>
</g>
<!-- browser/chunk&#45;O6XRDRJX.js&#45;&gt;browser/chunk&#45;K6P7ECSJ.js -->
<g id="edge14" class="edge">
<title>browser/chunk&#45;O6XRDRJX.js&#45;&gt;browser/chunk&#45;K6P7ECSJ.js</title>
<path fill="none" stroke="#757575" d="M524.7,-244.07C584.27,-244.07 668.37,-244.07 730.33,-244.07"/>
<polygon fill="#757575" stroke="#757575" points="730.11,-247.57 740.11,-244.07 730.11,-240.57 730.11,-247.57"/>
</g>
<!-- browser/chunk&#45;O6XRDRJX.js&#45;&gt;browser/chunk&#45;LTMI7BDX.js -->
<g id="edge15" class="edge">
<title>browser/chunk&#45;O6XRDRJX.js&#45;&gt;browser/chunk&#45;LTMI7BDX.js</title>
<path fill="none" stroke="#757575" d="M484.73,-254.53C513.77,-263.7 556.23,-277.1 588.12,-287.18"/>
<polygon fill="#757575" stroke="#757575" points="586.89,-290.46 597.48,-290.13 589,-283.78 586.89,-290.46"/>
</g>
<!-- browser/chunk&#45;KINVP5WL.js -->
<g id="node7" class="node">
<title>browser/chunk&#45;KINVP5WL.js</title>
<path fill="none" stroke="#c6c5fe" d="M516.08,-26.07C516.08,-26.07 385.17,-26.07 385.17,-26.07 381.83,-26.07 378.5,-22.74 378.5,-19.41 378.5,-19.41 378.5,-12.74 378.5,-12.74 378.5,-9.41 381.83,-6.07 385.17,-6.07 385.17,-6.07 516.08,-6.07 516.08,-6.07 519.42,-6.07 522.75,-9.41 522.75,-12.74 522.75,-12.74 522.75,-19.41 522.75,-19.41 522.75,-22.74 519.42,-26.07 516.08,-26.07"/>
<text xml:space="preserve" text-anchor="middle" x="450.62" y="-12.57" font-family="Arial" font-size="10.00" fill="#c6c5fe">browser/chunk&#45;KINVP5WL.js</text>
</g>
<!-- browser/chunk&#45;KINVP5WL.js&#45;&gt;browser/chunk&#45;K6P7ECSJ.js -->
<g id="edge9" class="edge">
<title>browser/chunk&#45;KINVP5WL.js&#45;&gt;browser/chunk&#45;K6P7ECSJ.js</title>
<path fill="none" stroke="#757575" d="M523.14,-17.5C577.71,-21.83 652.37,-35.06 706,-73.07 760.11,-111.42 792.6,-186.69 805.83,-223.21"/>
<polygon fill="#757575" stroke="#757575" points="802.36,-223.89 808.96,-232.18 808.97,-221.59 802.36,-223.89"/>
</g>
<!-- browser/chunk&#45;KINVP5WL.js&#45;&gt;browser/chunk&#45;I4MAWO4D.js -->
<g id="edge8" class="edge">
<title>browser/chunk&#45;KINVP5WL.js&#45;&gt;browser/chunk&#45;I4MAWO4D.js</title>
<path fill="none" stroke="#757575" d="M486.31,-26.52C498.44,-30.44 512.06,-35.14 524.25,-40.07 551.29,-51 581.09,-65.57 602.51,-76.51"/>
<polygon fill="#757575" stroke="#757575" points="600.75,-79.54 611.24,-81.01 603.96,-73.32 600.75,-79.54"/>
</g>
<!-- browser/chunk&#45;MSWQM3TB.js -->
<g id="node8" class="node">
<title>browser/chunk&#45;MSWQM3TB.js</title>
<path fill="none" stroke="#c6c5fe" d="M334.33,-64.07C334.33,-64.07 195.92,-64.07 195.92,-64.07 192.58,-64.07 189.25,-60.74 189.25,-57.41 189.25,-57.41 189.25,-50.74 189.25,-50.74 189.25,-47.41 192.58,-44.07 195.92,-44.07 195.92,-44.07 334.33,-44.07 334.33,-44.07 337.67,-44.07 341,-47.41 341,-50.74 341,-50.74 341,-57.41 341,-57.41 341,-60.74 337.67,-64.07 334.33,-64.07"/>
<text xml:space="preserve" text-anchor="middle" x="265.12" y="-50.57" font-family="Arial" font-size="10.00" fill="#c6c5fe">browser/chunk&#45;MSWQM3TB.js</text>
</g>
<!-- browser/chunk&#45;MSWQM3TB.js&#45;&gt;browser/chunk&#45;K6P7ECSJ.js -->
<g id="edge12" class="edge">
<title>browser/chunk&#45;MSWQM3TB.js&#45;&gt;browser/chunk&#45;K6P7ECSJ.js</title>
<path fill="none" stroke="#757575" d="M296.29,-64.56C388.5,-96.61 666.71,-193.31 771.89,-229.87"/>
<polygon fill="#757575" stroke="#757575" points="770.65,-233.14 781.25,-233.12 772.95,-226.53 770.65,-233.14"/>
</g>
<!-- browser/chunk&#45;MSWQM3TB.js&#45;&gt;browser/chunk&#45;I4MAWO4D.js -->
<g id="edge11" class="edge">
<title>browser/chunk&#45;MSWQM3TB.js&#45;&gt;browser/chunk&#45;I4MAWO4D.js</title>
<path fill="none" stroke="#757575" d="M341.31,-60.34C392.85,-64.81 462.75,-71.22 524.25,-78.07 532.19,-78.96 540.44,-79.93 548.7,-80.94"/>
<polygon fill="#757575" stroke="#757575" points="548.07,-84.39 558.42,-82.15 548.93,-77.44 548.07,-84.39"/>
</g>
<!-- browser/chunk&#45;MSWQM3TB.js&#45;&gt;browser/chunk&#45;KINVP5WL.js -->
<g id="edge13" class="edge">
<title>browser/chunk&#45;MSWQM3TB.js&#45;&gt;browser/chunk&#45;KINVP5WL.js</title>
<path fill="none" stroke="#757575" d="M316.75,-43.59C338.82,-39.02 364.88,-33.62 388.05,-28.82"/>
<polygon fill="#757575" stroke="#757575" points="388.6,-32.28 397.68,-26.83 387.18,-25.43 388.6,-32.28"/>
</g>
<!-- browser/chunk&#45;XQESUIEM.js -->
<g id="node9" class="node">
<title>browser/chunk&#45;XQESUIEM.js</title>
<path fill="none" stroke="#c6c5fe" d="M517.21,-444.07C517.21,-444.07 384.04,-444.07 384.04,-444.07 380.71,-444.07 377.38,-440.74 377.38,-437.41 377.38,-437.41 377.38,-430.74 377.38,-430.74 377.38,-427.41 380.71,-424.07 384.04,-424.07 384.04,-424.07 517.21,-424.07 517.21,-424.07 520.54,-424.07 523.88,-427.41 523.88,-430.74 523.88,-430.74 523.88,-437.41 523.88,-437.41 523.88,-440.74 520.54,-444.07 517.21,-444.07"/>
<text xml:space="preserve" text-anchor="middle" x="450.62" y="-430.57" font-family="Arial" font-size="10.00" fill="#c6c5fe">browser/chunk&#45;XQESUIEM.js</text>
</g>
<!-- browser/chunk&#45;XQESUIEM.js&#45;&gt;browser/chunk&#45;K6P7ECSJ.js -->
<g id="edge16" class="edge">
<title>browser/chunk&#45;XQESUIEM.js&#45;&gt;browser/chunk&#45;K6P7ECSJ.js</title>
<path fill="none" stroke="#757575" d="M524.32,-443.41C578.28,-446.7 651.62,-443.16 706,-410.07 761.49,-376.3 793.33,-301.52 806.13,-264.98"/>
<polygon fill="#757575" stroke="#757575" points="809.41,-266.2 809.26,-255.61 802.77,-263.98 809.41,-266.2"/>
</g>
<!-- browser/chunk&#45;XQESUIEM.js&#45;&gt;browser/chunk&#45;LTMI7BDX.js -->
<g id="edge17" class="edge">
<title>browser/chunk&#45;XQESUIEM.js&#45;&gt;browser/chunk&#45;LTMI7BDX.js</title>
<path fill="none" stroke="#757575" d="M465.79,-423.64C496.76,-400.81 570.78,-346.27 608.76,-318.29"/>
<polygon fill="#757575" stroke="#757575" points="610.83,-321.11 616.81,-312.36 606.68,-315.47 610.83,-321.11"/>
</g>
<!-- browser/main&#45;AFBVW7ET.js -->
<g id="node10" class="node">
<title>browser/main&#45;AFBVW7ET.js</title>
<path fill="none" stroke="#c6c5fe" d="M140.58,-273.07C140.58,-273.07 12.67,-273.07 12.67,-273.07 9.33,-273.07 6,-269.74 6,-266.41 6,-266.41 6,-259.74 6,-259.74 6,-256.41 9.33,-253.07 12.67,-253.07 12.67,-253.07 140.58,-253.07 140.58,-253.07 143.92,-253.07 147.25,-256.41 147.25,-259.74 147.25,-259.74 147.25,-266.41 147.25,-266.41 147.25,-269.74 143.92,-273.07 140.58,-273.07"/>
<text xml:space="preserve" text-anchor="middle" x="76.62" y="-259.57" font-family="Arial" font-size="10.00" fill="#c6c5fe">browser/main&#45;AFBVW7ET.js</text>
</g>
<!-- browser/main&#45;AFBVW7ET.js&#45;&gt;browser/chunk&#45;7TADPWB4.js -->
<g id="edge18" class="edge">
<title>browser/main&#45;AFBVW7ET.js&#45;&gt;browser/chunk&#45;7TADPWB4.js</title>
<path fill="none" stroke="#757575" d="M136.85,-273.45C142.66,-275.77 148.24,-278.6 153.25,-282.07 176.36,-298.08 166.67,-317.34 189.25,-334.07 194.12,-337.68 199.55,-340.76 205.2,-343.38"/>
<polygon fill="#757575" stroke="#757575" points="203.55,-346.49 214.13,-347.05 206.21,-340.01 203.55,-346.49"/>
</g>
<!-- browser/main&#45;AFBVW7ET.js&#45;&gt;browser/chunk&#45;K6P7ECSJ.js -->
<g id="edge21" class="edge">
<title>browser/main&#45;AFBVW7ET.js&#45;&gt;browser/chunk&#45;K6P7ECSJ.js</title>
<path fill="none" stroke="#757575" d="M141.51,-273.46C145.8,-275.81 149.79,-278.64 153.25,-282.07 198.01,-326.35 143.04,-376.32 189.25,-419.07 299.11,-520.7 374.68,-458 524.25,-453.07 605.16,-450.4 637.85,-484.76 706,-441.07 769.95,-400.08 798.45,-307.01 808.37,-265.15"/>
<polygon fill="#757575" stroke="#757575" points="811.74,-266.14 810.5,-255.62 804.91,-264.61 811.74,-266.14"/>
</g>
<!-- browser/main&#45;AFBVW7ET.js&#45;&gt;browser/chunk&#45;LTMI7BDX.js -->
<g id="edge23" class="edge">
<title>browser/main&#45;AFBVW7ET.js&#45;&gt;browser/chunk&#45;LTMI7BDX.js</title>
<path fill="none" stroke="#757575" d="M147.72,-270.33C208.34,-276.38 298.37,-284.83 377,-290.07 435.07,-293.94 500.67,-296.73 550.81,-298.54"/>
<polygon fill="#757575" stroke="#757575" points="550.6,-302.03 560.72,-298.89 550.85,-295.04 550.6,-302.03"/>
</g>
<!-- browser/main&#45;AFBVW7ET.js&#45;&gt;browser/chunk&#45;CNUOWXTV.js -->
<g id="edge19" class="edge">
<title>browser/main&#45;AFBVW7ET.js&#45;&gt;browser/chunk&#45;CNUOWXTV.js</title>
<path fill="none" stroke="#757575" d="M129.08,-252.59C151.61,-248 178.23,-242.57 201.86,-237.76"/>
<polygon fill="#757575" stroke="#757575" points="202.25,-241.25 211.35,-235.82 200.86,-234.39 202.25,-241.25"/>
</g>
<!-- browser/main&#45;AFBVW7ET.js&#45;&gt;browser/chunk&#45;I4MAWO4D.js -->
<g id="edge20" class="edge">
<title>browser/main&#45;AFBVW7ET.js&#45;&gt;browser/chunk&#45;I4MAWO4D.js</title>
<path fill="none" stroke="#757575" d="M96.77,-252.75C118.84,-240.98 156.3,-221.39 189.25,-206.07 271.34,-167.9 289.68,-150.98 377,-127.07 433.22,-111.67 498.36,-102.88 548.74,-97.96"/>
<polygon fill="#757575" stroke="#757575" points="548.77,-101.47 558.4,-97.05 548.12,-94.5 548.77,-101.47"/>
</g>
<!-- browser/main&#45;AFBVW7ET.js&#45;&gt;browser/chunk&#45;O6XRDRJX.js -->
<g id="edge25" class="edge">
<title>browser/main&#45;AFBVW7ET.js&#45;&gt;browser/chunk&#45;O6XRDRJX.js</title>
<path fill="none" stroke="#757575" d="M147.6,-259.5C209.47,-256.34 299.87,-251.72 365.64,-248.36"/>
<polygon fill="#757575" stroke="#757575" points="365.47,-251.87 375.28,-247.87 365.11,-244.88 365.47,-251.87"/>
</g>
<!-- browser/main&#45;AFBVW7ET.js&#45;&gt;browser/chunk&#45;KINVP5WL.js -->
<g id="edge22" class="edge">
<title>browser/main&#45;AFBVW7ET.js&#45;&gt;browser/chunk&#45;KINVP5WL.js</title>
<path fill="none" stroke="#757575" d="M79.05,-252.79C84.78,-215.79 109.82,-88.74 189.25,-35.07 246.96,3.92 329.2,2.95 385.73,-4.06"/>
<polygon fill="#757575" stroke="#757575" points="385.16,-7.52 395.53,-5.38 386.09,-0.58 385.16,-7.52"/>
</g>
<!-- browser/main&#45;AFBVW7ET.js&#45;&gt;browser/chunk&#45;MSWQM3TB.js -->
<g id="edge24" class="edge">
<title>browser/main&#45;AFBVW7ET.js&#45;&gt;browser/chunk&#45;MSWQM3TB.js</title>
<path fill="none" stroke="#757575" d="M80.86,-252.93C91.26,-221.9 126.87,-127.4 189.25,-78.07 193.75,-74.51 198.8,-71.47 204.08,-68.88"/>
<polygon fill="#757575" stroke="#757575" points="205.26,-72.18 213.07,-65.03 202.5,-65.75 205.26,-72.18"/>
</g>
<!-- browser/main&#45;AFBVW7ET.js&#45;&gt;browser/chunk&#45;XQESUIEM.js -->
<g id="edge26" class="edge">
<title>browser/main&#45;AFBVW7ET.js&#45;&gt;browser/chunk&#45;XQESUIEM.js</title>
<path fill="none" stroke="#757575" d="M140.39,-273.5C145.04,-275.83 149.41,-278.65 153.25,-282.07 186.98,-312.09 155.07,-347.57 189.25,-377.07 237.67,-418.86 309.71,-432.14 365.75,-435.52"/>
<polygon fill="#757575" stroke="#757575" points="365.42,-439 375.58,-436 365.77,-432.01 365.42,-439"/>
</g>
<!-- browser/polyfills&#45;5CFQRCPP.js -->
<g id="node11" class="node">
<title>browser/polyfills&#45;5CFQRCPP.js</title>
<path fill="none" stroke="#cfffac" d="M146.58,-311.07C146.58,-311.07 6.67,-311.07 6.67,-311.07 3.33,-311.07 0,-307.74 0,-304.41 0,-304.41 0,-297.74 0,-297.74 0,-294.41 3.33,-291.07 6.67,-291.07 6.67,-291.07 146.58,-291.07 146.58,-291.07 149.92,-291.07 153.25,-294.41 153.25,-297.74 153.25,-297.74 153.25,-304.41 153.25,-304.41 153.25,-307.74 149.92,-311.07 146.58,-311.07"/>
<text xml:space="preserve" text-anchor="middle" x="76.62" y="-297.57" font-family="Arial" font-size="10.00" fill="#cfffac">browser/polyfills&#45;5CFQRCPP.js</text>
</g>
</g>
</svg>
