<?xml version="1.0" encoding="UTF-8" standalone="no"?>
<!DOCTYPE svg PUBLIC "-//W3C//DTD SVG 1.1//EN"
 "http://www.w3.org/Graphics/SVG/1.1/DTD/svg11.dtd">
<!-- Generated by graphviz version 13.0.1 (20250615.1724)
 -->
<!-- Title: G Pages: 1 -->
<svg width="917pt" height="420pt"
 viewBox="0.00 0.00 917.00 420.00" xmlns="http://www.w3.org/2000/svg" xmlns:xlink="http://www.w3.org/1999/xlink">
<g id="graph0" class="graph" transform="scale(1 1) rotate(0) translate(21.6 398.25)">
<title>G</title>
<polygon fill="#111111" stroke="none" points="-21.6,21.6 -21.6,-398.25 895.1,-398.25 895.1,21.6 -21.6,21.6"/>
<!-- browser/chunk&#45;7JYHOEPN.js -->
<g id="node1" class="node">
<title>browser/chunk&#45;7JYHOEPN.js</title>
<path fill="none" stroke="#c6c5fe" d="M694.08,-284.18C694.08,-284.18 560.92,-284.18 560.92,-284.18 557.58,-284.18 554.25,-280.85 554.25,-277.52 554.25,-277.52 554.25,-270.85 554.25,-270.85 554.25,-267.52 557.58,-264.18 560.92,-264.18 560.92,-264.18 694.08,-264.18 694.08,-264.18 697.42,-264.18 700.75,-267.52 700.75,-270.85 700.75,-270.85 700.75,-277.52 700.75,-277.52 700.75,-280.85 697.42,-284.18 694.08,-284.18"/>
<text xml:space="preserve" text-anchor="middle" x="627.5" y="-270.68" font-family="Arial" font-size="10.00" fill="#c6c5fe">browser/chunk&#45;7JYHOEPN.js</text>
</g>
<!-- browser/chunk&#45;OIITBX77.js -->
<g id="node2" class="node">
<title>browser/chunk&#45;OIITBX77.js</title>
<path fill="none" stroke="#cfffac" d="M866.83,-189.18C866.83,-189.18 743.42,-189.18 743.42,-189.18 740.08,-189.18 736.75,-185.85 736.75,-182.52 736.75,-182.52 736.75,-175.85 736.75,-175.85 736.75,-172.52 740.08,-169.18 743.42,-169.18 743.42,-169.18 866.83,-169.18 866.83,-169.18 870.17,-169.18 873.5,-172.52 873.5,-175.85 873.5,-175.85 873.5,-182.52 873.5,-182.52 873.5,-185.85 870.17,-189.18 866.83,-189.18"/>
<text xml:space="preserve" text-anchor="middle" x="805.12" y="-175.68" font-family="Arial" font-size="10.00" fill="#cfffac">browser/chunk&#45;OIITBX77.js</text>
</g>
<!-- browser/chunk&#45;7JYHOEPN.js&#45;&gt;browser/chunk&#45;OIITBX77.js -->
<g id="edge1" class="edge">
<title>browser/chunk&#45;7JYHOEPN.js&#45;&gt;browser/chunk&#45;OIITBX77.js</title>
<path fill="none" stroke="#757575" d="M647.63,-263.84C678.3,-247.25 738.68,-214.59 774.81,-195.04"/>
<polygon fill="#757575" stroke="#757575" points="776.29,-198.22 783.42,-190.38 772.96,-192.06 776.29,-198.22"/>
</g>
<!-- browser/chunk&#45;IXEJWSMB.js -->
<g id="node3" class="node">
<title>browser/chunk&#45;IXEJWSMB.js</title>
<path fill="none" stroke="#c6c5fe" d="M511.21,-208.18C511.21,-208.18 378.04,-208.18 378.04,-208.18 374.71,-208.18 371.38,-204.85 371.38,-201.52 371.38,-201.52 371.38,-194.85 371.38,-194.85 371.38,-191.52 374.71,-188.18 378.04,-188.18 378.04,-188.18 511.21,-188.18 511.21,-188.18 514.54,-188.18 517.88,-191.52 517.88,-194.85 517.88,-194.85 517.88,-201.52 517.88,-201.52 517.88,-204.85 514.54,-208.18 511.21,-208.18"/>
<text xml:space="preserve" text-anchor="middle" x="444.62" y="-194.68" font-family="Arial" font-size="10.00" fill="#c6c5fe">browser/chunk&#45;IXEJWSMB.js</text>
</g>
<!-- browser/chunk&#45;IXEJWSMB.js&#45;&gt;browser/chunk&#45;OIITBX77.js -->
<g id="edge3" class="edge">
<title>browser/chunk&#45;IXEJWSMB.js&#45;&gt;browser/chunk&#45;OIITBX77.js</title>
<path fill="none" stroke="#757575" d="M518.17,-194.34C578.27,-191.15 663.52,-186.64 725.29,-183.36"/>
<polygon fill="#757575" stroke="#757575" points="725.22,-186.87 735.02,-182.85 724.85,-179.88 725.22,-186.87"/>
</g>
<!-- browser/chunk&#45;KYQOSY4V.js -->
<g id="node4" class="node">
<title>browser/chunk&#45;KYQOSY4V.js</title>
<path fill="none" stroke="#c6c5fe" d="M694.08,-132.18C694.08,-132.18 560.92,-132.18 560.92,-132.18 557.58,-132.18 554.25,-128.85 554.25,-125.52 554.25,-125.52 554.25,-118.85 554.25,-118.85 554.25,-115.52 557.58,-112.18 560.92,-112.18 560.92,-112.18 694.08,-112.18 694.08,-112.18 697.42,-112.18 700.75,-115.52 700.75,-118.85 700.75,-118.85 700.75,-125.52 700.75,-125.52 700.75,-128.85 697.42,-132.18 694.08,-132.18"/>
<text xml:space="preserve" text-anchor="middle" x="627.5" y="-118.68" font-family="Arial" font-size="10.00" fill="#c6c5fe">browser/chunk&#45;KYQOSY4V.js</text>
</g>
<!-- browser/chunk&#45;IXEJWSMB.js&#45;&gt;browser/chunk&#45;KYQOSY4V.js -->
<g id="edge2" class="edge">
<title>browser/chunk&#45;IXEJWSMB.js&#45;&gt;browser/chunk&#45;KYQOSY4V.js</title>
<path fill="none" stroke="#757575" d="M470.4,-187.78C501.7,-174.62 555.77,-151.9 591.34,-136.96"/>
<polygon fill="#757575" stroke="#757575" points="592.48,-140.28 600.34,-133.17 589.77,-133.82 592.48,-140.28"/>
</g>
<!-- browser/chunk&#45;KYQOSY4V.js&#45;&gt;browser/chunk&#45;OIITBX77.js -->
<g id="edge7" class="edge">
<title>browser/chunk&#45;KYQOSY4V.js&#45;&gt;browser/chunk&#45;OIITBX77.js</title>
<path fill="none" stroke="#757575" d="M660.71,-132.64C688.85,-141.77 729.92,-155.1 760.9,-165.16"/>
<polygon fill="#757575" stroke="#757575" points="759.79,-168.47 770.38,-168.23 761.95,-161.82 759.79,-168.47"/>
</g>
<!-- browser/chunk&#45;KOQGIAAW.js -->
<g id="node5" class="node">
<title>browser/chunk&#45;KOQGIAAW.js</title>
<path fill="none" stroke="#c6c5fe" d="M328.33,-360.18C328.33,-360.18 194.42,-360.18 194.42,-360.18 191.08,-360.18 187.75,-356.85 187.75,-353.52 187.75,-353.52 187.75,-346.85 187.75,-346.85 187.75,-343.52 191.08,-340.18 194.42,-340.18 194.42,-340.18 328.33,-340.18 328.33,-340.18 331.67,-340.18 335,-343.52 335,-346.85 335,-346.85 335,-353.52 335,-353.52 335,-356.85 331.67,-360.18 328.33,-360.18"/>
<text xml:space="preserve" text-anchor="middle" x="261.38" y="-346.68" font-family="Arial" font-size="10.00" fill="#c6c5fe">browser/chunk&#45;KOQGIAAW.js</text>
</g>
<!-- browser/chunk&#45;KOQGIAAW.js&#45;&gt;browser/chunk&#45;7JYHOEPN.js -->
<g id="edge4" class="edge">
<title>browser/chunk&#45;KOQGIAAW.js&#45;&gt;browser/chunk&#45;7JYHOEPN.js</title>
<path fill="none" stroke="#757575" d="M335.45,-352.61C387.4,-352.45 458.31,-348.38 518.25,-331.18 548.95,-322.38 580.94,-304.25 602.11,-290.79"/>
<polygon fill="#757575" stroke="#757575" points="603.84,-293.83 610.31,-285.44 600.02,-287.97 603.84,-293.83"/>
</g>
<!-- browser/chunk&#45;KOQGIAAW.js&#45;&gt;browser/chunk&#45;OIITBX77.js -->
<g id="edge6" class="edge">
<title>browser/chunk&#45;KOQGIAAW.js&#45;&gt;browser/chunk&#45;OIITBX77.js</title>
<path fill="none" stroke="#757575" d="M309.31,-360.62C394.64,-376.86 577.7,-398.82 700.75,-321.18 748.07,-291.33 780.66,-231.33 795.33,-199.73"/>
<polygon fill="#757575" stroke="#757575" points="798.41,-201.42 799.3,-190.86 792.02,-198.56 798.41,-201.42"/>
</g>
<!-- browser/chunk&#45;NQ2RABRJ.js -->
<g id="node6" class="node">
<title>browser/chunk&#45;NQ2RABRJ.js</title>
<path fill="none" stroke="#c6c5fe" d="M511.58,-322.18C511.58,-322.18 377.67,-322.18 377.67,-322.18 374.33,-322.18 371,-318.85 371,-315.52 371,-315.52 371,-308.85 371,-308.85 371,-305.52 374.33,-302.18 377.67,-302.18 377.67,-302.18 511.58,-302.18 511.58,-302.18 514.92,-302.18 518.25,-305.52 518.25,-308.85 518.25,-308.85 518.25,-315.52 518.25,-315.52 518.25,-318.85 514.92,-322.18 511.58,-322.18"/>
<text xml:space="preserve" text-anchor="middle" x="444.62" y="-308.68" font-family="Arial" font-size="10.00" fill="#c6c5fe">browser/chunk&#45;NQ2RABRJ.js</text>
</g>
<!-- browser/chunk&#45;KOQGIAAW.js&#45;&gt;browser/chunk&#45;NQ2RABRJ.js -->
<g id="edge5" class="edge">
<title>browser/chunk&#45;KOQGIAAW.js&#45;&gt;browser/chunk&#45;NQ2RABRJ.js</title>
<path fill="none" stroke="#757575" d="M312.38,-339.7C334.17,-335.13 359.92,-329.73 382.8,-324.94"/>
<polygon fill="#757575" stroke="#757575" points="383.23,-328.42 392.3,-322.95 381.79,-321.57 383.23,-328.42"/>
</g>
<!-- browser/chunk&#45;NQ2RABRJ.js&#45;&gt;browser/chunk&#45;7JYHOEPN.js -->
<g id="edge12" class="edge">
<title>browser/chunk&#45;NQ2RABRJ.js&#45;&gt;browser/chunk&#45;7JYHOEPN.js</title>
<path fill="none" stroke="#757575" d="M495.53,-301.7C517.18,-297.15 542.73,-291.78 565.49,-287"/>
<polygon fill="#757575" stroke="#757575" points="566.21,-290.43 575.28,-284.95 564.77,-283.58 566.21,-290.43"/>
</g>
<!-- browser/chunk&#45;NQ2RABRJ.js&#45;&gt;browser/chunk&#45;OIITBX77.js -->
<g id="edge13" class="edge">
<title>browser/chunk&#45;NQ2RABRJ.js&#45;&gt;browser/chunk&#45;OIITBX77.js</title>
<path fill="none" stroke="#757575" d="M518.63,-320.7C571.78,-323.68 644.08,-320.86 700.75,-293.18 743.16,-272.47 776.27,-226.06 792.71,-199.28"/>
<polygon fill="#757575" stroke="#757575" points="795.68,-201.13 797.77,-190.75 789.66,-197.56 795.68,-201.13"/>
</g>
<!-- browser/chunk&#45;LRC2HRD4.js -->
<g id="node7" class="node">
<title>browser/chunk&#45;LRC2HRD4.js</title>
<path fill="none" stroke="#c6c5fe" d="M327.96,-170.18C327.96,-170.18 194.79,-170.18 194.79,-170.18 191.46,-170.18 188.12,-166.85 188.12,-163.52 188.12,-163.52 188.12,-156.85 188.12,-156.85 188.12,-153.52 191.46,-150.18 194.79,-150.18 194.79,-150.18 327.96,-150.18 327.96,-150.18 331.29,-150.18 334.62,-153.52 334.62,-156.85 334.62,-156.85 334.62,-163.52 334.62,-163.52 334.62,-166.85 331.29,-170.18 327.96,-170.18"/>
<text xml:space="preserve" text-anchor="middle" x="261.38" y="-156.68" font-family="Arial" font-size="10.00" fill="#c6c5fe">browser/chunk&#45;LRC2HRD4.js</text>
</g>
<!-- browser/chunk&#45;LRC2HRD4.js&#45;&gt;browser/chunk&#45;7JYHOEPN.js -->
<g id="edge8" class="edge">
<title>browser/chunk&#45;LRC2HRD4.js&#45;&gt;browser/chunk&#45;7JYHOEPN.js</title>
<path fill="none" stroke="#757575" d="M278.68,-170.5C299.39,-183.18 336.61,-204.58 371,-217.18 427.63,-237.94 494.21,-252.5 545.2,-261.7"/>
<polygon fill="#757575" stroke="#757575" points="544.55,-265.14 555.01,-263.44 545.77,-258.25 544.55,-265.14"/>
</g>
<!-- browser/chunk&#45;LRC2HRD4.js&#45;&gt;browser/chunk&#45;OIITBX77.js -->
<g id="edge10" class="edge">
<title>browser/chunk&#45;LRC2HRD4.js&#45;&gt;browser/chunk&#45;OIITBX77.js</title>
<path fill="none" stroke="#757575" d="M334.88,-162.73C436.31,-166.28 619.9,-172.72 724.86,-176.4"/>
<polygon fill="#757575" stroke="#757575" points="724.69,-179.9 734.81,-176.75 724.93,-172.9 724.69,-179.9"/>
</g>
<!-- browser/chunk&#45;LRC2HRD4.js&#45;&gt;browser/chunk&#45;KYQOSY4V.js -->
<g id="edge9" class="edge">
<title>browser/chunk&#45;LRC2HRD4.js&#45;&gt;browser/chunk&#45;KYQOSY4V.js</title>
<path fill="none" stroke="#757575" d="M335.08,-150.46C347.07,-148.96 359.38,-147.48 371,-146.18 428.2,-139.81 492.74,-133.76 542.64,-129.33"/>
<polygon fill="#757575" stroke="#757575" points="542.86,-132.82 552.51,-128.45 542.24,-125.85 542.86,-132.82"/>
</g>
<!-- browser/chunk&#45;PU2QSO3Z.js -->
<g id="node8" class="node">
<title>browser/chunk&#45;PU2QSO3Z.js</title>
<path fill="none" stroke="#c6c5fe" d="M510.83,-56.18C510.83,-56.18 378.42,-56.18 378.42,-56.18 375.08,-56.18 371.75,-52.85 371.75,-49.52 371.75,-49.52 371.75,-42.85 371.75,-42.85 371.75,-39.52 375.08,-36.18 378.42,-36.18 378.42,-36.18 510.83,-36.18 510.83,-36.18 514.17,-36.18 517.5,-39.52 517.5,-42.85 517.5,-42.85 517.5,-49.52 517.5,-49.52 517.5,-52.85 514.17,-56.18 510.83,-56.18"/>
<text xml:space="preserve" text-anchor="middle" x="444.62" y="-42.68" font-family="Arial" font-size="10.00" fill="#c6c5fe">browser/chunk&#45;PU2QSO3Z.js</text>
</g>
<!-- browser/chunk&#45;LRC2HRD4.js&#45;&gt;browser/chunk&#45;PU2QSO3Z.js -->
<g id="edge11" class="edge">
<title>browser/chunk&#45;LRC2HRD4.js&#45;&gt;browser/chunk&#45;PU2QSO3Z.js</title>
<path fill="none" stroke="#757575" d="M278.78,-149.87C310.38,-129.99 379.9,-86.27 417.78,-62.44"/>
<polygon fill="#757575" stroke="#757575" points="419.24,-65.65 425.85,-57.37 415.52,-59.73 419.24,-65.65"/>
</g>
<!-- browser/chunk&#45;PU2QSO3Z.js&#45;&gt;browser/chunk&#45;OIITBX77.js -->
<g id="edge15" class="edge">
<title>browser/chunk&#45;PU2QSO3Z.js&#45;&gt;browser/chunk&#45;OIITBX77.js</title>
<path fill="none" stroke="#757575" d="M518,-54.24C570.51,-61.99 642.29,-76.6 700.75,-103.18 733.13,-117.91 765.34,-143.84 785,-161.27"/>
<polygon fill="#757575" stroke="#757575" points="782.46,-163.69 792.22,-167.81 787.16,-158.5 782.46,-163.69"/>
</g>
<!-- browser/chunk&#45;PU2QSO3Z.js&#45;&gt;browser/chunk&#45;KYQOSY4V.js -->
<g id="edge14" class="edge">
<title>browser/chunk&#45;PU2QSO3Z.js&#45;&gt;browser/chunk&#45;KYQOSY4V.js</title>
<path fill="none" stroke="#757575" d="M480.31,-56.64C492.44,-60.56 506.06,-65.27 518.25,-70.18 545.38,-81.13 575.28,-95.7 596.77,-106.63"/>
<polygon fill="#757575" stroke="#757575" points="595.05,-109.68 605.55,-111.13 598.25,-103.45 595.05,-109.68"/>
</g>
<!-- browser/main&#45;IH4EUFWX.js -->
<g id="node9" class="node">
<title>browser/main&#45;IH4EUFWX.js</title>
<path fill="none" stroke="#c6c5fe" d="M139.46,-189.18C139.46,-189.18 12.29,-189.18 12.29,-189.18 8.96,-189.18 5.62,-185.85 5.62,-182.52 5.62,-182.52 5.62,-175.85 5.62,-175.85 5.62,-172.52 8.96,-169.18 12.29,-169.18 12.29,-169.18 139.46,-169.18 139.46,-169.18 142.79,-169.18 146.12,-172.52 146.12,-175.85 146.12,-175.85 146.12,-182.52 146.12,-182.52 146.12,-185.85 142.79,-189.18 139.46,-189.18"/>
<text xml:space="preserve" text-anchor="middle" x="75.88" y="-175.68" font-family="Arial" font-size="10.00" fill="#c6c5fe">browser/main&#45;IH4EUFWX.js</text>
</g>
<!-- browser/main&#45;IH4EUFWX.js&#45;&gt;browser/chunk&#45;7JYHOEPN.js -->
<g id="edge16" class="edge">
<title>browser/main&#45;IH4EUFWX.js&#45;&gt;browser/chunk&#45;7JYHOEPN.js</title>
<path fill="none" stroke="#757575" d="M118.76,-189.65C193.92,-208.37 346.19,-246.05 371,-250.18 427.87,-259.67 492.54,-265.7 542.59,-269.34"/>
<polygon fill="#757575" stroke="#757575" points="542.28,-272.83 552.5,-270.04 542.77,-265.85 542.28,-272.83"/>
</g>
<!-- browser/main&#45;IH4EUFWX.js&#45;&gt;browser/chunk&#45;OIITBX77.js -->
<g id="edge22" class="edge">
<title>browser/main&#45;IH4EUFWX.js&#45;&gt;browser/chunk&#45;OIITBX77.js</title>
<path fill="none" stroke="#757575" d="M81.17,-168.77C93.18,-141.18 130.08,-66.22 187.75,-36.18 318.08,31.69 371.79,-15.23 518.25,-27.18 600.18,-33.87 629.23,-16.67 700.75,-57.18 743.83,-81.59 777.05,-131.19 793.25,-159.05"/>
<polygon fill="#757575" stroke="#757575" points="790.08,-160.56 798.04,-167.56 796.18,-157.13 790.08,-160.56"/>
</g>
<!-- browser/main&#45;IH4EUFWX.js&#45;&gt;browser/chunk&#45;IXEJWSMB.js -->
<g id="edge17" class="edge">
<title>browser/main&#45;IH4EUFWX.js&#45;&gt;browser/chunk&#45;IXEJWSMB.js</title>
<path fill="none" stroke="#757575" d="M146.29,-182.78C206.92,-185.92 295.09,-190.49 359.68,-193.84"/>
<polygon fill="#757575" stroke="#757575" points="359.36,-197.32 369.53,-194.35 359.73,-190.33 359.36,-197.32"/>
</g>
<!-- browser/main&#45;IH4EUFWX.js&#45;&gt;browser/chunk&#45;KYQOSY4V.js -->
<g id="edge19" class="edge">
<title>browser/main&#45;IH4EUFWX.js&#45;&gt;browser/chunk&#45;KYQOSY4V.js</title>
<path fill="none" stroke="#757575" d="M101.46,-168.69C123.6,-159.75 157.24,-147.38 187.75,-141.18 309.25,-116.49 453.44,-115.5 542.46,-118.07"/>
<polygon fill="#757575" stroke="#757575" points="542.22,-121.56 552.33,-118.38 542.44,-114.57 542.22,-121.56"/>
</g>
<!-- browser/main&#45;IH4EUFWX.js&#45;&gt;browser/chunk&#45;KOQGIAAW.js -->
<g id="edge18" class="edge">
<title>browser/main&#45;IH4EUFWX.js&#45;&gt;browser/chunk&#45;KOQGIAAW.js</title>
<path fill="none" stroke="#757575" d="M139.71,-189.5C144.11,-191.86 148.2,-194.72 151.75,-198.18 194.07,-239.43 146.91,-283.47 187.75,-326.18 190.81,-329.39 194.31,-332.16 198.07,-334.57"/>
<polygon fill="#757575" stroke="#757575" points="196.09,-337.48 206.56,-339.1 199.39,-331.3 196.09,-337.48"/>
</g>
<!-- browser/main&#45;IH4EUFWX.js&#45;&gt;browser/chunk&#45;NQ2RABRJ.js -->
<g id="edge21" class="edge">
<title>browser/main&#45;IH4EUFWX.js&#45;&gt;browser/chunk&#45;NQ2RABRJ.js</title>
<path fill="none" stroke="#757575" d="M138.59,-189.57C143.34,-191.9 147.82,-194.74 151.75,-198.18 184.16,-226.57 153.24,-262.39 187.75,-288.18 241.16,-328.11 319.42,-329.6 375.31,-323.92"/>
<polygon fill="#757575" stroke="#757575" points="375.47,-327.42 385.02,-322.82 374.69,-320.47 375.47,-327.42"/>
</g>
<!-- browser/main&#45;IH4EUFWX.js&#45;&gt;browser/chunk&#45;LRC2HRD4.js -->
<g id="edge20" class="edge">
<title>browser/main&#45;IH4EUFWX.js&#45;&gt;browser/chunk&#45;LRC2HRD4.js</title>
<path fill="none" stroke="#757575" d="M146.51,-171.97C156.31,-170.96 166.46,-169.91 176.49,-168.87"/>
<polygon fill="#757575" stroke="#757575" points="176.64,-172.37 186.23,-167.86 175.92,-165.41 176.64,-172.37"/>
</g>
<!-- browser/main&#45;IH4EUFWX.js&#45;&gt;browser/chunk&#45;PU2QSO3Z.js -->
<g id="edge23" class="edge">
<title>browser/main&#45;IH4EUFWX.js&#45;&gt;browser/chunk&#45;PU2QSO3Z.js</title>
<path fill="none" stroke="#757575" d="M83.67,-168.75C99.06,-146.13 139.04,-92.83 187.75,-70.18 241.35,-45.26 308,-39.71 359.84,-40.15"/>
<polygon fill="#757575" stroke="#757575" points="359.76,-43.65 369.82,-40.32 359.88,-36.65 359.76,-43.65"/>
</g>
<!-- browser/polyfills&#45;B6TNHZQ6.js -->
<g id="node10" class="node">
<title>browser/polyfills&#45;B6TNHZQ6.js</title>
<path fill="none" stroke="#cfffac" d="M145.08,-227.18C145.08,-227.18 6.67,-227.18 6.67,-227.18 3.33,-227.18 0,-223.85 0,-220.52 0,-220.52 0,-213.85 0,-213.85 0,-210.52 3.33,-207.18 6.67,-207.18 6.67,-207.18 145.08,-207.18 145.08,-207.18 148.42,-207.18 151.75,-210.52 151.75,-213.85 151.75,-213.85 151.75,-220.52 151.75,-220.52 151.75,-223.85 148.42,-227.18 145.08,-227.18"/>
<text xml:space="preserve" text-anchor="middle" x="75.88" y="-213.68" font-family="Arial" font-size="10.00" fill="#cfffac">browser/polyfills&#45;B6TNHZQ6.js</text>
</g>
</g>
</svg>
