<?xml version="1.0" encoding="UTF-8" standalone="no"?>
<!DOCTYPE svg PUBLIC "-//W3C//DTD SVG 1.1//EN"
 "http://www.w3.org/Graphics/SVG/1.1/DTD/svg11.dtd">
<!-- Generated by graphviz version 13.0.1 (20250615.1724)
 -->
<!-- Title: G Pages: 1 -->
<svg width="923pt" height="376pt"
 viewBox="0.00 0.00 923.00 376.00" xmlns="http://www.w3.org/2000/svg" xmlns:xlink="http://www.w3.org/1999/xlink">
<g id="graph0" class="graph" transform="scale(1 1) rotate(0) translate(21.6 354.59)">
<title>G</title>
<polygon fill="#111111" stroke="none" points="-21.6,21.6 -21.6,-354.59 901.1,-354.59 901.1,21.6 -21.6,21.6"/>
<!-- browser/chunk&#45;3MPSB56Z.js -->
<g id="node1" class="node">
<title>browser/chunk&#45;3MPSB56Z.js</title>
<path fill="none" stroke="#c6c5fe" d="M324.58,-256.99C324.58,-256.99 194.42,-256.99 194.42,-256.99 191.08,-256.99 187.75,-253.66 187.75,-250.33 187.75,-250.33 187.75,-243.66 187.75,-243.66 187.75,-240.33 191.08,-236.99 194.42,-236.99 194.42,-236.99 324.58,-236.99 324.58,-236.99 327.92,-236.99 331.25,-240.33 331.25,-243.66 331.25,-243.66 331.25,-250.33 331.25,-250.33 331.25,-253.66 327.92,-256.99 324.58,-256.99"/>
<text xml:space="preserve" text-anchor="middle" x="259.5" y="-243.49" font-family="Arial" font-size="10.00" fill="#c6c5fe">browser/chunk&#45;3MPSB56Z.js</text>
</g>
<!-- browser/chunk&#45;KOEO64O2.js -->
<g id="node2" class="node">
<title>browser/chunk&#45;KOEO64O2.js</title>
<path fill="none" stroke="#cfffac" d="M872.83,-161.99C872.83,-161.99 741.17,-161.99 741.17,-161.99 737.83,-161.99 734.5,-158.66 734.5,-155.33 734.5,-155.33 734.5,-148.66 734.5,-148.66 734.5,-145.33 737.83,-141.99 741.17,-141.99 741.17,-141.99 872.83,-141.99 872.83,-141.99 876.17,-141.99 879.5,-145.33 879.5,-148.66 879.5,-148.66 879.5,-155.33 879.5,-155.33 879.5,-158.66 876.17,-161.99 872.83,-161.99"/>
<text xml:space="preserve" text-anchor="middle" x="807" y="-148.49" font-family="Arial" font-size="10.00" fill="#cfffac">browser/chunk&#45;KOEO64O2.js</text>
</g>
<!-- browser/chunk&#45;3MPSB56Z.js&#45;&gt;browser/chunk&#45;KOEO64O2.js -->
<g id="edge1" class="edge">
<title>browser/chunk&#45;3MPSB56Z.js&#45;&gt;browser/chunk&#45;KOEO64O2.js</title>
<path fill="none" stroke="#757575" d="M331.71,-256.79C420.56,-266.15 575.76,-272.97 698.5,-227.99 733.3,-215.24 767.15,-188.15 787.29,-170"/>
<polygon fill="#757575" stroke="#757575" points="789.45,-172.77 794.42,-163.4 784.7,-167.63 789.45,-172.77"/>
</g>
<!-- browser/chunk&#45;OIHGBNSC.js -->
<g id="node3" class="node">
<title>browser/chunk&#45;OIHGBNSC.js</title>
<path fill="none" stroke="#c6c5fe" d="M691.83,-218.99C691.83,-218.99 557.92,-218.99 557.92,-218.99 554.58,-218.99 551.25,-215.66 551.25,-212.33 551.25,-212.33 551.25,-205.66 551.25,-205.66 551.25,-202.33 554.58,-198.99 557.92,-198.99 557.92,-198.99 691.83,-198.99 691.83,-198.99 695.17,-198.99 698.5,-202.33 698.5,-205.66 698.5,-205.66 698.5,-212.33 698.5,-212.33 698.5,-215.66 695.17,-218.99 691.83,-218.99"/>
<text xml:space="preserve" text-anchor="middle" x="624.88" y="-205.49" font-family="Arial" font-size="10.00" fill="#c6c5fe">browser/chunk&#45;OIHGBNSC.js</text>
</g>
<!-- browser/chunk&#45;3MPSB56Z.js&#45;&gt;browser/chunk&#45;OIHGBNSC.js -->
<g id="edge2" class="edge">
<title>browser/chunk&#45;3MPSB56Z.js&#45;&gt;browser/chunk&#45;OIHGBNSC.js</title>
<path fill="none" stroke="#757575" d="M331.67,-240.95C382.8,-236.44 453.33,-229.9 515.25,-222.99 523.18,-222.11 531.42,-221.14 539.66,-220.14"/>
<polygon fill="#757575" stroke="#757575" points="539.88,-223.64 549.38,-218.94 539.02,-216.69 539.88,-223.64"/>
</g>
<!-- browser/chunk&#45;PA56OMOX.js -->
<g id="node4" class="node">
<title>browser/chunk&#45;PA56OMOX.js</title>
<path fill="none" stroke="#c6c5fe" d="M691.46,-104.99C691.46,-104.99 558.29,-104.99 558.29,-104.99 554.96,-104.99 551.62,-101.66 551.62,-98.33 551.62,-98.33 551.62,-91.66 551.62,-91.66 551.62,-88.33 554.96,-84.99 558.29,-84.99 558.29,-84.99 691.46,-84.99 691.46,-84.99 694.79,-84.99 698.12,-88.33 698.12,-91.66 698.12,-91.66 698.12,-98.33 698.12,-98.33 698.12,-101.66 694.79,-104.99 691.46,-104.99"/>
<text xml:space="preserve" text-anchor="middle" x="624.88" y="-91.49" font-family="Arial" font-size="10.00" fill="#c6c5fe">browser/chunk&#45;PA56OMOX.js</text>
</g>
<!-- browser/chunk&#45;3MPSB56Z.js&#45;&gt;browser/chunk&#45;PA56OMOX.js -->
<g id="edge3" class="edge">
<title>browser/chunk&#45;3MPSB56Z.js&#45;&gt;browser/chunk&#45;PA56OMOX.js</title>
<path fill="none" stroke="#757575" d="M268.97,-236.53C285.6,-216.72 324.62,-173.8 367.25,-151.99 384.24,-143.3 488.63,-121.63 558.92,-107.65"/>
<polygon fill="#757575" stroke="#757575" points="559.28,-111.15 568.41,-105.77 557.92,-104.28 559.28,-111.15"/>
</g>
<!-- browser/chunk&#45;PMDALXXS.js -->
<g id="node5" class="node">
<title>browser/chunk&#45;PMDALXXS.js</title>
<path fill="none" stroke="#c6c5fe" d="M508.58,-332.99C508.58,-332.99 373.92,-332.99 373.92,-332.99 370.58,-332.99 367.25,-329.66 367.25,-326.33 367.25,-326.33 367.25,-319.66 367.25,-319.66 367.25,-316.33 370.58,-312.99 373.92,-312.99 373.92,-312.99 508.58,-312.99 508.58,-312.99 511.92,-312.99 515.25,-316.33 515.25,-319.66 515.25,-319.66 515.25,-326.33 515.25,-326.33 515.25,-329.66 511.92,-332.99 508.58,-332.99"/>
<text xml:space="preserve" text-anchor="middle" x="441.25" y="-319.49" font-family="Arial" font-size="10.00" fill="#c6c5fe">browser/chunk&#45;PMDALXXS.js</text>
</g>
<!-- browser/chunk&#45;3MPSB56Z.js&#45;&gt;browser/chunk&#45;PMDALXXS.js -->
<g id="edge4" class="edge">
<title>browser/chunk&#45;3MPSB56Z.js&#45;&gt;browser/chunk&#45;PMDALXXS.js</title>
<path fill="none" stroke="#757575" d="M279.81,-257.39C300.92,-268.52 335.92,-286.28 367.25,-298.99 375.95,-302.53 385.39,-305.93 394.49,-309.01"/>
<polygon fill="#757575" stroke="#757575" points="393.34,-312.31 403.93,-312.12 395.53,-305.66 393.34,-312.31"/>
</g>
<!-- browser/chunk&#45;OIHGBNSC.js&#45;&gt;browser/chunk&#45;KOEO64O2.js -->
<g id="edge10" class="edge">
<title>browser/chunk&#45;OIHGBNSC.js&#45;&gt;browser/chunk&#45;KOEO64O2.js</title>
<path fill="none" stroke="#757575" d="M658.91,-198.54C687.89,-189.37 730.26,-175.96 762.09,-165.89"/>
<polygon fill="#757575" stroke="#757575" points="762.95,-169.29 771.42,-162.94 760.83,-162.62 762.95,-169.29"/>
</g>
<!-- browser/chunk&#45;PA56OMOX.js&#45;&gt;browser/chunk&#45;KOEO64O2.js -->
<g id="edge11" class="edge">
<title>browser/chunk&#45;PA56OMOX.js&#45;&gt;browser/chunk&#45;KOEO64O2.js</title>
<path fill="none" stroke="#757575" d="M658.91,-105.45C687.89,-114.62 730.26,-128.03 762.09,-138.1"/>
<polygon fill="#757575" stroke="#757575" points="760.83,-141.37 771.42,-141.05 762.95,-134.7 760.83,-141.37"/>
</g>
<!-- browser/chunk&#45;PMDALXXS.js&#45;&gt;browser/chunk&#45;KOEO64O2.js -->
<g id="edge12" class="edge">
<title>browser/chunk&#45;PMDALXXS.js&#45;&gt;browser/chunk&#45;KOEO64O2.js</title>
<path fill="none" stroke="#757575" d="M515.48,-331.53C569.49,-334.33 642.94,-330.54 698.5,-298.99 749.66,-269.95 783.24,-205.47 797.77,-172.41"/>
<polygon fill="#757575" stroke="#757575" points="800.85,-174.1 801.52,-163.53 794.4,-171.38 800.85,-174.1"/>
</g>
<!-- browser/chunk&#45;PMDALXXS.js&#45;&gt;browser/chunk&#45;OIHGBNSC.js -->
<g id="edge13" class="edge">
<title>browser/chunk&#45;PMDALXXS.js&#45;&gt;browser/chunk&#45;OIHGBNSC.js</title>
<path fill="none" stroke="#757575" d="M458.69,-312.68C490.35,-292.8 560.02,-249.08 597.98,-225.25"/>
<polygon fill="#757575" stroke="#757575" points="599.45,-228.46 606.06,-220.18 595.73,-222.53 599.45,-228.46"/>
</g>
<!-- browser/chunk&#45;7Q4E4KI6.js -->
<g id="node6" class="node">
<title>browser/chunk&#45;7Q4E4KI6.js</title>
<path fill="none" stroke="#c6c5fe" d="M503.71,-104.99C503.71,-104.99 378.79,-104.99 378.79,-104.99 375.46,-104.99 372.12,-101.66 372.12,-98.33 372.12,-98.33 372.12,-91.66 372.12,-91.66 372.12,-88.33 375.46,-84.99 378.79,-84.99 378.79,-84.99 503.71,-84.99 503.71,-84.99 507.04,-84.99 510.38,-88.33 510.38,-91.66 510.38,-91.66 510.38,-98.33 510.38,-98.33 510.38,-101.66 507.04,-104.99 503.71,-104.99"/>
<text xml:space="preserve" text-anchor="middle" x="441.25" y="-91.49" font-family="Arial" font-size="10.00" fill="#c6c5fe">browser/chunk&#45;7Q4E4KI6.js</text>
</g>
<!-- browser/chunk&#45;7Q4E4KI6.js&#45;&gt;browser/chunk&#45;KOEO64O2.js -->
<g id="edge5" class="edge">
<title>browser/chunk&#45;7Q4E4KI6.js&#45;&gt;browser/chunk&#45;KOEO64O2.js</title>
<path fill="none" stroke="#757575" d="M500.75,-105.46C517.08,-108.31 534.85,-111.34 551.25,-113.99 608.38,-123.23 672.85,-132.84 722.65,-140.09"/>
<polygon fill="#757575" stroke="#757575" points="722.11,-143.55 732.51,-141.52 723.11,-136.62 722.11,-143.55"/>
</g>
<!-- browser/chunk&#45;7Q4E4KI6.js&#45;&gt;browser/chunk&#45;PA56OMOX.js -->
<g id="edge6" class="edge">
<title>browser/chunk&#45;7Q4E4KI6.js&#45;&gt;browser/chunk&#45;PA56OMOX.js</title>
<path fill="none" stroke="#757575" d="M510.66,-94.99C520.2,-94.99 530.09,-94.99 539.87,-94.99"/>
<polygon fill="#757575" stroke="#757575" points="539.77,-98.49 549.77,-94.99 539.77,-91.49 539.77,-98.49"/>
</g>
<!-- browser/chunk&#45;H4I46LCK.js -->
<g id="node7" class="node">
<title>browser/chunk&#45;H4I46LCK.js</title>
<path fill="none" stroke="#c6c5fe" d="M322.33,-85.99C322.33,-85.99 196.67,-85.99 196.67,-85.99 193.33,-85.99 190,-82.66 190,-79.33 190,-79.33 190,-72.66 190,-72.66 190,-69.33 193.33,-65.99 196.67,-65.99 196.67,-65.99 322.33,-65.99 322.33,-65.99 325.67,-65.99 329,-69.33 329,-72.66 329,-72.66 329,-79.33 329,-79.33 329,-82.66 325.67,-85.99 322.33,-85.99"/>
<text xml:space="preserve" text-anchor="middle" x="259.5" y="-72.49" font-family="Arial" font-size="10.00" fill="#c6c5fe">browser/chunk&#45;H4I46LCK.js</text>
</g>
<!-- browser/chunk&#45;H4I46LCK.js&#45;&gt;browser/chunk&#45;KOEO64O2.js -->
<g id="edge8" class="edge">
<title>browser/chunk&#45;H4I46LCK.js&#45;&gt;browser/chunk&#45;KOEO64O2.js</title>
<path fill="none" stroke="#757575" d="M311.83,-65.55C395.47,-50.8 565.21,-30.41 698.5,-75.99 733.76,-88.05 767.71,-115.58 787.71,-133.98"/>
<polygon fill="#757575" stroke="#757575" points="785.11,-136.33 794.78,-140.66 789.92,-131.25 785.11,-136.33"/>
</g>
<!-- browser/chunk&#45;H4I46LCK.js&#45;&gt;browser/chunk&#45;PA56OMOX.js -->
<g id="edge9" class="edge">
<title>browser/chunk&#45;H4I46LCK.js&#45;&gt;browser/chunk&#45;PA56OMOX.js</title>
<path fill="none" stroke="#757575" d="M329.3,-72.78C380.64,-71.16 452.46,-70.54 515.25,-75.99 530.98,-77.36 547.85,-79.82 563.49,-82.52"/>
<polygon fill="#757575" stroke="#757575" points="562.68,-85.93 573.14,-84.26 563.92,-79.04 562.68,-85.93"/>
</g>
<!-- browser/chunk&#45;H4I46LCK.js&#45;&gt;browser/chunk&#45;7Q4E4KI6.js -->
<g id="edge7" class="edge">
<title>browser/chunk&#45;H4I46LCK.js&#45;&gt;browser/chunk&#45;7Q4E4KI6.js</title>
<path fill="none" stroke="#757575" d="M329.48,-83.29C339.66,-84.36 350.22,-85.48 360.59,-86.57"/>
<polygon fill="#757575" stroke="#757575" points="359.93,-90.02 370.24,-87.59 360.67,-83.06 359.93,-90.02"/>
</g>
<!-- browser/chunk&#45;RFXQTPGS.js -->
<g id="node8" class="node">
<title>browser/chunk&#45;RFXQTPGS.js</title>
<path fill="none" stroke="#c6c5fe" d="M508.58,-180.99C508.58,-180.99 373.92,-180.99 373.92,-180.99 370.58,-180.99 367.25,-177.66 367.25,-174.33 367.25,-174.33 367.25,-167.66 367.25,-167.66 367.25,-164.33 370.58,-160.99 373.92,-160.99 373.92,-160.99 508.58,-160.99 508.58,-160.99 511.92,-160.99 515.25,-164.33 515.25,-167.66 515.25,-167.66 515.25,-174.33 515.25,-174.33 515.25,-177.66 511.92,-180.99 508.58,-180.99"/>
<text xml:space="preserve" text-anchor="middle" x="441.25" y="-167.49" font-family="Arial" font-size="10.00" fill="#c6c5fe">browser/chunk&#45;RFXQTPGS.js</text>
</g>
<!-- browser/chunk&#45;RFXQTPGS.js&#45;&gt;browser/chunk&#45;KOEO64O2.js -->
<g id="edge14" class="edge">
<title>browser/chunk&#45;RFXQTPGS.js&#45;&gt;browser/chunk&#45;KOEO64O2.js</title>
<path fill="none" stroke="#757575" d="M515.42,-167.17C575.38,-164.04 660.24,-159.61 722.78,-156.34"/>
<polygon fill="#757575" stroke="#757575" points="722.87,-159.84 732.67,-155.82 722.5,-152.85 722.87,-159.84"/>
</g>
<!-- browser/chunk&#45;RFXQTPGS.js&#45;&gt;browser/chunk&#45;OIHGBNSC.js -->
<g id="edge15" class="edge">
<title>browser/chunk&#45;RFXQTPGS.js&#45;&gt;browser/chunk&#45;OIHGBNSC.js</title>
<path fill="none" stroke="#757575" d="M492.36,-181.48C514.2,-186.05 539.99,-191.44 562.93,-196.24"/>
<polygon fill="#757575" stroke="#757575" points="561.94,-199.61 572.45,-198.23 563.38,-192.76 561.94,-199.61"/>
</g>
<!-- browser/main&#45;3J3LXZVY.js -->
<g id="node9" class="node">
<title>browser/main&#45;3J3LXZVY.js</title>
<path fill="none" stroke="#c6c5fe" d="M136.08,-161.99C136.08,-161.99 15.67,-161.99 15.67,-161.99 12.33,-161.99 9,-158.66 9,-155.33 9,-155.33 9,-148.66 9,-148.66 9,-145.33 12.33,-141.99 15.67,-141.99 15.67,-141.99 136.08,-141.99 136.08,-141.99 139.42,-141.99 142.75,-145.33 142.75,-148.66 142.75,-148.66 142.75,-155.33 142.75,-155.33 142.75,-158.66 139.42,-161.99 136.08,-161.99"/>
<text xml:space="preserve" text-anchor="middle" x="75.88" y="-148.49" font-family="Arial" font-size="10.00" fill="#c6c5fe">browser/main&#45;3J3LXZVY.js</text>
</g>
<!-- browser/main&#45;3J3LXZVY.js&#45;&gt;browser/chunk&#45;3MPSB56Z.js -->
<g id="edge16" class="edge">
<title>browser/main&#45;3J3LXZVY.js&#45;&gt;browser/chunk&#45;3MPSB56Z.js</title>
<path fill="none" stroke="#757575" d="M135.52,-162.43C141.26,-164.73 146.79,-167.55 151.75,-170.99 174.84,-187.03 165.31,-206.07 187.75,-222.99 192.54,-226.61 197.91,-229.7 203.49,-232.34"/>
<polygon fill="#757575" stroke="#757575" points="201.72,-235.39 212.29,-236.03 204.42,-228.93 201.72,-235.39"/>
</g>
<!-- browser/main&#45;3J3LXZVY.js&#45;&gt;browser/chunk&#45;KOEO64O2.js -->
<g id="edge19" class="edge">
<title>browser/main&#45;3J3LXZVY.js&#45;&gt;browser/chunk&#45;KOEO64O2.js</title>
<path fill="none" stroke="#757575" d="M82.33,-141.5C96.03,-116.44 134.62,-53.5 187.75,-29.99 267.28,5.19 546.97,20.04 698.5,-45.99 740.53,-64.31 775.31,-107.08 793.12,-132.34"/>
<polygon fill="#757575" stroke="#757575" points="790.11,-134.13 798.64,-140.42 795.89,-130.19 790.11,-134.13"/>
</g>
<!-- browser/main&#45;3J3LXZVY.js&#45;&gt;browser/chunk&#45;OIHGBNSC.js -->
<g id="edge20" class="edge">
<title>browser/main&#45;3J3LXZVY.js&#45;&gt;browser/chunk&#45;OIHGBNSC.js</title>
<path fill="none" stroke="#757575" d="M118.75,-162.46C139.4,-167.26 164.76,-172.63 187.75,-175.99 309.39,-193.82 451.61,-202.3 539.73,-206.12"/>
<polygon fill="#757575" stroke="#757575" points="539.34,-209.61 549.48,-206.53 539.64,-202.61 539.34,-209.61"/>
</g>
<!-- browser/main&#45;3J3LXZVY.js&#45;&gt;browser/chunk&#45;PA56OMOX.js -->
<g id="edge21" class="edge">
<title>browser/main&#45;3J3LXZVY.js&#45;&gt;browser/chunk&#45;PA56OMOX.js</title>
<path fill="none" stroke="#757575" d="M84.61,-141.63C100.91,-120.76 141.15,-74.23 187.75,-56.99 326.86,-5.55 507.32,-54.62 585.25,-80.86"/>
<polygon fill="#757575" stroke="#757575" points="583.96,-84.11 594.55,-84.05 586.23,-77.49 583.96,-84.11"/>
</g>
<!-- browser/main&#45;3J3LXZVY.js&#45;&gt;browser/chunk&#45;PMDALXXS.js -->
<g id="edge22" class="edge">
<title>browser/main&#45;3J3LXZVY.js&#45;&gt;browser/chunk&#45;PMDALXXS.js</title>
<path fill="none" stroke="#757575" d="M139.02,-162.48C143.62,-164.8 147.95,-167.6 151.75,-170.99 185.44,-201.06 153.66,-236.38 187.75,-265.99 233.75,-305.96 301.87,-319.58 355.76,-323.55"/>
<polygon fill="#757575" stroke="#757575" points="355.32,-327.03 365.52,-324.16 355.76,-320.04 355.32,-327.03"/>
</g>
<!-- browser/main&#45;3J3LXZVY.js&#45;&gt;browser/chunk&#45;7Q4E4KI6.js -->
<g id="edge17" class="edge">
<title>browser/main&#45;3J3LXZVY.js&#45;&gt;browser/chunk&#45;7Q4E4KI6.js</title>
<path fill="none" stroke="#757575" d="M143.1,-141.61C204.93,-131.91 297.21,-117.43 362.51,-107.19"/>
<polygon fill="#757575" stroke="#757575" points="362.73,-110.7 372.06,-105.69 361.64,-103.78 362.73,-110.7"/>
</g>
<!-- browser/main&#45;3J3LXZVY.js&#45;&gt;browser/chunk&#45;H4I46LCK.js -->
<g id="edge18" class="edge">
<title>browser/main&#45;3J3LXZVY.js&#45;&gt;browser/chunk&#45;H4I46LCK.js</title>
<path fill="none" stroke="#757575" d="M101.75,-141.59C133.18,-128.43 187.48,-105.71 223.19,-90.77"/>
<polygon fill="#757575" stroke="#757575" points="224.37,-94.07 232.24,-86.98 221.66,-87.61 224.37,-94.07"/>
</g>
<!-- browser/main&#45;3J3LXZVY.js&#45;&gt;browser/chunk&#45;RFXQTPGS.js -->
<g id="edge23" class="edge">
<title>browser/main&#45;3J3LXZVY.js&#45;&gt;browser/chunk&#45;RFXQTPGS.js</title>
<path fill="none" stroke="#757575" d="M143.1,-155.46C202.77,-158.58 290.82,-163.18 355.58,-166.57"/>
<polygon fill="#757575" stroke="#757575" points="355.31,-170.06 365.47,-167.08 355.67,-163.07 355.31,-170.06"/>
</g>
<!-- browser/polyfills&#45;B6TNHZQ6.js -->
<g id="node10" class="node">
<title>browser/polyfills&#45;B6TNHZQ6.js</title>
<path fill="none" stroke="#cfffac" d="M145.08,-199.99C145.08,-199.99 6.67,-199.99 6.67,-199.99 3.33,-199.99 0,-196.66 0,-193.33 0,-193.33 0,-186.66 0,-186.66 0,-183.33 3.33,-179.99 6.67,-179.99 6.67,-179.99 145.08,-179.99 145.08,-179.99 148.42,-179.99 151.75,-183.33 151.75,-186.66 151.75,-186.66 151.75,-193.33 151.75,-193.33 151.75,-196.66 148.42,-199.99 145.08,-199.99"/>
<text xml:space="preserve" text-anchor="middle" x="75.88" y="-186.49" font-family="Arial" font-size="10.00" fill="#cfffac">browser/polyfills&#45;B6TNHZQ6.js</text>
</g>
</g>
</svg>
