<?xml version="1.0" encoding="UTF-8" standalone="no"?>
<!DOCTYPE svg PUBLIC "-//W3C//DTD SVG 1.1//EN"
 "http://www.w3.org/Graphics/SVG/1.1/DTD/svg11.dtd">
<!-- Generated by graphviz version 13.0.1 (20250615.1724)
 -->
<!-- Title: G Pages: 1 -->
<svg width="926pt" height="443pt"
 viewBox="0.00 0.00 926.00 443.00" xmlns="http://www.w3.org/2000/svg" xmlns:xlink="http://www.w3.org/1999/xlink">
<g id="graph0" class="graph" transform="scale(1 1) rotate(0) translate(21.6 421.13)">
<title>G</title>
<polygon fill="#111111" stroke="none" points="-21.6,21.6 -21.6,-421.13 904.85,-421.13 904.85,21.6 -21.6,21.6"/>
<!-- browser/chunk&#45;7Q4E4KI6.js -->
<g id="node1" class="node">
<title>browser/chunk&#45;7Q4E4KI6.js</title>
<path fill="none" stroke="#c6c5fe" d="M504.08,-397.74C504.08,-397.74 379.17,-397.74 379.17,-397.74 375.83,-397.74 372.5,-394.4 372.5,-391.07 372.5,-391.07 372.5,-384.4 372.5,-384.4 372.5,-381.07 375.83,-377.74 379.17,-377.74 379.17,-377.74 504.08,-377.74 504.08,-377.74 507.42,-377.74 510.75,-381.07 510.75,-384.4 510.75,-384.4 510.75,-391.07 510.75,-391.07 510.75,-394.4 507.42,-397.74 504.08,-397.74"/>
<text xml:space="preserve" text-anchor="middle" x="441.62" y="-384.24" font-family="Arial" font-size="10.00" fill="#c6c5fe">browser/chunk&#45;7Q4E4KI6.js</text>
</g>
<!-- browser/chunk&#45;KOEO64O2.js -->
<g id="node2" class="node">
<title>browser/chunk&#45;KOEO64O2.js</title>
<path fill="none" stroke="#cfffac" d="M876.58,-188.74C876.58,-188.74 744.92,-188.74 744.92,-188.74 741.58,-188.74 738.25,-185.4 738.25,-182.07 738.25,-182.07 738.25,-175.4 738.25,-175.4 738.25,-172.07 741.58,-168.74 744.92,-168.74 744.92,-168.74 876.58,-168.74 876.58,-168.74 879.92,-168.74 883.25,-172.07 883.25,-175.4 883.25,-175.4 883.25,-182.07 883.25,-182.07 883.25,-185.4 879.92,-188.74 876.58,-188.74"/>
<text xml:space="preserve" text-anchor="middle" x="810.75" y="-175.24" font-family="Arial" font-size="10.00" fill="#cfffac">browser/chunk&#45;KOEO64O2.js</text>
</g>
<!-- browser/chunk&#45;7Q4E4KI6.js&#45;&gt;browser/chunk&#45;KOEO64O2.js -->
<g id="edge1" class="edge">
<title>browser/chunk&#45;7Q4E4KI6.js&#45;&gt;browser/chunk&#45;KOEO64O2.js</title>
<path fill="none" stroke="#757575" d="M510.99,-397.69C566.78,-402.21 645.4,-400.04 702.25,-363.74 762.55,-325.23 792.97,-239.94 804.33,-200.06"/>
<polygon fill="#757575" stroke="#757575" points="807.69,-201.07 806.92,-190.5 800.93,-199.24 807.69,-201.07"/>
</g>
<!-- browser/chunk&#45;PA56OMOX.js -->
<g id="node3" class="node">
<title>browser/chunk&#45;PA56OMOX.js</title>
<path fill="none" stroke="#c6c5fe" d="M695.21,-283.74C695.21,-283.74 562.04,-283.74 562.04,-283.74 558.71,-283.74 555.38,-280.4 555.38,-277.07 555.38,-277.07 555.38,-270.4 555.38,-270.4 555.38,-267.07 558.71,-263.74 562.04,-263.74 562.04,-263.74 695.21,-263.74 695.21,-263.74 698.54,-263.74 701.88,-267.07 701.88,-270.4 701.88,-270.4 701.88,-277.07 701.88,-277.07 701.88,-280.4 698.54,-283.74 695.21,-283.74"/>
<text xml:space="preserve" text-anchor="middle" x="628.62" y="-270.24" font-family="Arial" font-size="10.00" fill="#c6c5fe">browser/chunk&#45;PA56OMOX.js</text>
</g>
<!-- browser/chunk&#45;7Q4E4KI6.js&#45;&gt;browser/chunk&#45;PA56OMOX.js -->
<g id="edge2" class="edge">
<title>browser/chunk&#45;7Q4E4KI6.js&#45;&gt;browser/chunk&#45;PA56OMOX.js</title>
<path fill="none" stroke="#757575" d="M459.37,-377.42C491.62,-357.55 562.58,-313.82 601.24,-289.99"/>
<polygon fill="#757575" stroke="#757575" points="602.82,-293.13 609.5,-284.91 599.15,-287.17 602.82,-293.13"/>
</g>
<!-- browser/chunk&#45;PA56OMOX.js&#45;&gt;browser/chunk&#45;KOEO64O2.js -->
<g id="edge9" class="edge">
<title>browser/chunk&#45;PA56OMOX.js&#45;&gt;browser/chunk&#45;KOEO64O2.js</title>
<path fill="none" stroke="#757575" d="M649.24,-263.39C680.83,-246.73 743.16,-213.86 780.16,-194.34"/>
<polygon fill="#757575" stroke="#757575" points="781.33,-197.68 788.54,-189.92 778.06,-191.49 781.33,-197.68"/>
</g>
<!-- browser/chunk&#45;DMQRRZWH.js -->
<g id="node4" class="node">
<title>browser/chunk&#45;DMQRRZWH.js</title>
<path fill="none" stroke="#c6c5fe" d="M512.33,-207.74C512.33,-207.74 370.92,-207.74 370.92,-207.74 367.58,-207.74 364.25,-204.4 364.25,-201.07 364.25,-201.07 364.25,-194.4 364.25,-194.4 364.25,-191.07 367.58,-187.74 370.92,-187.74 370.92,-187.74 512.33,-187.74 512.33,-187.74 515.67,-187.74 519,-191.07 519,-194.4 519,-194.4 519,-201.07 519,-201.07 519,-204.4 515.67,-207.74 512.33,-207.74"/>
<text xml:space="preserve" text-anchor="middle" x="441.62" y="-194.24" font-family="Arial" font-size="10.00" fill="#c6c5fe">browser/chunk&#45;DMQRRZWH.js</text>
</g>
<!-- browser/chunk&#45;DMQRRZWH.js&#45;&gt;browser/chunk&#45;KOEO64O2.js -->
<g id="edge3" class="edge">
<title>browser/chunk&#45;DMQRRZWH.js&#45;&gt;browser/chunk&#45;KOEO64O2.js</title>
<path fill="none" stroke="#757575" d="M519.14,-193.78C579.77,-190.64 664.36,-186.26 726.65,-183.04"/>
<polygon fill="#757575" stroke="#757575" points="726.69,-186.54 736.5,-182.53 726.33,-179.55 726.69,-186.54"/>
</g>
<!-- browser/chunk&#45;OIHGBNSC.js -->
<g id="node5" class="node">
<title>browser/chunk&#45;OIHGBNSC.js</title>
<path fill="none" stroke="#c6c5fe" d="M695.58,-131.74C695.58,-131.74 561.67,-131.74 561.67,-131.74 558.33,-131.74 555,-128.4 555,-125.07 555,-125.07 555,-118.4 555,-118.4 555,-115.07 558.33,-111.74 561.67,-111.74 561.67,-111.74 695.58,-111.74 695.58,-111.74 698.92,-111.74 702.25,-115.07 702.25,-118.4 702.25,-118.4 702.25,-125.07 702.25,-125.07 702.25,-128.4 698.92,-131.74 695.58,-131.74"/>
<text xml:space="preserve" text-anchor="middle" x="628.62" y="-118.24" font-family="Arial" font-size="10.00" fill="#c6c5fe">browser/chunk&#45;OIHGBNSC.js</text>
</g>
<!-- browser/chunk&#45;DMQRRZWH.js&#45;&gt;browser/chunk&#45;OIHGBNSC.js -->
<g id="edge4" class="edge">
<title>browser/chunk&#45;DMQRRZWH.js&#45;&gt;browser/chunk&#45;OIHGBNSC.js</title>
<path fill="none" stroke="#757575" d="M467.96,-187.33C499.98,-174.18 555.28,-151.46 591.66,-136.51"/>
<polygon fill="#757575" stroke="#757575" points="592.98,-139.75 600.9,-132.72 590.32,-133.28 592.98,-139.75"/>
</g>
<!-- browser/chunk&#45;OIHGBNSC.js&#45;&gt;browser/chunk&#45;KOEO64O2.js -->
<g id="edge8" class="edge">
<title>browser/chunk&#45;OIHGBNSC.js&#45;&gt;browser/chunk&#45;KOEO64O2.js</title>
<path fill="none" stroke="#757575" d="M662.66,-132.19C691.64,-141.36 734.01,-154.77 765.84,-164.84"/>
<polygon fill="#757575" stroke="#757575" points="764.58,-168.12 775.17,-167.8 766.7,-161.44 764.58,-168.12"/>
</g>
<!-- browser/chunk&#45;H4I46LCK.js -->
<g id="node6" class="node">
<title>browser/chunk&#45;H4I46LCK.js</title>
<path fill="none" stroke="#c6c5fe" d="M320.83,-340.74C320.83,-340.74 195.17,-340.74 195.17,-340.74 191.83,-340.74 188.5,-337.4 188.5,-334.07 188.5,-334.07 188.5,-327.4 188.5,-327.4 188.5,-324.07 191.83,-320.74 195.17,-320.74 195.17,-320.74 320.83,-320.74 320.83,-320.74 324.17,-320.74 327.5,-324.07 327.5,-327.4 327.5,-327.4 327.5,-334.07 327.5,-334.07 327.5,-337.4 324.17,-340.74 320.83,-340.74"/>
<text xml:space="preserve" text-anchor="middle" x="258" y="-327.24" font-family="Arial" font-size="10.00" fill="#c6c5fe">browser/chunk&#45;H4I46LCK.js</text>
</g>
<!-- browser/chunk&#45;H4I46LCK.js&#45;&gt;browser/chunk&#45;7Q4E4KI6.js -->
<g id="edge5" class="edge">
<title>browser/chunk&#45;H4I46LCK.js&#45;&gt;browser/chunk&#45;7Q4E4KI6.js</title>
<path fill="none" stroke="#757575" d="M292.31,-341.19C321.54,-350.36 364.25,-363.77 396.35,-373.84"/>
<polygon fill="#757575" stroke="#757575" points="395.18,-377.14 405.77,-376.8 397.28,-370.47 395.18,-377.14"/>
</g>
<!-- browser/chunk&#45;H4I46LCK.js&#45;&gt;browser/chunk&#45;KOEO64O2.js -->
<g id="edge6" class="edge">
<title>browser/chunk&#45;H4I46LCK.js&#45;&gt;browser/chunk&#45;KOEO64O2.js</title>
<path fill="none" stroke="#757575" d="M327.9,-340.21C418.96,-349.42 581.9,-354.25 702.25,-292.74 745.02,-270.88 779.93,-224.94 797.48,-198.54"/>
<polygon fill="#757575" stroke="#757575" points="800.23,-200.73 802.7,-190.43 794.34,-196.94 800.23,-200.73"/>
</g>
<!-- browser/chunk&#45;H4I46LCK.js&#45;&gt;browser/chunk&#45;PA56OMOX.js -->
<g id="edge7" class="edge">
<title>browser/chunk&#45;H4I46LCK.js&#45;&gt;browser/chunk&#45;PA56OMOX.js</title>
<path fill="none" stroke="#757575" d="M326.61,-320.28C389.29,-310.59 482.55,-296.17 548.63,-285.95"/>
<polygon fill="#757575" stroke="#757575" points="548.98,-289.44 558.32,-284.45 547.91,-282.52 548.98,-289.44"/>
</g>
<!-- browser/chunk&#45;PMDALXXS.js -->
<g id="node7" class="node">
<title>browser/chunk&#45;PMDALXXS.js</title>
<path fill="none" stroke="#c6c5fe" d="M508.96,-55.74C508.96,-55.74 374.29,-55.74 374.29,-55.74 370.96,-55.74 367.62,-52.4 367.62,-49.07 367.62,-49.07 367.62,-42.4 367.62,-42.4 367.62,-39.07 370.96,-35.74 374.29,-35.74 374.29,-35.74 508.96,-35.74 508.96,-35.74 512.29,-35.74 515.62,-39.07 515.62,-42.4 515.62,-42.4 515.62,-49.07 515.62,-49.07 515.62,-52.4 512.29,-55.74 508.96,-55.74"/>
<text xml:space="preserve" text-anchor="middle" x="441.62" y="-42.24" font-family="Arial" font-size="10.00" fill="#c6c5fe">browser/chunk&#45;PMDALXXS.js</text>
</g>
<!-- browser/chunk&#45;PMDALXXS.js&#45;&gt;browser/chunk&#45;KOEO64O2.js -->
<g id="edge10" class="edge">
<title>browser/chunk&#45;PMDALXXS.js&#45;&gt;browser/chunk&#45;KOEO64O2.js</title>
<path fill="none" stroke="#757575" d="M515.84,-53.88C569.24,-61.68 642.41,-76.32 702.25,-102.74 735.79,-117.55 769.51,-143.64 790.02,-161.06"/>
<polygon fill="#757575" stroke="#757575" points="787.47,-163.48 797.31,-167.39 792.05,-158.2 787.47,-163.48"/>
</g>
<!-- browser/chunk&#45;PMDALXXS.js&#45;&gt;browser/chunk&#45;OIHGBNSC.js -->
<g id="edge11" class="edge">
<title>browser/chunk&#45;PMDALXXS.js&#45;&gt;browser/chunk&#45;OIHGBNSC.js</title>
<path fill="none" stroke="#757575" d="M479.51,-56.17C492.17,-60.05 506.33,-64.74 519,-69.74 546.29,-80.49 576.29,-95.08 597.84,-106.06"/>
<polygon fill="#757575" stroke="#757575" points="596.14,-109.13 606.64,-110.6 599.35,-102.91 596.14,-109.13"/>
</g>
<!-- browser/chunk&#45;XWEIPTLI.js -->
<g id="node8" class="node">
<title>browser/chunk&#45;XWEIPTLI.js</title>
<path fill="none" stroke="#c6c5fe" d="M321.58,-169.74C321.58,-169.74 194.42,-169.74 194.42,-169.74 191.08,-169.74 187.75,-166.4 187.75,-163.07 187.75,-163.07 187.75,-156.4 187.75,-156.4 187.75,-153.07 191.08,-149.74 194.42,-149.74 194.42,-149.74 321.58,-149.74 321.58,-149.74 324.92,-149.74 328.25,-153.07 328.25,-156.4 328.25,-156.4 328.25,-163.07 328.25,-163.07 328.25,-166.4 324.92,-169.74 321.58,-169.74"/>
<text xml:space="preserve" text-anchor="middle" x="258" y="-156.24" font-family="Arial" font-size="10.00" fill="#c6c5fe">browser/chunk&#45;XWEIPTLI.js</text>
</g>
<!-- browser/chunk&#45;XWEIPTLI.js&#45;&gt;browser/chunk&#45;KOEO64O2.js -->
<g id="edge12" class="edge">
<title>browser/chunk&#45;XWEIPTLI.js&#45;&gt;browser/chunk&#45;KOEO64O2.js</title>
<path fill="none" stroke="#757575" d="M328.47,-162.13C429.86,-165.63 618.06,-172.12 726.64,-175.87"/>
<polygon fill="#757575" stroke="#757575" points="726.24,-179.36 736.35,-176.21 726.48,-172.36 726.24,-179.36"/>
</g>
<!-- browser/chunk&#45;XWEIPTLI.js&#45;&gt;browser/chunk&#45;PA56OMOX.js -->
<g id="edge14" class="edge">
<title>browser/chunk&#45;XWEIPTLI.js&#45;&gt;browser/chunk&#45;PA56OMOX.js</title>
<path fill="none" stroke="#757575" d="M274.73,-170.11C294.74,-182.86 330.73,-204.32 364.25,-216.74 422.49,-238.31 491.16,-252.84 543.77,-261.83"/>
<polygon fill="#757575" stroke="#757575" points="543.15,-265.27 553.59,-263.47 544.3,-258.37 543.15,-265.27"/>
</g>
<!-- browser/chunk&#45;XWEIPTLI.js&#45;&gt;browser/chunk&#45;OIHGBNSC.js -->
<g id="edge13" class="edge">
<title>browser/chunk&#45;XWEIPTLI.js&#45;&gt;browser/chunk&#45;OIHGBNSC.js</title>
<path fill="none" stroke="#757575" d="M328.59,-150.07C340.47,-148.53 352.71,-147.03 364.25,-145.74 423.96,-139.05 491.44,-132.93 543.15,-128.54"/>
<polygon fill="#757575" stroke="#757575" points="543.42,-132.03 553.09,-127.7 542.83,-125.06 543.42,-132.03"/>
</g>
<!-- browser/chunk&#45;XWEIPTLI.js&#45;&gt;browser/chunk&#45;PMDALXXS.js -->
<g id="edge15" class="edge">
<title>browser/chunk&#45;XWEIPTLI.js&#45;&gt;browser/chunk&#45;PMDALXXS.js</title>
<path fill="none" stroke="#757575" d="M275.44,-149.42C307.1,-129.55 376.77,-85.82 414.73,-61.99"/>
<polygon fill="#757575" stroke="#757575" points="416.2,-65.2 422.81,-56.92 412.48,-59.27 416.2,-65.2"/>
</g>
<!-- browser/main&#45;PWAJUWRC.js -->
<g id="node9" class="node">
<title>browser/main&#45;PWAJUWRC.js</title>
<path fill="none" stroke="#c6c5fe" d="M143.21,-188.74C143.21,-188.74 8.54,-188.74 8.54,-188.74 5.21,-188.74 1.88,-185.4 1.88,-182.07 1.88,-182.07 1.88,-175.4 1.88,-175.4 1.88,-172.07 5.21,-168.74 8.54,-168.74 8.54,-168.74 143.21,-168.74 143.21,-168.74 146.54,-168.74 149.88,-172.07 149.88,-175.4 149.88,-175.4 149.88,-182.07 149.88,-182.07 149.88,-185.4 146.54,-188.74 143.21,-188.74"/>
<text xml:space="preserve" text-anchor="middle" x="75.88" y="-175.24" font-family="Arial" font-size="10.00" fill="#c6c5fe">browser/main&#45;PWAJUWRC.js</text>
</g>
<!-- browser/main&#45;PWAJUWRC.js&#45;&gt;browser/chunk&#45;7Q4E4KI6.js -->
<g id="edge16" class="edge">
<title>browser/main&#45;PWAJUWRC.js&#45;&gt;browser/chunk&#45;7Q4E4KI6.js</title>
<path fill="none" stroke="#757575" d="M140.22,-189.09C144.45,-191.45 148.36,-194.3 151.75,-197.74 200.45,-247.22 136.66,-302.74 187.75,-349.74 233.75,-392.06 305.65,-399.32 361.04,-397.29"/>
<polygon fill="#757575" stroke="#757575" points="360.91,-400.8 370.72,-396.82 360.57,-393.81 360.91,-400.8"/>
</g>
<!-- browser/main&#45;PWAJUWRC.js&#45;&gt;browser/chunk&#45;KOEO64O2.js -->
<g id="edge19" class="edge">
<title>browser/main&#45;PWAJUWRC.js&#45;&gt;browser/chunk&#45;KOEO64O2.js</title>
<path fill="none" stroke="#757575" d="M81.2,-168.42C93.3,-141.07 130.39,-66.76 187.75,-36.74 318.24,31.57 372.2,-14.8 519,-26.74 601.26,-33.43 630.04,-16.78 702.25,-56.74 746.3,-81.11 781.14,-130.73 798.23,-158.59"/>
<polygon fill="#757575" stroke="#757575" points="795.19,-160.32 803.31,-167.13 801.2,-156.74 795.19,-160.32"/>
</g>
<!-- browser/main&#45;PWAJUWRC.js&#45;&gt;browser/chunk&#45;PA56OMOX.js -->
<g id="edge21" class="edge">
<title>browser/main&#45;PWAJUWRC.js&#45;&gt;browser/chunk&#45;PA56OMOX.js</title>
<path fill="none" stroke="#757575" d="M118.2,-189.18C196.24,-208.89 358.1,-249.71 364.25,-250.74 423.92,-260.75 491.98,-266.55 543.96,-269.82"/>
<polygon fill="#757575" stroke="#757575" points="543.43,-273.3 553.62,-270.41 543.85,-266.31 543.43,-273.3"/>
</g>
<!-- browser/main&#45;PWAJUWRC.js&#45;&gt;browser/chunk&#45;DMQRRZWH.js -->
<g id="edge17" class="edge">
<title>browser/main&#45;PWAJUWRC.js&#45;&gt;browser/chunk&#45;DMQRRZWH.js</title>
<path fill="none" stroke="#757575" d="M150.05,-182.56C208.44,-185.61 290.46,-189.89 352.47,-193.13"/>
<polygon fill="#757575" stroke="#757575" points="352.12,-196.62 362.29,-193.65 352.49,-189.63 352.12,-196.62"/>
</g>
<!-- browser/main&#45;PWAJUWRC.js&#45;&gt;browser/chunk&#45;OIHGBNSC.js -->
<g id="edge20" class="edge">
<title>browser/main&#45;PWAJUWRC.js&#45;&gt;browser/chunk&#45;OIHGBNSC.js</title>
<path fill="none" stroke="#757575" d="M101.47,-168.31C123.62,-159.4 157.27,-147.07 187.75,-140.74 309.46,-115.47 454.04,-114.64 543.33,-117.39"/>
<polygon fill="#757575" stroke="#757575" points="543.12,-120.89 553.23,-117.72 543.35,-113.89 543.12,-120.89"/>
</g>
<!-- browser/main&#45;PWAJUWRC.js&#45;&gt;browser/chunk&#45;H4I46LCK.js -->
<g id="edge18" class="edge">
<title>browser/main&#45;PWAJUWRC.js&#45;&gt;browser/chunk&#45;H4I46LCK.js</title>
<path fill="none" stroke="#757575" d="M138.59,-189.12C143.34,-191.45 147.82,-194.29 151.75,-197.74 184.16,-226.13 160.07,-254.73 187.75,-287.74 197.13,-298.92 210.19,-308.07 222.44,-315.01"/>
<polygon fill="#757575" stroke="#757575" points="220.63,-318.02 231.11,-319.61 223.91,-311.83 220.63,-318.02"/>
</g>
<!-- browser/main&#45;PWAJUWRC.js&#45;&gt;browser/chunk&#45;PMDALXXS.js -->
<g id="edge22" class="edge">
<title>browser/main&#45;PWAJUWRC.js&#45;&gt;browser/chunk&#45;PMDALXXS.js</title>
<path fill="none" stroke="#757575" d="M83.67,-168.3C99.07,-145.7 139.05,-92.41 187.75,-69.74 240.06,-45.38 304.97,-39.65 355.92,-39.87"/>
<polygon fill="#757575" stroke="#757575" points="355.67,-43.37 365.72,-40 355.76,-36.37 355.67,-43.37"/>
</g>
<!-- browser/main&#45;PWAJUWRC.js&#45;&gt;browser/chunk&#45;XWEIPTLI.js -->
<g id="edge23" class="edge">
<title>browser/main&#45;PWAJUWRC.js&#45;&gt;browser/chunk&#45;XWEIPTLI.js</title>
<path fill="none" stroke="#757575" d="M150.14,-171.01C158.67,-170.11 167.41,-169.19 176.04,-168.28"/>
<polygon fill="#757575" stroke="#757575" points="176.21,-171.78 185.79,-167.25 175.48,-164.82 176.21,-171.78"/>
</g>
<!-- browser/polyfills&#45;B6TNHZQ6.js -->
<g id="node10" class="node">
<title>browser/polyfills&#45;B6TNHZQ6.js</title>
<path fill="none" stroke="#cfffac" d="M145.08,-226.74C145.08,-226.74 6.67,-226.74 6.67,-226.74 3.33,-226.74 0,-223.4 0,-220.07 0,-220.07 0,-213.4 0,-213.4 0,-210.07 3.33,-206.74 6.67,-206.74 6.67,-206.74 145.08,-206.74 145.08,-206.74 148.42,-206.74 151.75,-210.07 151.75,-213.4 151.75,-213.4 151.75,-220.07 151.75,-220.07 151.75,-223.4 148.42,-226.74 145.08,-226.74"/>
<text xml:space="preserve" text-anchor="middle" x="75.88" y="-213.24" font-family="Arial" font-size="10.00" fill="#cfffac">browser/polyfills&#45;B6TNHZQ6.js</text>
</g>
</g>
</svg>
