<?xml version="1.0" encoding="UTF-8" standalone="no"?>
<!DOCTYPE svg PUBLIC "-//W3C//DTD SVG 1.1//EN"
 "http://www.w3.org/Graphics/SVG/1.1/DTD/svg11.dtd">
<!-- Generated by graphviz version 13.0.1 (20250615.1724)
 -->
<!-- Title: G Pages: 1 -->
<svg width="919pt" height="435pt"
 viewBox="0.00 0.00 919.00 435.00" xmlns="http://www.w3.org/2000/svg" xmlns:xlink="http://www.w3.org/1999/xlink">
<g id="graph0" class="graph" transform="scale(1 1) rotate(0) translate(21.6 413.66)">
<title>G</title>
<polygon fill="#111111" stroke="none" points="-21.6,21.6 -21.6,-413.66 897.35,-413.66 897.35,21.6 -21.6,21.6"/>
<!-- browser/chunk&#45;3IHFYJ4J.js -->
<g id="node1" class="node">
<title>browser/chunk&#45;3IHFYJ4J.js</title>
<path fill="none" stroke="#cfffac" d="M869.08,-181.24C869.08,-181.24 744.92,-181.24 744.92,-181.24 741.58,-181.24 738.25,-177.91 738.25,-174.58 738.25,-174.58 738.25,-167.91 738.25,-167.91 738.25,-164.58 741.58,-161.24 744.92,-161.24 744.92,-161.24 869.08,-161.24 869.08,-161.24 872.42,-161.24 875.75,-164.58 875.75,-167.91 875.75,-167.91 875.75,-174.58 875.75,-174.58 875.75,-177.91 872.42,-181.24 869.08,-181.24"/>
<text xml:space="preserve" text-anchor="middle" x="807" y="-167.74" font-family="Arial" font-size="10.00" fill="#cfffac">browser/chunk&#45;3IHFYJ4J.js</text>
</g>
<!-- browser/chunk&#45;4ZS62PVB.js -->
<g id="node2" class="node">
<title>browser/chunk&#45;4ZS62PVB.js</title>
<path fill="none" stroke="#c6c5fe" d="M509.71,-390.24C509.71,-390.24 381.04,-390.24 381.04,-390.24 377.71,-390.24 374.38,-386.91 374.38,-383.58 374.38,-383.58 374.38,-376.91 374.38,-376.91 374.38,-373.58 377.71,-370.24 381.04,-370.24 381.04,-370.24 509.71,-370.24 509.71,-370.24 513.04,-370.24 516.38,-373.58 516.38,-376.91 516.38,-376.91 516.38,-383.58 516.38,-383.58 516.38,-386.91 513.04,-390.24 509.71,-390.24"/>
<text xml:space="preserve" text-anchor="middle" x="445.38" y="-376.74" font-family="Arial" font-size="10.00" fill="#c6c5fe">browser/chunk&#45;4ZS62PVB.js</text>
</g>
<!-- browser/chunk&#45;4ZS62PVB.js&#45;&gt;browser/chunk&#45;3IHFYJ4J.js -->
<g id="edge1" class="edge">
<title>browser/chunk&#45;4ZS62PVB.js&#45;&gt;browser/chunk&#45;3IHFYJ4J.js</title>
<path fill="none" stroke="#757575" d="M516.69,-390.39C571.58,-394.59 647.45,-391.88 702.25,-356.24 761.71,-317.57 790.43,-232.36 801,-192.54"/>
<polygon fill="#757575" stroke="#757575" points="804.36,-193.55 803.4,-183 797.57,-191.84 804.36,-193.55"/>
</g>
<!-- browser/chunk&#45;74S4U37A.js -->
<g id="node3" class="node">
<title>browser/chunk&#45;74S4U37A.js</title>
<path fill="none" stroke="#c6c5fe" d="M691.08,-276.24C691.08,-276.24 563.92,-276.24 563.92,-276.24 560.58,-276.24 557.25,-272.91 557.25,-269.58 557.25,-269.58 557.25,-262.91 557.25,-262.91 557.25,-259.58 560.58,-256.24 563.92,-256.24 563.92,-256.24 691.08,-256.24 691.08,-256.24 694.42,-256.24 697.75,-259.58 697.75,-262.91 697.75,-262.91 697.75,-269.58 697.75,-269.58 697.75,-272.91 694.42,-276.24 691.08,-276.24"/>
<text xml:space="preserve" text-anchor="middle" x="627.5" y="-262.74" font-family="Arial" font-size="10.00" fill="#c6c5fe">browser/chunk&#45;74S4U37A.js</text>
</g>
<!-- browser/chunk&#45;4ZS62PVB.js&#45;&gt;browser/chunk&#45;74S4U37A.js -->
<g id="edge2" class="edge">
<title>browser/chunk&#45;4ZS62PVB.js&#45;&gt;browser/chunk&#45;74S4U37A.js</title>
<path fill="none" stroke="#757575" d="M462.68,-369.93C494.08,-350.05 563.17,-306.33 600.81,-282.5"/>
<polygon fill="#757575" stroke="#757575" points="602.25,-285.74 608.83,-277.43 598.5,-279.82 602.25,-285.74"/>
</g>
<!-- browser/chunk&#45;74S4U37A.js&#45;&gt;browser/chunk&#45;3IHFYJ4J.js -->
<g id="edge7" class="edge">
<title>browser/chunk&#45;74S4U37A.js&#45;&gt;browser/chunk&#45;3IHFYJ4J.js</title>
<path fill="none" stroke="#757575" d="M647.83,-255.9C678.83,-239.31 739.85,-206.65 776.37,-187.1"/>
<polygon fill="#757575" stroke="#757575" points="777.92,-190.24 785.09,-182.44 774.62,-184.07 777.92,-190.24"/>
</g>
<!-- browser/chunk&#45;54QRFGJ5.js -->
<g id="node4" class="node">
<title>browser/chunk&#45;54QRFGJ5.js</title>
<path fill="none" stroke="#c6c5fe" d="M328.33,-162.24C328.33,-162.24 198.92,-162.24 198.92,-162.24 195.58,-162.24 192.25,-158.91 192.25,-155.58 192.25,-155.58 192.25,-148.91 192.25,-148.91 192.25,-145.58 195.58,-142.24 198.92,-142.24 198.92,-142.24 328.33,-142.24 328.33,-142.24 331.67,-142.24 335,-145.58 335,-148.91 335,-148.91 335,-155.58 335,-155.58 335,-158.91 331.67,-162.24 328.33,-162.24"/>
<text xml:space="preserve" text-anchor="middle" x="263.62" y="-148.74" font-family="Arial" font-size="10.00" fill="#c6c5fe">browser/chunk&#45;54QRFGJ5.js</text>
</g>
<!-- browser/chunk&#45;54QRFGJ5.js&#45;&gt;browser/chunk&#45;3IHFYJ4J.js -->
<g id="edge3" class="edge">
<title>browser/chunk&#45;54QRFGJ5.js&#45;&gt;browser/chunk&#45;3IHFYJ4J.js</title>
<path fill="none" stroke="#757575" d="M335.4,-154.73C436.34,-158.27 621.06,-164.75 726.56,-168.46"/>
<polygon fill="#757575" stroke="#757575" points="726.14,-171.94 736.26,-168.8 726.39,-164.95 726.14,-171.94"/>
</g>
<!-- browser/chunk&#45;54QRFGJ5.js&#45;&gt;browser/chunk&#45;74S4U37A.js -->
<g id="edge4" class="edge">
<title>browser/chunk&#45;54QRFGJ5.js&#45;&gt;browser/chunk&#45;74S4U37A.js</title>
<path fill="none" stroke="#757575" d="M283.48,-162.66C304.89,-174.14 341.12,-192.53 374,-204.24 435.2,-226.05 507.41,-242.94 558.89,-253.54"/>
<polygon fill="#757575" stroke="#757575" points="557.9,-256.91 568.39,-255.47 559.29,-250.05 557.9,-256.91"/>
</g>
<!-- browser/chunk&#45;EXHXBRXG.js -->
<g id="node5" class="node">
<title>browser/chunk&#45;EXHXBRXG.js</title>
<path fill="none" stroke="#c6c5fe" d="M695.58,-124.24C695.58,-124.24 559.42,-124.24 559.42,-124.24 556.08,-124.24 552.75,-120.91 552.75,-117.58 552.75,-117.58 552.75,-110.91 552.75,-110.91 552.75,-107.58 556.08,-104.24 559.42,-104.24 559.42,-104.24 695.58,-104.24 695.58,-104.24 698.92,-104.24 702.25,-107.58 702.25,-110.91 702.25,-110.91 702.25,-117.58 702.25,-117.58 702.25,-120.91 698.92,-124.24 695.58,-124.24"/>
<text xml:space="preserve" text-anchor="middle" x="627.5" y="-110.74" font-family="Arial" font-size="10.00" fill="#c6c5fe">browser/chunk&#45;EXHXBRXG.js</text>
</g>
<!-- browser/chunk&#45;54QRFGJ5.js&#45;&gt;browser/chunk&#45;EXHXBRXG.js -->
<g id="edge5" class="edge">
<title>browser/chunk&#45;54QRFGJ5.js&#45;&gt;browser/chunk&#45;EXHXBRXG.js</title>
<path fill="none" stroke="#757575" d="M335.45,-148.73C386.08,-145.78 455.76,-140.8 516.75,-133.24 531.2,-131.45 546.65,-129.07 561.25,-126.6"/>
<polygon fill="#757575" stroke="#757575" points="561.48,-130.11 570.73,-124.96 560.28,-123.22 561.48,-130.11"/>
</g>
<!-- browser/chunk&#45;QL3UJSK6.js -->
<g id="node6" class="node">
<title>browser/chunk&#45;QL3UJSK6.js</title>
<path fill="none" stroke="#c6c5fe" d="M510.08,-124.24C510.08,-124.24 380.67,-124.24 380.67,-124.24 377.33,-124.24 374,-120.91 374,-117.58 374,-117.58 374,-110.91 374,-110.91 374,-107.58 377.33,-104.24 380.67,-104.24 380.67,-104.24 510.08,-104.24 510.08,-104.24 513.42,-104.24 516.75,-107.58 516.75,-110.91 516.75,-110.91 516.75,-117.58 516.75,-117.58 516.75,-120.91 513.42,-124.24 510.08,-124.24"/>
<text xml:space="preserve" text-anchor="middle" x="445.38" y="-110.74" font-family="Arial" font-size="10.00" fill="#c6c5fe">browser/chunk&#45;QL3UJSK6.js</text>
</g>
<!-- browser/chunk&#45;54QRFGJ5.js&#45;&gt;browser/chunk&#45;QL3UJSK6.js -->
<g id="edge6" class="edge">
<title>browser/chunk&#45;54QRFGJ5.js&#45;&gt;browser/chunk&#45;QL3UJSK6.js</title>
<path fill="none" stroke="#757575" d="M314.22,-141.76C335.73,-137.21 361.13,-131.84 383.75,-127.06"/>
<polygon fill="#757575" stroke="#757575" points="384.4,-130.5 393.46,-125.01 382.96,-123.65 384.4,-130.5"/>
</g>
<!-- browser/chunk&#45;EXHXBRXG.js&#45;&gt;browser/chunk&#45;3IHFYJ4J.js -->
<g id="edge13" class="edge">
<title>browser/chunk&#45;EXHXBRXG.js&#45;&gt;browser/chunk&#45;3IHFYJ4J.js</title>
<path fill="none" stroke="#757575" d="M661.06,-124.7C689.62,-133.87 731.36,-147.28 762.73,-157.35"/>
<polygon fill="#757575" stroke="#757575" points="761.32,-160.57 771.91,-160.3 763.46,-153.91 761.32,-160.57"/>
</g>
<!-- browser/chunk&#45;QL3UJSK6.js&#45;&gt;browser/chunk&#45;3IHFYJ4J.js -->
<g id="edge14" class="edge">
<title>browser/chunk&#45;QL3UJSK6.js&#45;&gt;browser/chunk&#45;3IHFYJ4J.js</title>
<path fill="none" stroke="#757575" d="M503.46,-124.74C519.4,-127.59 536.74,-130.61 552.75,-133.24 610.85,-142.79 676.61,-152.63 726.56,-159.9"/>
<polygon fill="#757575" stroke="#757575" points="726.04,-163.36 736.44,-161.34 727.04,-156.44 726.04,-163.36"/>
</g>
<!-- browser/chunk&#45;QL3UJSK6.js&#45;&gt;browser/chunk&#45;EXHXBRXG.js -->
<g id="edge15" class="edge">
<title>browser/chunk&#45;QL3UJSK6.js&#45;&gt;browser/chunk&#45;EXHXBRXG.js</title>
<path fill="none" stroke="#757575" d="M517.05,-114.24C524.95,-114.24 533.07,-114.24 541.13,-114.24"/>
<polygon fill="#757575" stroke="#757575" points="540.96,-117.74 550.96,-114.24 540.96,-110.74 540.96,-117.74"/>
</g>
<!-- browser/chunk&#45;BAESIRT4.js -->
<g id="node7" class="node">
<title>browser/chunk&#45;BAESIRT4.js</title>
<path fill="none" stroke="#c6c5fe" d="M509.33,-48.24C509.33,-48.24 381.42,-48.24 381.42,-48.24 378.08,-48.24 374.75,-44.91 374.75,-41.58 374.75,-41.58 374.75,-34.91 374.75,-34.91 374.75,-31.58 378.08,-28.24 381.42,-28.24 381.42,-28.24 509.33,-28.24 509.33,-28.24 512.67,-28.24 516,-31.58 516,-34.91 516,-34.91 516,-41.58 516,-41.58 516,-44.91 512.67,-48.24 509.33,-48.24"/>
<text xml:space="preserve" text-anchor="middle" x="445.38" y="-34.74" font-family="Arial" font-size="10.00" fill="#c6c5fe">browser/chunk&#45;BAESIRT4.js</text>
</g>
<!-- browser/chunk&#45;BAESIRT4.js&#45;&gt;browser/chunk&#45;3IHFYJ4J.js -->
<g id="edge8" class="edge">
<title>browser/chunk&#45;BAESIRT4.js&#45;&gt;browser/chunk&#45;3IHFYJ4J.js</title>
<path fill="none" stroke="#757575" d="M516.45,-45.93C569.32,-53.58 642.67,-68.23 702.25,-95.24 734.73,-109.97 767.06,-135.9 786.79,-153.32"/>
<polygon fill="#757575" stroke="#757575" points="784.27,-155.77 794.04,-159.87 788.96,-150.57 784.27,-155.77"/>
</g>
<!-- browser/chunk&#45;BAESIRT4.js&#45;&gt;browser/chunk&#45;EXHXBRXG.js -->
<g id="edge9" class="edge">
<title>browser/chunk&#45;BAESIRT4.js&#45;&gt;browser/chunk&#45;EXHXBRXG.js</title>
<path fill="none" stroke="#757575" d="M479.6,-48.71C491.43,-52.66 504.79,-57.39 516.75,-62.24 543.99,-73.3 574.12,-87.74 595.91,-98.6"/>
<polygon fill="#757575" stroke="#757575" points="594.32,-101.72 604.83,-103.08 597.46,-95.46 594.32,-101.72"/>
</g>
<!-- browser/chunk&#45;CUX2ORZG.js -->
<g id="node8" class="node">
<title>browser/chunk&#45;CUX2ORZG.js</title>
<path fill="none" stroke="#c6c5fe" d="M331.33,-333.24C331.33,-333.24 195.92,-333.24 195.92,-333.24 192.58,-333.24 189.25,-329.91 189.25,-326.58 189.25,-326.58 189.25,-319.91 189.25,-319.91 189.25,-316.58 192.58,-313.24 195.92,-313.24 195.92,-313.24 331.33,-313.24 331.33,-313.24 334.67,-313.24 338,-316.58 338,-319.91 338,-319.91 338,-326.58 338,-326.58 338,-329.91 334.67,-333.24 331.33,-333.24"/>
<text xml:space="preserve" text-anchor="middle" x="263.62" y="-319.74" font-family="Arial" font-size="10.00" fill="#c6c5fe">browser/chunk&#45;CUX2ORZG.js</text>
</g>
<!-- browser/chunk&#45;CUX2ORZG.js&#45;&gt;browser/chunk&#45;3IHFYJ4J.js -->
<g id="edge10" class="edge">
<title>browser/chunk&#45;CUX2ORZG.js&#45;&gt;browser/chunk&#45;3IHFYJ4J.js</title>
<path fill="none" stroke="#757575" d="M338.28,-333.32C429.28,-342.21 586.27,-345.7 702.25,-285.24 743.96,-263.5 777.31,-217.87 794.11,-191.4"/>
<polygon fill="#757575" stroke="#757575" points="797.05,-193.31 799.3,-182.96 791.08,-189.65 797.05,-193.31"/>
</g>
<!-- browser/chunk&#45;CUX2ORZG.js&#45;&gt;browser/chunk&#45;4ZS62PVB.js -->
<g id="edge11" class="edge">
<title>browser/chunk&#45;CUX2ORZG.js&#45;&gt;browser/chunk&#45;4ZS62PVB.js</title>
<path fill="none" stroke="#757575" d="M297.59,-333.7C326.52,-342.87 368.79,-356.28 400.55,-366.35"/>
<polygon fill="#757575" stroke="#757575" points="399.28,-369.61 409.87,-369.3 401.39,-362.94 399.28,-369.61"/>
</g>
<!-- browser/chunk&#45;CUX2ORZG.js&#45;&gt;browser/chunk&#45;74S4U37A.js -->
<g id="edge12" class="edge">
<title>browser/chunk&#45;CUX2ORZG.js&#45;&gt;browser/chunk&#45;74S4U37A.js</title>
<path fill="none" stroke="#757575" d="M331,-312.79C392.53,-303.1 484.09,-288.68 548.96,-278.46"/>
<polygon fill="#757575" stroke="#757575" points="549.11,-281.98 558.44,-276.96 548.02,-275.06 549.11,-281.98"/>
</g>
<!-- browser/main&#45;T334GJBL.js -->
<g id="node9" class="node">
<title>browser/main&#45;T334GJBL.js</title>
<path fill="none" stroke="#c6c5fe" d="M137.21,-143.24C137.21,-143.24 16.04,-143.24 16.04,-143.24 12.71,-143.24 9.38,-139.91 9.38,-136.58 9.38,-136.58 9.38,-129.91 9.38,-129.91 9.38,-126.58 12.71,-123.24 16.04,-123.24 16.04,-123.24 137.21,-123.24 137.21,-123.24 140.54,-123.24 143.88,-126.58 143.88,-129.91 143.88,-129.91 143.88,-136.58 143.88,-136.58 143.88,-139.91 140.54,-143.24 137.21,-143.24"/>
<text xml:space="preserve" text-anchor="middle" x="76.62" y="-129.74" font-family="Arial" font-size="10.00" fill="#c6c5fe">browser/main&#45;T334GJBL.js</text>
</g>
<!-- browser/main&#45;T334GJBL.js&#45;&gt;browser/chunk&#45;3IHFYJ4J.js -->
<g id="edge16" class="edge">
<title>browser/main&#45;T334GJBL.js&#45;&gt;browser/chunk&#45;3IHFYJ4J.js</title>
<path fill="none" stroke="#757575" d="M85.17,-122.96C101.42,-101.73 142.1,-53.35 189.25,-33.24 323.26,23.9 371.5,-7.96 516.75,-19.24 599.95,-25.71 629.53,-7.32 702.25,-48.24 745.67,-72.68 778.94,-122.75 795.13,-150.89"/>
<polygon fill="#757575" stroke="#757575" points="792.01,-152.47 799.93,-159.51 798.12,-149.07 792.01,-152.47"/>
</g>
<!-- browser/main&#45;T334GJBL.js&#45;&gt;browser/chunk&#45;4ZS62PVB.js -->
<g id="edge17" class="edge">
<title>browser/main&#45;T334GJBL.js&#45;&gt;browser/chunk&#45;4ZS62PVB.js</title>
<path fill="none" stroke="#757575" d="M142.13,-143.57C146.22,-145.94 150,-148.8 153.25,-152.24 212.21,-214.78 127.29,-282.68 189.25,-342.24 234.48,-385.72 306.61,-392.99 362.66,-390.67"/>
<polygon fill="#757575" stroke="#757575" points="362.69,-394.17 372.48,-390.14 362.31,-387.18 362.69,-394.17"/>
</g>
<!-- browser/main&#45;T334GJBL.js&#45;&gt;browser/chunk&#45;74S4U37A.js -->
<g id="edge19" class="edge">
<title>browser/main&#45;T334GJBL.js&#45;&gt;browser/chunk&#45;74S4U37A.js</title>
<path fill="none" stroke="#757575" d="M126.57,-143.71C135.56,-146.15 144.78,-149 153.25,-152.24 170.14,-158.72 172.71,-163.92 189.25,-171.24 269.12,-206.6 288.94,-218.4 374,-238.24 430.49,-251.42 495.57,-258.45 545.51,-262.17"/>
<polygon fill="#757575" stroke="#757575" points="545.16,-265.65 555.39,-262.87 545.66,-258.67 545.16,-265.65"/>
</g>
<!-- browser/main&#45;T334GJBL.js&#45;&gt;browser/chunk&#45;54QRFGJ5.js -->
<g id="edge18" class="edge">
<title>browser/main&#45;T334GJBL.js&#45;&gt;browser/chunk&#45;54QRFGJ5.js</title>
<path fill="none" stroke="#757575" d="M144.15,-140.08C156.05,-141.3 168.57,-142.58 180.84,-143.84"/>
<polygon fill="#757575" stroke="#757575" points="180.19,-147.3 190.5,-144.84 180.91,-140.33 180.19,-147.3"/>
</g>
<!-- browser/main&#45;T334GJBL.js&#45;&gt;browser/chunk&#45;EXHXBRXG.js -->
<g id="edge22" class="edge">
<title>browser/main&#45;T334GJBL.js&#45;&gt;browser/chunk&#45;EXHXBRXG.js</title>
<path fill="none" stroke="#757575" d="M130.69,-122.75C213.24,-107.76 377.42,-83.27 516.75,-95.24 532.64,-96.61 549.68,-99.07 565.49,-101.77"/>
<polygon fill="#757575" stroke="#757575" points="564.8,-105.2 575.25,-103.51 566.02,-98.31 564.8,-105.2"/>
</g>
<!-- browser/main&#45;T334GJBL.js&#45;&gt;browser/chunk&#45;QL3UJSK6.js -->
<g id="edge23" class="edge">
<title>browser/main&#45;T334GJBL.js&#45;&gt;browser/chunk&#45;QL3UJSK6.js</title>
<path fill="none" stroke="#757575" d="M144.04,-129.8C205.41,-126.62 296.77,-121.89 362.61,-118.48"/>
<polygon fill="#757575" stroke="#757575" points="362.45,-121.99 372.25,-117.98 362.09,-115 362.45,-121.99"/>
</g>
<!-- browser/main&#45;T334GJBL.js&#45;&gt;browser/chunk&#45;BAESIRT4.js -->
<g id="edge20" class="edge">
<title>browser/main&#45;T334GJBL.js&#45;&gt;browser/chunk&#45;BAESIRT4.js</title>
<path fill="none" stroke="#757575" d="M89.66,-122.81C109.1,-106.63 149.27,-75.94 189.25,-62.24 245.2,-43.07 311.84,-37.34 362.98,-36.26"/>
<polygon fill="#757575" stroke="#757575" points="362.85,-39.76 372.8,-36.11 362.75,-32.76 362.85,-39.76"/>
</g>
<!-- browser/main&#45;T334GJBL.js&#45;&gt;browser/chunk&#45;CUX2ORZG.js -->
<g id="edge21" class="edge">
<title>browser/main&#45;T334GJBL.js&#45;&gt;browser/chunk&#45;CUX2ORZG.js</title>
<path fill="none" stroke="#757575" d="M141.44,-143.69C145.75,-146.03 149.76,-148.85 153.25,-152.24 195.62,-193.44 153.14,-233.47 189.25,-280.24 198.29,-291.96 211.5,-301.09 224.22,-307.86"/>
<polygon fill="#757575" stroke="#757575" points="222.36,-310.85 232.88,-312.13 225.46,-304.57 222.36,-310.85"/>
</g>
<!-- browser/polyfills&#45;5CFQRCPP.js -->
<g id="node10" class="node">
<title>browser/polyfills&#45;5CFQRCPP.js</title>
<path fill="none" stroke="#cfffac" d="M146.58,-181.24C146.58,-181.24 6.67,-181.24 6.67,-181.24 3.33,-181.24 0,-177.91 0,-174.58 0,-174.58 0,-167.91 0,-167.91 0,-164.58 3.33,-161.24 6.67,-161.24 6.67,-161.24 146.58,-161.24 146.58,-161.24 149.92,-161.24 153.25,-164.58 153.25,-167.91 153.25,-167.91 153.25,-174.58 153.25,-174.58 153.25,-177.91 149.92,-181.24 146.58,-181.24"/>
<text xml:space="preserve" text-anchor="middle" x="76.62" y="-167.74" font-family="Arial" font-size="10.00" fill="#cfffac">browser/polyfills&#45;5CFQRCPP.js</text>
</g>
</g>
</svg>
