<?xml version="1.0" encoding="UTF-8" standalone="no"?>
<!DOCTYPE svg PUBLIC "-//W3C//DTD SVG 1.1//EN"
 "http://www.w3.org/Graphics/SVG/1.1/DTD/svg11.dtd">
<!-- Generated by graphviz version 13.0.1 (20250615.1724)
 -->
<!-- Title: G Pages: 1 -->
<svg width="926pt" height="449pt"
 viewBox="0.00 0.00 926.00 449.00" xmlns="http://www.w3.org/2000/svg" xmlns:xlink="http://www.w3.org/1999/xlink">
<g id="graph0" class="graph" transform="scale(1 1) rotate(0) translate(21.6 426.95)">
<title>G</title>
<polygon fill="#111111" stroke="none" points="-21.6,21.6 -21.6,-426.95 904.1,-426.95 904.1,21.6 -21.6,21.6"/>
<!-- browser/chunk&#45;6ZQZIUFR.js -->
<g id="node1" class="node">
<title>browser/chunk&#45;6ZQZIUFR.js</title>
<path fill="none" stroke="#c6c5fe" d="M508.21,-286.84C508.21,-286.84 379.54,-286.84 379.54,-286.84 376.21,-286.84 372.88,-283.51 372.88,-280.17 372.88,-280.17 372.88,-273.51 372.88,-273.51 372.88,-270.17 376.21,-266.84 379.54,-266.84 379.54,-266.84 508.21,-266.84 508.21,-266.84 511.54,-266.84 514.88,-270.17 514.88,-273.51 514.88,-273.51 514.88,-280.17 514.88,-280.17 514.88,-283.51 511.54,-286.84 508.21,-286.84"/>
<text xml:space="preserve" text-anchor="middle" x="443.88" y="-273.34" font-family="Arial" font-size="10.00" fill="#c6c5fe">browser/chunk&#45;6ZQZIUFR.js</text>
</g>
<!-- browser/chunk&#45;LZ36XO2U.js -->
<g id="node2" class="node">
<title>browser/chunk&#45;LZ36XO2U.js</title>
<path fill="none" stroke="#c6c5fe" d="M689.58,-286.84C689.58,-286.84 560.92,-286.84 560.92,-286.84 557.58,-286.84 554.25,-283.51 554.25,-280.17 554.25,-280.17 554.25,-273.51 554.25,-273.51 554.25,-270.17 557.58,-266.84 560.92,-266.84 560.92,-266.84 689.58,-266.84 689.58,-266.84 692.92,-266.84 696.25,-270.17 696.25,-273.51 696.25,-273.51 696.25,-280.17 696.25,-280.17 696.25,-283.51 692.92,-286.84 689.58,-286.84"/>
<text xml:space="preserve" text-anchor="middle" x="625.25" y="-273.34" font-family="Arial" font-size="10.00" fill="#c6c5fe">browser/chunk&#45;LZ36XO2U.js</text>
</g>
<!-- browser/chunk&#45;6ZQZIUFR.js&#45;&gt;browser/chunk&#45;LZ36XO2U.js -->
<g id="edge1" class="edge">
<title>browser/chunk&#45;6ZQZIUFR.js&#45;&gt;browser/chunk&#45;LZ36XO2U.js</title>
<path fill="none" stroke="#757575" d="M515.25,-276.84C524.16,-276.84 533.33,-276.84 542.39,-276.84"/>
<polygon fill="#757575" stroke="#757575" points="542.27,-280.34 552.27,-276.84 542.27,-273.34 542.27,-280.34"/>
</g>
<!-- browser/chunk&#45;TDGYXMPY.js -->
<g id="node3" class="node">
<title>browser/chunk&#45;TDGYXMPY.js</title>
<path fill="none" stroke="#cfffac" d="M875.83,-229.84C875.83,-229.84 741.17,-229.84 741.17,-229.84 737.83,-229.84 734.5,-226.51 734.5,-223.17 734.5,-223.17 734.5,-216.51 734.5,-216.51 734.5,-213.17 737.83,-209.84 741.17,-209.84 741.17,-209.84 875.83,-209.84 875.83,-209.84 879.17,-209.84 882.5,-213.17 882.5,-216.51 882.5,-216.51 882.5,-223.17 882.5,-223.17 882.5,-226.51 879.17,-229.84 875.83,-229.84"/>
<text xml:space="preserve" text-anchor="middle" x="808.5" y="-216.34" font-family="Arial" font-size="10.00" fill="#cfffac">browser/chunk&#45;TDGYXMPY.js</text>
</g>
<!-- browser/chunk&#45;6ZQZIUFR.js&#45;&gt;browser/chunk&#45;TDGYXMPY.js -->
<g id="edge2" class="edge">
<title>browser/chunk&#45;6ZQZIUFR.js&#45;&gt;browser/chunk&#45;TDGYXMPY.js</title>
<path fill="none" stroke="#757575" d="M502.09,-266.39C518.21,-263.53 535.78,-260.48 552,-257.84 608.87,-248.57 673.02,-239.03 722.81,-231.83"/>
<polygon fill="#757575" stroke="#757575" points="723.28,-235.3 732.68,-230.41 722.28,-228.37 723.28,-235.3"/>
</g>
<!-- browser/chunk&#45;LZ36XO2U.js&#45;&gt;browser/chunk&#45;TDGYXMPY.js -->
<g id="edge3" class="edge">
<title>browser/chunk&#45;LZ36XO2U.js&#45;&gt;browser/chunk&#45;TDGYXMPY.js</title>
<path fill="none" stroke="#757575" d="M659.49,-266.39C688.66,-257.21 731.29,-243.81 763.31,-233.74"/>
<polygon fill="#757575" stroke="#757575" points="764.23,-237.12 772.72,-230.78 762.13,-230.44 764.23,-237.12"/>
</g>
<!-- browser/chunk&#45;PNHPVRIP.js -->
<g id="node4" class="node">
<title>browser/chunk&#45;PNHPVRIP.js</title>
<path fill="none" stroke="#c6c5fe" d="M509.33,-362.84C509.33,-362.84 378.42,-362.84 378.42,-362.84 375.08,-362.84 371.75,-359.51 371.75,-356.17 371.75,-356.17 371.75,-349.51 371.75,-349.51 371.75,-346.17 375.08,-342.84 378.42,-342.84 378.42,-342.84 509.33,-342.84 509.33,-342.84 512.67,-342.84 516,-346.17 516,-349.51 516,-349.51 516,-356.17 516,-356.17 516,-359.51 512.67,-362.84 509.33,-362.84"/>
<text xml:space="preserve" text-anchor="middle" x="443.88" y="-349.34" font-family="Arial" font-size="10.00" fill="#c6c5fe">browser/chunk&#45;PNHPVRIP.js</text>
</g>
<!-- browser/chunk&#45;PNHPVRIP.js&#45;&gt;browser/chunk&#45;LZ36XO2U.js -->
<g id="edge4" class="edge">
<title>browser/chunk&#45;PNHPVRIP.js&#45;&gt;browser/chunk&#45;LZ36XO2U.js</title>
<path fill="none" stroke="#757575" d="M478.47,-342.44C490.44,-338.49 503.93,-333.75 516,-328.84 543.09,-317.81 573,-303.25 594.5,-292.35"/>
<polygon fill="#757575" stroke="#757575" points="595.97,-295.53 603.28,-287.86 592.78,-289.29 595.97,-295.53"/>
</g>
<!-- browser/chunk&#45;PNHPVRIP.js&#45;&gt;browser/chunk&#45;TDGYXMPY.js -->
<g id="edge5" class="edge">
<title>browser/chunk&#45;PNHPVRIP.js&#45;&gt;browser/chunk&#45;TDGYXMPY.js</title>
<path fill="none" stroke="#757575" d="M516.35,-344.33C568.49,-336.34 639.96,-321.63 698.5,-295.84 732.37,-280.92 766.6,-254.85 787.43,-237.47"/>
<polygon fill="#757575" stroke="#757575" points="789.51,-240.29 794.86,-231.15 784.97,-234.96 789.51,-240.29"/>
</g>
<!-- browser/chunk&#45;RGI54RP5.js -->
<g id="node5" class="node">
<title>browser/chunk&#45;RGI54RP5.js</title>
<path fill="none" stroke="#c6c5fe" d="M507.83,-58.84C507.83,-58.84 379.92,-58.84 379.92,-58.84 376.58,-58.84 373.25,-55.51 373.25,-52.17 373.25,-52.17 373.25,-45.51 373.25,-45.51 373.25,-42.17 376.58,-38.84 379.92,-38.84 379.92,-38.84 507.83,-38.84 507.83,-38.84 511.17,-38.84 514.5,-42.17 514.5,-45.51 514.5,-45.51 514.5,-52.17 514.5,-52.17 514.5,-55.51 511.17,-58.84 507.83,-58.84"/>
<text xml:space="preserve" text-anchor="middle" x="443.88" y="-45.34" font-family="Arial" font-size="10.00" fill="#c6c5fe">browser/chunk&#45;RGI54RP5.js</text>
</g>
<!-- browser/chunk&#45;RGI54RP5.js&#45;&gt;browser/chunk&#45;TDGYXMPY.js -->
<g id="edge6" class="edge">
<title>browser/chunk&#45;RGI54RP5.js&#45;&gt;browser/chunk&#45;TDGYXMPY.js</title>
<path fill="none" stroke="#757575" d="M514.99,-53.6C568.24,-59.73 641.73,-73.75 698.5,-105.84 740.38,-129.51 776.11,-174.38 794.41,-200.21"/>
<polygon fill="#757575" stroke="#757575" points="791.33,-201.9 799.89,-208.14 797.09,-197.93 791.33,-201.9"/>
</g>
<!-- browser/chunk&#45;WGR6XL5V.js -->
<g id="node6" class="node">
<title>browser/chunk&#45;WGR6XL5V.js</title>
<path fill="none" stroke="#c6c5fe" d="M691.83,-134.84C691.83,-134.84 558.67,-134.84 558.67,-134.84 555.33,-134.84 552,-131.51 552,-128.17 552,-128.17 552,-121.51 552,-121.51 552,-118.17 555.33,-114.84 558.67,-114.84 558.67,-114.84 691.83,-114.84 691.83,-114.84 695.17,-114.84 698.5,-118.17 698.5,-121.51 698.5,-121.51 698.5,-128.17 698.5,-128.17 698.5,-131.51 695.17,-134.84 691.83,-134.84"/>
<text xml:space="preserve" text-anchor="middle" x="625.25" y="-121.34" font-family="Arial" font-size="10.00" fill="#c6c5fe">browser/chunk&#45;WGR6XL5V.js</text>
</g>
<!-- browser/chunk&#45;RGI54RP5.js&#45;&gt;browser/chunk&#45;WGR6XL5V.js -->
<g id="edge7" class="edge">
<title>browser/chunk&#45;RGI54RP5.js&#45;&gt;browser/chunk&#45;WGR6XL5V.js</title>
<path fill="none" stroke="#757575" d="M478.47,-59.24C490.44,-63.19 503.93,-67.93 516,-72.84 543.09,-83.87 573,-98.43 594.5,-109.33"/>
<polygon fill="#757575" stroke="#757575" points="592.78,-112.39 603.28,-113.83 595.97,-106.15 592.78,-112.39"/>
</g>
<!-- browser/chunk&#45;WGR6XL5V.js&#45;&gt;browser/chunk&#45;TDGYXMPY.js -->
<g id="edge11" class="edge">
<title>browser/chunk&#45;WGR6XL5V.js&#45;&gt;browser/chunk&#45;TDGYXMPY.js</title>
<path fill="none" stroke="#757575" d="M645.99,-135.19C677.78,-151.85 740.49,-184.72 777.73,-204.24"/>
<polygon fill="#757575" stroke="#757575" points="775.68,-207.12 786.17,-208.66 778.93,-200.92 775.68,-207.12"/>
</g>
<!-- browser/chunk&#45;RXMXAFJG.js -->
<g id="node7" class="node">
<title>browser/chunk&#45;RXMXAFJG.js</title>
<path fill="none" stroke="#c6c5fe" d="M329.08,-96.84C329.08,-96.84 194.42,-96.84 194.42,-96.84 191.08,-96.84 187.75,-93.51 187.75,-90.17 187.75,-90.17 187.75,-83.51 187.75,-83.51 187.75,-80.17 191.08,-76.84 194.42,-76.84 194.42,-76.84 329.08,-76.84 329.08,-76.84 332.42,-76.84 335.75,-80.17 335.75,-83.51 335.75,-83.51 335.75,-90.17 335.75,-90.17 335.75,-93.51 332.42,-96.84 329.08,-96.84"/>
<text xml:space="preserve" text-anchor="middle" x="261.75" y="-83.34" font-family="Arial" font-size="10.00" fill="#c6c5fe">browser/chunk&#45;RXMXAFJG.js</text>
</g>
<!-- browser/chunk&#45;RXMXAFJG.js&#45;&gt;browser/chunk&#45;TDGYXMPY.js -->
<g id="edge9" class="edge">
<title>browser/chunk&#45;RXMXAFJG.js&#45;&gt;browser/chunk&#45;TDGYXMPY.js</title>
<path fill="none" stroke="#757575" d="M277,-76.48C296.99,-62.65 335.04,-38.86 371.75,-29.84 513.19,4.91 575.22,22.72 698.5,-54.84 753.33,-89.33 786.54,-162.61 800.22,-198.76"/>
<polygon fill="#757575" stroke="#757575" points="796.9,-199.86 803.6,-208.07 803.48,-197.47 796.9,-199.86"/>
</g>
<!-- browser/chunk&#45;RXMXAFJG.js&#45;&gt;browser/chunk&#45;RGI54RP5.js -->
<g id="edge8" class="edge">
<title>browser/chunk&#45;RXMXAFJG.js&#45;&gt;browser/chunk&#45;RGI54RP5.js</title>
<path fill="none" stroke="#757575" d="M312.45,-76.36C334,-71.81 359.45,-66.44 382.12,-61.66"/>
<polygon fill="#757575" stroke="#757575" points="382.8,-65.09 391.86,-59.6 381.35,-58.24 382.8,-65.09"/>
</g>
<!-- browser/chunk&#45;RXMXAFJG.js&#45;&gt;browser/chunk&#45;WGR6XL5V.js -->
<g id="edge10" class="edge">
<title>browser/chunk&#45;RXMXAFJG.js&#45;&gt;browser/chunk&#45;WGR6XL5V.js</title>
<path fill="none" stroke="#757575" d="M336.24,-93.14C386.82,-97.64 455.54,-104.07 516,-110.84 523.9,-111.73 532.11,-112.7 540.33,-113.7"/>
<polygon fill="#757575" stroke="#757575" points="539.65,-117.14 550,-114.9 540.51,-110.2 539.65,-117.14"/>
</g>
<!-- browser/chunk&#45;ZYVVDM4O.js -->
<g id="node8" class="node">
<title>browser/chunk&#45;ZYVVDM4O.js</title>
<path fill="none" stroke="#c6c5fe" d="M329.08,-248.84C329.08,-248.84 194.42,-248.84 194.42,-248.84 191.08,-248.84 187.75,-245.51 187.75,-242.17 187.75,-242.17 187.75,-235.51 187.75,-235.51 187.75,-232.17 191.08,-228.84 194.42,-228.84 194.42,-228.84 329.08,-228.84 329.08,-228.84 332.42,-228.84 335.75,-232.17 335.75,-235.51 335.75,-235.51 335.75,-242.17 335.75,-242.17 335.75,-245.51 332.42,-248.84 329.08,-248.84"/>
<text xml:space="preserve" text-anchor="middle" x="261.75" y="-235.34" font-family="Arial" font-size="10.00" fill="#c6c5fe">browser/chunk&#45;ZYVVDM4O.js</text>
</g>
<!-- browser/chunk&#45;ZYVVDM4O.js&#45;&gt;browser/chunk&#45;6ZQZIUFR.js -->
<g id="edge12" class="edge">
<title>browser/chunk&#45;ZYVVDM4O.js&#45;&gt;browser/chunk&#45;6ZQZIUFR.js</title>
<path fill="none" stroke="#757575" d="M312.45,-249.32C334,-253.87 359.45,-259.24 382.12,-264.02"/>
<polygon fill="#757575" stroke="#757575" points="381.35,-267.44 391.86,-266.08 382.8,-260.59 381.35,-267.44"/>
</g>
<!-- browser/chunk&#45;ZYVVDM4O.js&#45;&gt;browser/chunk&#45;LZ36XO2U.js -->
<g id="edge13" class="edge">
<title>browser/chunk&#45;ZYVVDM4O.js&#45;&gt;browser/chunk&#45;LZ36XO2U.js</title>
<path fill="none" stroke="#757575" d="M336.08,-242.42C386.75,-245.36 455.62,-250.3 516,-257.84 530.12,-259.6 545.2,-261.95 559.48,-264.4"/>
<polygon fill="#757575" stroke="#757575" points="558.78,-267.83 569.23,-266.1 559.99,-260.93 558.78,-267.83"/>
</g>
<!-- browser/chunk&#45;ZYVVDM4O.js&#45;&gt;browser/chunk&#45;TDGYXMPY.js -->
<g id="edge14" class="edge">
<title>browser/chunk&#45;ZYVVDM4O.js&#45;&gt;browser/chunk&#45;TDGYXMPY.js</title>
<path fill="none" stroke="#757575" d="M336.22,-236.28C436.81,-232.77 616.99,-226.49 723.04,-222.79"/>
<polygon fill="#757575" stroke="#757575" points="722.94,-226.29 732.82,-222.45 722.7,-219.3 722.94,-226.29"/>
</g>
<!-- browser/chunk&#45;ZYVVDM4O.js&#45;&gt;browser/chunk&#45;WGR6XL5V.js -->
<g id="edge15" class="edge">
<title>browser/chunk&#45;ZYVVDM4O.js&#45;&gt;browser/chunk&#45;WGR6XL5V.js</title>
<path fill="none" stroke="#757575" d="M281.54,-228.42C302.87,-216.93 338.97,-198.54 371.75,-186.84 432.94,-164.99 505.14,-148.11 556.63,-137.52"/>
<polygon fill="#757575" stroke="#757575" points="557.03,-141.01 566.14,-135.59 555.64,-134.15 557.03,-141.01"/>
</g>
<!-- browser/main&#45;OR6BZVUQ.js -->
<g id="node9" class="node">
<title>browser/main&#45;OR6BZVUQ.js</title>
<path fill="none" stroke="#c6c5fe" d="M140.58,-267.84C140.58,-267.84 11.17,-267.84 11.17,-267.84 7.83,-267.84 4.5,-264.51 4.5,-261.17 4.5,-261.17 4.5,-254.51 4.5,-254.51 4.5,-251.17 7.83,-247.84 11.17,-247.84 11.17,-247.84 140.58,-247.84 140.58,-247.84 143.92,-247.84 147.25,-251.17 147.25,-254.51 147.25,-254.51 147.25,-261.17 147.25,-261.17 147.25,-264.51 143.92,-267.84 140.58,-267.84"/>
<text xml:space="preserve" text-anchor="middle" x="75.88" y="-254.34" font-family="Arial" font-size="10.00" fill="#c6c5fe">browser/main&#45;OR6BZVUQ.js</text>
</g>
<!-- browser/main&#45;OR6BZVUQ.js&#45;&gt;browser/chunk&#45;6ZQZIUFR.js -->
<g id="edge16" class="edge">
<title>browser/main&#45;OR6BZVUQ.js&#45;&gt;browser/chunk&#45;6ZQZIUFR.js</title>
<path fill="none" stroke="#757575" d="M147.44,-261.5C208.58,-264.68 297.06,-269.27 361.24,-272.6"/>
<polygon fill="#757575" stroke="#757575" points="360.84,-276.09 371.01,-273.11 361.21,-269.1 360.84,-276.09"/>
</g>
<!-- browser/main&#45;OR6BZVUQ.js&#45;&gt;browser/chunk&#45;LZ36XO2U.js -->
<g id="edge17" class="edge">
<title>browser/main&#45;OR6BZVUQ.js&#45;&gt;browser/chunk&#45;LZ36XO2U.js</title>
<path fill="none" stroke="#757575" d="M118.75,-268.33C139.4,-273.13 164.75,-278.49 187.75,-281.84 332.25,-302.88 370.53,-308.51 516,-295.84 531.68,-294.48 548.49,-292.02 564.08,-289.31"/>
<polygon fill="#757575" stroke="#757575" points="564.47,-292.8 573.69,-287.58 563.23,-285.91 564.47,-292.8"/>
</g>
<!-- browser/main&#45;OR6BZVUQ.js&#45;&gt;browser/chunk&#45;TDGYXMPY.js -->
<g id="edge21" class="edge">
<title>browser/main&#45;OR6BZVUQ.js&#45;&gt;browser/chunk&#45;TDGYXMPY.js</title>
<path fill="none" stroke="#757575" d="M138.11,-268.17C143.03,-270.51 147.66,-273.36 151.75,-276.84 182.37,-302.9 154.87,-336.7 187.75,-359.84 307.13,-443.87 370.9,-387.94 516,-371.84 598.63,-362.67 625.85,-371.26 698.5,-330.84 739.78,-307.87 775.53,-264.48 794.04,-239.29"/>
<polygon fill="#757575" stroke="#757575" points="796.83,-241.41 799.8,-231.24 791.13,-237.34 796.83,-241.41"/>
</g>
<!-- browser/main&#45;OR6BZVUQ.js&#45;&gt;browser/chunk&#45;PNHPVRIP.js -->
<g id="edge18" class="edge">
<title>browser/main&#45;OR6BZVUQ.js&#45;&gt;browser/chunk&#45;PNHPVRIP.js</title>
<path fill="none" stroke="#757575" d="M135.52,-268.27C141.26,-270.58 146.79,-273.4 151.75,-276.84 174.84,-292.87 163.49,-314.64 187.75,-328.84 239.44,-359.09 307.32,-364.16 360.06,-362.17"/>
<polygon fill="#757575" stroke="#757575" points="360.08,-365.68 369.9,-361.7 359.75,-358.68 360.08,-365.68"/>
</g>
<!-- browser/main&#45;OR6BZVUQ.js&#45;&gt;browser/chunk&#45;RGI54RP5.js -->
<g id="edge19" class="edge">
<title>browser/main&#45;OR6BZVUQ.js&#45;&gt;browser/chunk&#45;RGI54RP5.js</title>
<path fill="none" stroke="#757575" d="M79.25,-247.67C87.53,-214.82 118.44,-111.15 187.75,-67.84 242.26,-33.78 316.66,-32.16 371.05,-37.18"/>
<polygon fill="#757575" stroke="#757575" points="370.53,-40.65 380.83,-38.19 371.25,-33.68 370.53,-40.65"/>
</g>
<!-- browser/main&#45;OR6BZVUQ.js&#45;&gt;browser/chunk&#45;WGR6XL5V.js -->
<g id="edge22" class="edge">
<title>browser/main&#45;OR6BZVUQ.js&#45;&gt;browser/chunk&#45;WGR6XL5V.js</title>
<path fill="none" stroke="#757575" d="M97.29,-247.38C144.27,-223.88 264.27,-167.05 371.75,-142.84 427.04,-130.39 490.7,-125.91 540.26,-124.54"/>
<polygon fill="#757575" stroke="#757575" points="540.15,-128.04 550.07,-124.31 539.99,-121.05 540.15,-128.04"/>
</g>
<!-- browser/main&#45;OR6BZVUQ.js&#45;&gt;browser/chunk&#45;RXMXAFJG.js -->
<g id="edge20" class="edge">
<title>browser/main&#45;OR6BZVUQ.js&#45;&gt;browser/chunk&#45;RXMXAFJG.js</title>
<path fill="none" stroke="#757575" d="M81.78,-247.59C95.04,-221 134.2,-149.16 187.75,-110.84 192.77,-107.25 198.36,-104.17 204.14,-101.54"/>
<polygon fill="#757575" stroke="#757575" points="205.34,-104.84 213.29,-97.84 202.71,-98.35 205.34,-104.84"/>
</g>
<!-- browser/main&#45;OR6BZVUQ.js&#45;&gt;browser/chunk&#45;ZYVVDM4O.js -->
<g id="edge23" class="edge">
<title>browser/main&#45;OR6BZVUQ.js&#45;&gt;browser/chunk&#45;ZYVVDM4O.js</title>
<path fill="none" stroke="#757575" d="M147.7,-250.52C157.08,-249.55 166.77,-248.55 176.35,-247.56"/>
<polygon fill="#757575" stroke="#757575" points="176.43,-251.07 186.02,-246.56 175.71,-244.11 176.43,-251.07"/>
</g>
<!-- browser/polyfills&#45;B6TNHZQ6.js -->
<g id="node10" class="node">
<title>browser/polyfills&#45;B6TNHZQ6.js</title>
<path fill="none" stroke="#cfffac" d="M145.08,-305.84C145.08,-305.84 6.67,-305.84 6.67,-305.84 3.33,-305.84 0,-302.51 0,-299.17 0,-299.17 0,-292.51 0,-292.51 0,-289.17 3.33,-285.84 6.67,-285.84 6.67,-285.84 145.08,-285.84 145.08,-285.84 148.42,-285.84 151.75,-289.17 151.75,-292.51 151.75,-292.51 151.75,-299.17 151.75,-299.17 151.75,-302.51 148.42,-305.84 145.08,-305.84"/>
<text xml:space="preserve" text-anchor="middle" x="75.88" y="-292.34" font-family="Arial" font-size="10.00" fill="#cfffac">browser/polyfills&#45;B6TNHZQ6.js</text>
</g>
</g>
</svg>
